/* XPM */
static char *result[] = {
/* columns rows colors chars-per-pixel */
"64 64 7 1 ",
"  c #250E26",
". c #11735C",
"X c #24C630",
"o c #AAFB79",
"O c #87D8B0",
"+ c white",
"@ c None",
/* pixels */
"@@@@@@@@@@@@@@@@@@@@@@@@@@@@@@@@@@@@@@@@@@@@@@@@@@@@@@@@@@@@@@@@",
"@@@@@@@@@@@@@@@@@@@@@@@@@@@@@@@@@@@@@@@@@@@@@@@@@@@@@@@@@@@@@@@@",
"@@@@@@@@@@@@@@@@@@@@@@@@@@@@@@@@@@@@@@@@@@@@@@@@@@@@@@@@@@@@@@@@",
"@@@@@@@@@@@@@@@@@@@@@@@@@@@@@@@@@@@@@@@@@@@@@@@@@@@@@@@@@@@@@@@@",
"@@@@@@@@@@@@@@@@@@@@@@@@@@@@@@@@@@@@@@@@@@@@@@@@@@@@@@@@@@@@@@@@",
"@@@@@@@@@@@@@@@@@@@@@@@@@@@@@@@@@@@@@@@@@@@@@@@@@@@@@@@@@@@@@@@@",
"@@@@@@@@@@@@@@@@@@@@@@@@@@@@@@@@@@@@@@@@@@@@@@@@@@@@@@@@@@@@@@@@",
"@@@@@@@@@@@@@@@@@@@@@@@@@@@@@@@@@@@@@@@@@@      @@@@@@@@@@@@@@@@",
"@@@@@@@@@@@@@@@@@@@@@@@@@@@@@@@@@@@@@@@@  .XXXXo  @@@@@@@@@@@@@@",
"@@@@@@@@@@@@@@@@@@@@@@@@@@@@@@@@@@@@@@@ . XXXXXXoo @@@@@@@@@@@@@",
"@@@@@@@@@@@@@@@@@@@@@@@@@@@@@@@@@@@@@@ .X XXX  Xooo @@@@@@@@@@@@",
"@@@@@@@@@@@@@@@@@@@@@@@@@@@@@@@@@@@@@ .XX XXXX Xooo @@@@@@@@@@@@",
"@@@@@@@@@@@@@@@@@@@@@@@@@@@@@@@@@@@@@ .XX XXXXXXooo @@@@@@@@@@@@",
"@@@@@@@@@@@@@@@@@@@@@@@@@@@@@@@@@@@@@ .XX XXXXXXXoo @@@@@@@@@@@@",
"@@@@@@@@@@@@@@@@@@@@@@@@@@@@@@  @@@@@ .XX XXXXXXXooo @@@@@@@@@@@",
"@@@@@@@@@@@@@@@  @@@@@@@@@@@@ XX @@@@ .XX XXXXXXXXoo @@@@@@@@@@@",
"@@@@@@@@@@@@@@ XX @@@@@@@@@@@@ X @@@@ .XX .XXXXXXXooo @@@@@@@@@@",
"@@@@@@@@@@@@@ XX X @@@@@@@@@@ . @@@@@ .XXX XXXXXXXXooo @@@@@@@@@",
"@@@@@@@@@@@@@ XX X @@  @@@@@@ . @@@@  .XXX .XXXXXXXooo @@@@@@@@@",
"@@@@@@@@@@@@@ X.. @@ ..   @@        O  .XXX XXXX   Xoo @@@@@@@@@",
"@@@@@@@@@@@@ XX.. @ .....   OOO++++OOO .XXX XXX   + Xo @@@@@@@@@",
"@@@@@@@@@@@@ X... @ .... OOOO+ ++++OOO .XXX .XX   + Xo @@@@@@@@@",
"@@@@@@@@@@@ X....  .... OOOO+ X ++++OO .XXXX XXX   XXo @@@@@@@@@",
"@@@@@@@@@@@ X......... OOOO+ XX +++  OO .XXX .XXXXXXXo @@@@@@@@@",
"@@@@@@@@@@@@  ....... OOOO++ X +++ XX O ..XXX  XXXXXX @@@@@@@@@@",
"@@@@@@@@@@@@@ ...... OOO++++ XX   XXXX . ..XXXXXXXXXX @@@@@@@@@@",
"@@@@@@@@@@@@@@ .... OOO+++++ .XXXXXXXXX....XXXXXXXX. @@@@@@@@@@@",
"@@@@@@@@@@@@@@@     OOO++++++ XXXXXXXXXX.....XXX... @@@@@@@@@@@@",
"@@@@@@@@@@@@@@@@@@ OOO+++++  XXXXXXX..X.........   @@@@@@@@@@@@@",
"@@@@@@@@@@@@@@@@@@      ++ XXXXXXXXXX...        @@@@@@@@@@@@@@@@",
"@@@@@@@@@@@@@@@@@@ XXXXX   XXXXXXXX..X. @@@@@@@@@@@@@@@@@@@@@@@@",
"@@@@@@@@@@@@@@@@@ .XXXXXooo XXXXXXX.X. @@@@@@@@@@@@@@@@@@@@@@@@@",
"@@@@@@@@@@@@@@@  .XXXXXooooo XXX...X. @@@@@@@@@@@@@@@@@@@@@@@@@@",
"@@@@@@@@@@@@@@ ...XXXXXoooooo XXX.... @@@@@@@@@@@@@@@@@@@@@@@@@@",
"@@@@@@@@@ @@@@ ...XXXXXXXoooo XXX.... @@@@@@@@@@@@@@@@@@@@@@@@@@",
"@@@@@@@@ X @@@ ....XXXXXXXXooXX....X @@@@@@@@@@@@@@@@@@@@@@@@@@@",
"@@@@@@@@ XX @@ ......XXXXXXooXX.XX.. @@@@@@@@@@@@@@@@@@@@@@@@@@@",
"@@@@@@@@   X  ........XXXXXXXXXX..X @@@@@@@@@@@@@@@@@@@@@@@@@@@@",
"@@@@@@@@ X X..........XXXXXXXXXXX.. @@@@@@@@@@@@@@@@@@@@@@@@@@@@",
"@@@@@@@@ XXX........ ....XXXXXX... @@@@@@@@@@@@@@@@@@@@@@@@@@@@@",
"@@@@@@@@@ XXXX..... O .....XXX..  @@@@@@@@@@@@@@@@@@@@@@@@@@@@@@",
"@@@@@@@@@ XXXX..... OO ....XXX. @@@@@@@@@@@@@@@@@@@@@@@@@@@@@@@@",
"@@@@@@@@@@  XX....  OO    ..X.X @@@@@@@@@@@@@@@@@@@@@@@@@@@@@@@@",
"@@@@@@@@@@@       @ OO ....XXX. @@@@@@@@@@@@@@@@@@@@@@@@@@@@@@@@",
"@@@@@@@@@@@@@@@@@@@@ O ...XX.. @@@@@@@@@@@@@@@@@@@@@@@@@@@@@@@@@",
"@@@@@@@@@@@@@@@@@@@@ OO ..XXXX @@@@@@@@@@@@@@@@@@@@@@@@@@@@@@@@@",
"@@@@@@@@@@@@@@@@@@@@ OO ..XXX. @@@@@@@@@@@@@@@@@@@@@@@@@@@@@@@@@",
"@@@@@@@@@@@@@@@@@@@@@ O ..XXX.. @@@@@@@@@@@ @@@@@@@@@@@@@@@@@@@@",
"@@@@@@@@@@@@@@@@@@@@@ OO ..XXX. @@@@@@@@@@ . @@@@@@@@@@@@@@@@@@@",
"@@@@@@@@@@@@@@@@@@@@@@ O ..XXXXX  @@@@@@@@ X @@@@@@@@@@@@@@@@@@@",
"@@@@@@@@@@@@@@@@@@@@@@ OO ..XXX.X.        X @@@@@@@@@@@@@@@@@@@@",
"@@@@@@@@@@@@@@@@@@@@@@@ OO .X.XX..X......XX @@@@@@@@@@@@@@@@@@@@",
"@@@@@@@@@@@@@@@@@@@@@@@@  O ...XXXXXXXXXXX @@@@@@@@@@@@@@@@@@@@@",
"@@@@@@@@@@@@@@@@@@@@@@@@@@ O ...XX.XXX.X. @@@@@@@@@@@@@@@@@@@@@@",
"@@@@@@@@@@@@@@@@@@@@@@@@@@@ ....X..XXX.. @@@@@@@@@@@@@@@@@@@@@@@",
"@@@@@@@@@@@@@@@@@@@@@@@@@@@@   ........ @@@@@@@@@@@@@@@@@@@@@@@@",
"@@@@@@@@@@@@@@@@@@@@@@@@@@@@@@@        @@@@@@@@@@@@@@@@@@@@@@@@@",
"@@@@@@@@@@@@@@@@@@@@@@@@@@@@@@@@@@@@@@@@@@@@@@@@@@@@@@@@@@@@@@@@",
"@@@@@@@@@@@@@@@@@@@@@@@@@@@@@@@@@@@@@@@@@@@@@@@@@@@@@@@@@@@@@@@@",
"@@@@@@@@@@@@@@@@@@@@@@@@@@@@@@@@@@@@@@@@@@@@@@@@@@@@@@@@@@@@@@@@",
"@@@@@@@@@@@@@@@@@@@@@@@@@@@@@@@@@@@@@@@@@@@@@@@@@@@@@@@@@@@@@@@@",
"@@@@@@@@@@@@@@@@@@@@@@@@@@@@@@@@@@@@@@@@@@@@@@@@@@@@@@@@@@@@@@@@",
"@@@@@@@@@@@@@@@@@@@@@@@@@@@@@@@@@@@@@@@@@@@@@@@@@@@@@@@@@@@@@@@@",
"@@@@@@@@@@@@@@@@@@@@@@@@@@@@@@@@@@@@@@@@@@@@@@@@@@@@@@@@@@@@@@@@"
};
