/* XPM */
static char *result[] = {
/* columns rows colors chars-per-pixel */
"64 64 19 1 ",
"  c #240C24",
". c #250C25",
"X c #240F24",
"o c #250E25",
"O c #250F25",
"+ c #250D26",
"@ c #250E26",
"# c #250E27",
"$ c #250F27",
"% c #260E26",
"& c #260F26",
"* c #270F27",
"= c #251025",
"- c #11735C",
"; c #24C630",
": c #AAFB79",
"> c #87D8B0",
", c white",
"< c None",
/* pixels */
"<<<<<<<<<<<<<<<<<<<<<<<<<<<<<<<<<<<<<<<<<<<<<<<<<<<<<<<<<<<<<<<<",
"<<<<<<<<<<<<<<<<<<<<<<<<<<<<<<<<<<<<<<<<<<<<<<<<<<<<<<<<<<<<<<<<",
"<<<<<<<<<<<<<<<<<<<<<<<<<<<<<<<<<<<<<<<<<<<<<<<<<<<<<<<<<<<<<<<<",
"<<<<<<<<<<<<<<<<<<<<<<<<<<<<<<<<<<<<<<<<<<<<<<<<<<<<<<<<<<<<<<<<",
"<<<<<<<<<<<<<<<<<<<<<<<<<<<<<<<<<<<<<<<<<<<<<<<<<<<<<<<<<<<<<<<<",
"<<<<<<<<<<<<<<<<<<<<<<<<<<<<<<<<<<<<<<<<<<<<<<<<<<<<<<<<<<<<<<<<",
"<<<<<<<<<<<<<<<<<<<<<<<<<<<<<<<<<<<<<<<<<<<<<<<<<<<<<<<<<<<<<<<<",
"<<<<<<<<<<<<<<<<<<<<<<<<<<<##$X  <<<<<<<<<<<<<<<<<<<<<<<<<<<<<<<",
"<<<<<<<<<<<<<<<<<<<<<<<<<<@-@@@@@@@<<<<<<<<<<<<<<<<<<<<<<<<<<<<<",
"<<<<<<<<<<<<<<<<<<<<<<<<<@---------@@@<<<<<<<<<<<<<<<<<<<<<<<<<<",
"<<<<<<<<<<<<<<<<<<<<<<<<@-;-;;;--;----@<<<<<<<<<<<<<<<<<<<<<<<<<",
"<<<<<<<<<<<<<<<<<<<<<<<@;;;;;;;-;;---@>@<<<<<<<<<<<<<<<<<<<<<<<<",
"<<<<<<<<<<<<<<<<<<<<<<@;;---;;;;;;;---@><<<<<<<<<<<<<<<<<<<<<<<<",
"<<<<<<<<<<<<<<<<<<<<<<@;@@@@---;--;;-;-@@@<<<<<<<<<<<<<<<<<<<<<<",
"<<<<<<<<<<<<<<<<<<<<<@;@<<<<@@@@-;-;;;-->>@<<<<<<<<<<<<<<<<<<<<<",
"<<<<<<<<<<<<<<<<<<<<@-@<<<<<<<<<@@;;;;;-@>>@<<<<<<<<<<<<<<<<<<<<",
"<<<<<<<<<<<<<<<<<<<<<@<<<<<<<<<<<@-;;;--@>@<<<<<<<<<<<<<<<<<<<<<",
"<<<<<<<<<<<<<<<<<<<<<<<<<<<<<<<<<@--;;;-@>>@<<<<<<<<<<<<<<<<<<<<",
"<<<<<<<<<<<<<<<<<<<<<<<<<<<<<<<<<<@-;;;--@>@<<<<<<<<<<<<<<<<<<<<",
"<<<<<<<<<<<<<<<<<<<<<<<<<<<<<<<<<<@;;;;--@>>@<<<<<<<<<<<<<<<<<<<",
"<<<<<<<<<<<<<<<<<<<<<<<<<<<<<<<<<<@--;;--@>>@<<<<<<<<<<<<<<<<<<<",
"<<<<<<<<<<<<<<<<<<<<<<<<<<<<<<<<<@-;;;----@>@<<<<<<<<<<<<<<<<<<<",
"<<<<<<<<<<<<<<<<<<<<<<<<<<<<<<<<<@;-;-----@>>@<@@@@<<<<<<<<<<<<<",
"<<<<<<<<<<<<<<<<<<<<<<<<<<<<<<<<<@-;;;-@@@@>>@@----@@@<<<<<<<<<<",
"<<<<<<<<<<<<<<<<<<<<<<<<<<<<<<<@@--;;;----@>>@-----;;@@<<<<<<<<<",
"<<<<<<<<<<<<<<<<<<<<<<<<<<<<<<@---;;;;;----@>@-----;;;;@<<<<<<<<",
"<<<<<<<<<<<<<<<<<<<<<<<<<<<<<@--;;;;;;;;----@------;;;;@<<<<<<<<",
"<<<<<<<<<<<<<<<<<<<<<<<<<<<<@;--;;;;;;;;;;;----------;;;o<<<<<<<",
"<<<<<<<<<<<<<<<<<<<<<<<<<<<@--;;-;;::;;;;;----------;@;@O<<<<<<<",
"<<<<<<<<<<<<<<<<<<<<<<<<<<@@;----;;::;;;;;;------@@@;@@@O<<<<<<<",
"<<<<<<<<<<<<<<<<<<<<<<<<<<@----;;;@::::;;;;;;----@<<@;;@=<<<<<<<",
"<<<<<<<<<<<<<<<<<<<<<<<<<<@----;;;@::::;;;;;;;---@<<<@;@.<<<<<<<",
"<<<<<<<<<<<<<<<<<<<<<<<<<@--;---;;;@:::::;;;;;---@<<<<@<<<<<<<<<",
"<<<<<<<<<<<<<<<<<<<<<<<<@-;;-;;;;;;;@::::;;;;;-@@<<<<<<<<<<<<<<<",
"<<<<<<<<<<<<<@@@@@@@@@@@-----;;;;;;;;@@:;;;;;-@<<<<<<<<<<<<<<<<<",
"<<<<<<<<<<<<@------------;-;;;;;;;;;;@,@;;;;;@<<<<<<<<<<<<<<<<<<",
"<<<<<<<<<<<@-;;;;;;-----;;;-;;;;;;;@@,,,@@@@@@<<<<<<<<<<<<<<<<<<",
"<<<<<<<<<<@;;;;;;;;;;----;;;;;;;;;@,,,,,,,>>>@<<<<<<<<<<<<<<<<<<",
"<<<<<<<<<@;;;;;;;;;;--@-@;;;;;;;;;-@,,,,,>>>@@@@@<<<<<<<<<<<<<<<",
"<<<<<<<<#:;;;;;;@@;;;--@>@;;;@@@;;@,,,,,>>>@----@<<<<<<<<<<<<<<<",
"<<<<<<<<@:;;@@@;;-@;;;-@>>@;@,,,@;@,,>,>>>@------@<<<<<<<<<<<<<<",
"<<<<<<<<@:;@,@@;;;@;;;;-@>>@,,,@;;@,>>>>>@-------@<<<<<<<<<<<<<<",
"<<<<<<<<+:;@,@@@;;-@;;;-@>>,,,,@;@,>>>>>@---------@<<<<<<<<<<<<<",
"<<<<<<<<@::;@@@@;;;@;;;-@>>>,,,,@,>>>>>@----@@----;@<<<<<<<<<<<<",
"<<<<<<<*@:::;;;;;;;@;;;-@@>>,,,,>>>@@@@----@<@---;;@<<<<<<<<<<<<",
"<<<<<<<%@:::;;;;;;;-@;;;-@@@@@@@@@@<<@-----@<@--;;@<<<<<<<<<<<<<",
"<<<<<<<<<@:::;;;;;;;@;;;-@<<<<<@-@<<<<@@--@<<@--;@@<<<<<<<<<<<<<",
"<<<<<<<<<<@::;;;;;;;-@;;-@<<<<<@-@<<<<<<@@<<@;@;;@<<<<<<<<<<<<<<",
"<<<<<<<<<<@:::;;;;;;;@;;-@<<<<@;@<<<<<<<<<<<@;@;;@<<<<<<<<<<<<<<",
"<<<<<<<<<<@::;;;;;;;;@;;-@<<<<@;;@<<<<<<<<<<<@;;@@<<<<<<<<<<<<<<",
"<<<<<<<<<<@:::;;;;;;@;;-@<<<<<@@<<<<<<<<<<<<<<@@<<<<<<<<<<<<<<<<",
"<<<<<<<<<<@:::;;;;;;@;;-@<<<<<<<<<<<<<<<<<<<<<<<<<<<<<<<<<<<<<<<",
"<<<<<<<<<<@:::;@;;;;@;;-@<<<<<<<<<<<<<<<<<<<<<<<<<<<<<<<<<<<<<<<",
"<<<<<<<<<<<@::;@@;;;@;-@<<<<<<<<<<<<<<<<<<<<<<<<<<<<<<<<<<<<<<<<",
"<<<<<<<<<<<<@@:;;;;;@-@<<<<<<<<<<<<<<<<<<<<<<<<<<<<<<<<<<<<<<<<<",
"<<<<<<<<<<<<<<@;;;;-@@<<<<<<<<<<<<<<<<<<<<<<<<<<<<<<<<<<<<<<<<<<",
"<<<<<<<<<<<<<<&%%ooo<<<<<<<<<<<<<<<<<<<<<<<<<<<<<<<<<<<<<<<<<<<<",
"<<<<<<<<<<<<<<<<<<<<<<<<<<<<<<<<<<<<<<<<<<<<<<<<<<<<<<<<<<<<<<<<",
"<<<<<<<<<<<<<<<<<<<<<<<<<<<<<<<<<<<<<<<<<<<<<<<<<<<<<<<<<<<<<<<<",
"<<<<<<<<<<<<<<<<<<<<<<<<<<<<<<<<<<<<<<<<<<<<<<<<<<<<<<<<<<<<<<<<",
"<<<<<<<<<<<<<<<<<<<<<<<<<<<<<<<<<<<<<<<<<<<<<<<<<<<<<<<<<<<<<<<<",
"<<<<<<<<<<<<<<<<<<<<<<<<<<<<<<<<<<<<<<<<<<<<<<<<<<<<<<<<<<<<<<<<",
"<<<<<<<<<<<<<<<<<<<<<<<<<<<<<<<<<<<<<<<<<<<<<<<<<<<<<<<<<<<<<<<<",
"<<<<<<<<<<<<<<<<<<<<<<<<<<<<<<<<<<<<<<<<<<<<<<<<<<<<<<<<<<<<<<<<"
};
