/* XPM */
static char *result[] = {
/* columns rows colors chars-per-pixel */
"64 64 13 1 ",
"  c #40616B",
". c #44686F",
"X c #456A70",
"o c #466D72",
"O c #487073",
"+ c #497773",
"@ c #4A7375",
"# c #487A72",
"$ c #488071",
"% c #4C8174",
"& c #4E8475",
"* c #4D8D73",
"= c #509474",
/* pixels */
"$#@@@@@@@##$@@###$$@@@$$$$$$#@@@@@@@@@@@@###$$@@@$$$$$##@@.@@@@@",
"$$#@@@@@##$$@@##$$@@@@@@@@@@@@@@@@@@@@@@@##$$@@@@@@@@@@@@@@@@@@@",
"@@@@@@@##$$$@@##$$@@@@@@@@@@@@@@@@@@@@@@@#$$$@@@@@@@@@@@@@@@@@@@",
"@@@@@@##$$$@@@#$$$@@@@@@@@@@@@@@@@@@@@@@@#$$$@@@@@@@@@@@@@@@@@@@",
"#@@@@@#$$$$@@@#$$@@@@@@@@@@@@@@@@@@@@@@@@#$$@@@@@@@@@@@@@@@@@@@@",
"##@@@#$$$$@@@@#$@@@@@@@@@@@@@##$@@@@@@@@@$$@@@@@###@@@@@@@@@@@@@",
"$##@@#$$$@@@@@#@@@@@@@@@@@@@##$$@@@@@@@@@$@@@@@###$@@@@@@@@@@@@@",
"$$#@@@@@@@@@@@@@@@@@@@@@@@@#$$$$@@@@@@@@@@@@@@###$$@@@@@@@@@@@@@",
"@@@@@@####@@@@+#####@@@@@@##$$$@@######@@@@@@###$$@@@@@@@@@@@@@@",
"@@@#$@$$###@@#$$$$$##@@@@@#$$$$@#$$$$###@@@@@##$$$@@@@@@@@@@@@@$",
"@@#$$@@$$$###@$$$$$$$#@@@#$$$$@@@$$$$$$##@@@##$$$@$$$###@@@@@@#$",
"@##$$@@$$$$###@$$$$$$$#@@#$$$@@@@@$$$$$$##@@#$$$@$$$$$$##@@@@@#$",
"##$$$@@@$$$$$##@$$$$$$+@@@@@@@@@@@@$$$$$$#@@@@@@@@$$$$$$##@@@#$$",
"##$$@@@@@@@@@@@@@@@@@@@@@@####@@@@@@@@@@@@@@@$$$$@@$$$$$$##@@#$$",
"##$$@@@@@@@@@@@@@@@@@@@#$@$$###@@@@@@@@@@@##@$$$$$@@$$$$$$#@@@@@",
"#$$$@@@@@@@@@@@@@@@@@@#$$@@$$$###@@@@@@@@##$@@$$$$$$@@@@@@@@@@##",
"#$$$@@@@@@@@@@@@@@@@@##$$@@$$$$$##@@@@@@##$$@@$$$$$$$@@@@@@#$o##",
"#$$@@@@@@@@@@@@@@@@@##$$$@@@$$$$$##@@@@##$$$@@@$$$$$$$@@@@##$..#",
"#$@@@@@@@@@@@@@@@@@@##$$@@@@@@@@@@@@@@@##$$@@@@@@@@@@@@@@###$..$",
"#@@@@@@@@@@@@@@@@@@@#$$$@@@@@@@@@@@@@@@#$$$@@@@@@@@@@@@@$##$$.@.",
"@@@@@@@@@@@@@@@$$$@@#$$$@@@@@@@@@@@@@@@#$$$@@@@@@@@@@@@@$##$.@@@",
"@@@@@@@@@@@@@@$$$$@@#$$@@@@@@@@@@@@@@@@#$$@@@@@@@@@@$$$.$$$$.@@@",
"@@@@@@@@@@@@@#$$$$@@#$@@@@@@@@@@@$$*@@@#$@@@@@@@@@@$$$$.$$$$.@$$",
"$$$###@@@@@@#$$$$@@@#@@@@@@@@@@@$$$*@@@#@@@@@@@@@@$$$$$.$$$..$$$",
"$$$$###@@@@@#$$$$@@@@@@@@@@@@@@$$$$*@$$$$$$@@@@@@$$$$$.@$$.@@.$$",
"$$$$$$##@@@##$$$@@$$$$$$@@@@@@$$$$*.*$$$$$##@@@@@##$$$.@$.@@@@.$",
"@$$$$$$##@@##$$@.=$$$$$$$@@@@@$$$$*..*$$$$###@@@###$$.@@.@@@@@@.",
"@@$$$$$$#@@@@@@@@.*$$$$$$$@@@$$$$*.@@.*$$$$$##@@##$$.@@@@@@@@@@@",
"@@@@@@@@@@@@*$$$@@.*$$$$$$$@@****.@@@@.*****%%@@Ooo.@@@@@@@@@@@@",
"@@@@@@@@@$*.*$$$$@@.*******@@....@@@@@@.......@@O%##$@@@@@@@@@@@",
"@@@@@@@@$$*..*$$$$$@.......@@@*$$$@@@@@@@@@@@@#% *###$@@@@@@@@@@",
"@@@@@@@$$$*..=$$$$$$@@@@@@@$*.*$$$$@@@@@@@@@@##*..*##$$$@@@@@@@@",
"@@@@@@$$$$*.@.*******@@@@@$$*..*$$$$$@@@@@@@##$*..*$$$$$$@@@@@@@",
"@@@@@@$$$*.@@@.......@@@@$$$*..*$$$$$$@@@@@$##$*.@.*******@@@@@$",
"@@@@@@$$$*.@@$$*.@@@@@@@$$$$*.@.=******@@@@$$$*.@@@.......@@@@$$",
"@@@@@@$$$*.@$$$*.@@@@@@@$$$*.@@@.......@@@@$$$*.@$$$$$$@@@@@@$$$",
"@@@@@@$$*.@$$$$*.@@@@@@@$$$*.@@@@@@@@@@@@@@$$$*.*$$$$$##@@@@@$$$",
"####@@$*.@$$$$*.@@@@@@@@$$$=.@@@@@@@@@@@@@@$$*.@.*$$$$###@@@#$$$",
"$####@=.@@$$$$*.@@@@@@@@$$*.@@@@@@@@@@@@@@@$*.@@@.*$$$$###@@$$$$",
"$$$###X@@$$$$*.@@@@@@@@@$*.@@@@@@@@@@@@@@@@*.@@@@@.*****%%@@@@@@",
"$$$$$##@@****.@@@@@@@@@@=.@@@@@@@@@@@@@@@@@.@@@@@@@.......@@@%##",
"$$$$$##@@....@@@@@@@@@@@.@@@@@@@@@@@@@@@@@@@@@@@@@@@@@@@@@##.*$$",
"@@@@@@@@@@*$$$@@@@@@@@@@@@@@@@@@@@@@@@@@@@@@@@@@$$*.@@@@@#++..*$",
"@@@@@@@$*.*$$$$@@@@@@@@@@@@@@@@@@@@@@@@@@@@@@@@#$$*.@@@@##+#..*$",
"$$$@@@$$*..*$$$$$@@@@@@@@@@@@@@@@@@@@@@@@@@@@@##$$*.@@@###$$.@.*",
"$$$@@$$$*..*$$$$$$@@@@@@@@@$$$.@@$$$###@@@@@@##$$*.@@@@##$$.@@@.",
"$$$@$$$$*.@.*******@@@@@@@$$$*.@*$$$$$##@@@@@##$$*.@@@@#$$$.@@@@",
"$$@@$$$*.@@@.......@@@@@@$$$$*.@.*$$$$$##@@@##$$*.@@@@@#$$$.@@@$",
"$$@@$$$*.@@@$$$$$$@@@@@@$$$$*.@@@.*$$$$$##@@%***.@@@@@@$$$.@@.=$",
"$@@@$$$*.@.*$$$$$$$@@@@@$$$$*.@@@@.=*****&@@....@@@@@@@$$.@@@@.*",
"@@@@$$* @@@.*$$$$$$$@@@$$$$*.@@@@@@.......@@.*$$$@@@@@@$.@@@@@@.",
"@@@@$*.@@@@@.*$$$$$$$@@****.@@@@@@@@@@@@@@$*.*$$$$@@@@@.@@@@@@@@",
"$@@@*.@@@@@@@.*******@@....@@@@@@@@@@@@@@$$*..*$$$$$@@@@@@@@@@@@",
"$$@@.@@@@@@@@@.......@@.*$$$@@@@@@@@@@@@$$$*..*$$$$$$@@@@@@@@@@@",
"$$$$@@@@@@@@@@@@@@@@@$*.*$$$$@@@@@@@@@@$$$$*.@.*******@@@@@@@@@@",
"$$$$$@@@@@@@@@@@@@@@$$*..*$$$$$@@@@@@@@$$$*.@@@.......@@@@@@@@@@",
"$$$$$$@@@@@@@@@@@@@$$$*..*$$$$$$@@@@@@@$$$*.@@@@@@@@@@@@@@@@@@@@",
"......@@@@@@@$$$.@$$$$*.@ ******$@@@@@@$$$=.@@@@@@@@@@@@@@@@@@@#",
"@@@@@@@@@@@@$$$$.@$$$*.@@@.......@@@@@@$$*.@@@@@@@######@@@@@@##",
"@@@@@@@@@@@$$$$$.@$$$*.@@@@@@@@@@@@@@@@$*.@@@@@@@#$$$$###@@@@@#$",
"$$$$@@@@@@$$$$$.@@$$$*.@@@@@@@@@@@@@@@@=.@@@@@@@@@$$$$$$##@@@#$$",
"$$$$$@@@@@$$$$$.@@$$*.@@@@@@@@@@@@@@@@@.@@@@@@@@@@@$$$$$$$#@@#$$",
"$$$$$$@@@$$$$$.@@@$*.@@@@@@@@@@@@@@@@@@@@@#$$.@@@@@@$$$$$$$@@@@@",
"$$$$$$$@@$$$$.@@@@*.@@@@@@@@@@@@@@@@@@@@@#$$$.@@@@@@@@@@@@@@@@##"
};
