/* XPM */
static char *result[] = {
/* columns rows colors chars-per-pixel */
"64 64 8 1 ",
"  c black",
". c #E53935",
"X c #F44336",
"o c #FFC107",
"O c #FFEB3B",
"+ c #CCC89D",
"@ c #E6E4C8",
"# c None",
/* pixels */
"################################################################",
"################################################################",
"################################################################",
"################################################################",
"################################################################",
"################################################################",
"################################################################",
"################################################################",
"################################################################",
"################################################################",
"################################################################",
"################################################################",
"################################################################",
"################################################################",
"################################################################",
"################################################################",
"###############################....XXX##########################",
"###############################....XXX##########################",
"###############################....XXX##########################",
"###############################....XXX##########################",
"###########################@@@@@@@@@@@@@@@######################",
"###########################@@@@@@@@@@@@@@@######################",
"###########################@@@@@@@@@@@@@@@######################",
"#######################@@@@@@@@    @@@OOOO    ##################",
"#######################@@@@@@@@    @@@OOOO    ##################",
"#######################@@@@@@@@    @@@OOOO    ##################",
"#######################@@@@@@@@    @@@OOOO    ##################",
"####################@@@@@@@@@@@++++@@@XXXX++++##################",
"####################@@@@@@@@@@@++++@@@XXXX++++##################",
"####################@@@@@@@@@@@++++@@@XXXX++++##################",
"################@@@@@@@++++@@@@@@@@@@@@@@@@@@@##################",
"################@@@@@@@++++@@@@@@@@@@@@@@@@@@@##################",
"################@@@@@@@++++@@@@@@@@@@@@@@@@@@@##################",
"################@@@@@@@++++@@@@@@@@@@@@@@@@@@@##################",
"################+++++++@@@@@@@@@@@@+++++++++++##################",
"################+++++++@@@@@@@@@@@@+++++++++++##################",
"################+++++++@@@@@@@@@@@@+++++++++++##################",
"################+++++++@@@@@@@@@@@@+++++++++++##################",
"#######################+++++++++++++++++++######################",
"#######################+++++++++++++++++++######################",
"#######################+++++++++++++++++++######################",
"###########################oooo####ooo##########################",
"###########################oooo####ooo##########################",
"###########################oooo####ooo##########################",
"###########################oooo####ooo##########################",
"################################################################",
"################################################################",
"################################################################",
"################################################################",
"################################################################",
"################################################################",
"################################################################",
"################################################################",
"################################################################",
"################################################################",
"################################################################",
"################################################################",
"################################################################",
"################################################################",
"################################################################",
"################################################################",
"################################################################",
"################################################################",
"################################################################"
};
