/* XPM */
static char *rcp07223646790604[] = {
/* columns rows colors chars-per-pixel */
"64 64 246 2 ",
"   c #331A1F",
".  c #382F1C",
"X  c #0E1224",
"o  c #021D2E",
"O  c #091C2D",
"+  c #0E142C",
"@  c #16192C",
"#  c #011D32",
"$  c #0B1B32",
"%  c #081A35",
"&  c #121C32",
"*  c #1B1D32",
"=  c #161838",
"-  c #0C0F23",
";  c #2C1B2C",
":  c #261D29",
">  c #331B25",
",  c #3D1C25",
"<  c #321B2B",
"1  c #391C2A",
"2  c #3F1627",
"3  c #2A1C33",
"4  c #381D34",
"5  c #06202E",
"6  c #022033",
"7  c #0D2334",
"8  c #05253B",
"9  c #152234",
"0  c #1C2134",
"q  c #1C243A",
"w  c #1B2D3E",
"e  c #15273A",
"r  c #1F202F",
"t  c #2B252C",
"y  c #35222C",
"u  c #3C222B",
"i  c #3B2329",
"p  c #222235",
"a  c #2D2534",
"s  c #2E2936",
"d  c #2D263A",
"f  c #2B293A",
"g  c #232737",
"h  c #322534",
"j  c #372938",
"k  c #37383D",
"l  c #29353C",
"z  c #0F111E",
"x  c #431D26",
"c  c #4A1F33",
"v  c #44242C",
"b  c #58272C",
"n  c #493F25",
"m  c #472536",
"M  c #552234",
"N  c #5C2434",
"B  c #5B253A",
"V  c #58293A",
"C  c #49333B",
"Z  c #573537",
"A  c #59322E",
"S  c #68292E",
"D  c #71282D",
"F  c #6A3A2C",
"G  c #632434",
"H  c #682838",
"J  c #732B32",
"K  c #7B2D34",
"L  c #7A2D39",
"P  c #762836",
"I  c #683839",
"U  c #7C3235",
"Y  c #773739",
"T  c #6A1F31",
"R  c #4B4026",
"E  c #5B482E",
"W  c #594831",
"Q  c #594731",
"!  c #684238",
"~  c #774638",
"^  c #705638",
"/  c #795E3E",
"(  c #755C3F",
")  c #6C5538",
"_  c #1A2B42",
"`  c #1B3245",
"'  c #0C2E4E",
"]  c #242741",
"[  c #372C42",
"{  c #2A3345",
"}  c #343C49",
"|  c #383946",
" . c #2E3D56",
".. c #372F51",
"X. c #083263",
"o. c #171B40",
"O. c #4C3C45",
"+. c #493B47",
"@. c #533A44",
"#. c #5C3C45",
"$. c #5A3C4B",
"%. c #4A344A",
"&. c #633D44",
"*. c #673B47",
"=. c #763B45",
"-. c #682E44",
";. c #37414D",
":. c #3B4457",
">. c #20465D",
",. c #39556D",
"<. c #1C4C62",
"1. c #44434C",
"2. c #4A444C",
"3. c #4E4A4C",
"4. c #464345",
"5. c #5D424B",
"6. c #524C4D",
"7. c #574348",
"8. c #434452",
"9. c #494855",
"0. c #564E52",
"q. c #5A4654",
"w. c #575353",
"e. c #4E5355",
"r. c #654144",
"t. c #6A4345",
"y. c #62434A",
"u. c #694B47",
"i. c #754644",
"p. c #765C40",
"a. c #795F41",
"s. c #79584A",
"d. c #765C58",
"f. c #694F52",
"g. c #7D6140",
"h. c #7D655B",
"j. c #465668",
"k. c #4C5369",
"l. c #67556A",
"z. c #50646F",
"x. c #737373",
"c. c #95392E",
"v. c #862934",
"b. c #843335",
"n. c #8C3434",
"m. c #8B3A35",
"M. c #843A3A",
"N. c #8C3C3A",
"B. c #873638",
"V. c #923B34",
"C. c #9C3C33",
"Z. c #923D3B",
"A. c #953435",
"S. c #8A302F",
"D. c #9B472E",
"F. c #8A463B",
"G. c #9C4234",
"H. c #94433C",
"J. c #9A433A",
"K. c #984A39",
"L. c #8B543D",
"P. c #9B543C",
"I. c #A3442E",
"U. c #A44938",
"Y. c #A8543B",
"T. c #B55A35",
"R. c #B9633A",
"E. c #A1603D",
"W. c #C3693B",
"Q. c #873741",
"!. c #954646",
"~. c #8C5744",
"^. c #985946",
"/. c #995654",
"(. c #884B51",
"). c #AA5A45",
"_. c #B75D41",
"`. c #A65952",
"'. c #A34D42",
"]. c #97735A",
"[. c #8F6B56",
"{. c #B96644",
"}. c #A86A58",
"|. c #A4725D",
" X c #B5765D",
".X c #B56C4D",
"XX c #907369",
"oX c #A57764",
"OX c #B37768",
"+X c #C57A54",
"@X c #C37149",
"#X c #8A8678",
"$X c #AF886F",
"%X c #C5815C",
"&X c #CA8A69",
"*X c #D38D69",
"=X c #D8996D",
"-X c #CA9B7B",
";X c #CF966A",
":X c #D5A179",
">X c #396D8F",
",X c #5D7D96",
"<X c #51738C",
"1X c #6A7587",
"2X c #65839A",
"3X c #5691B1",
"4X c #73A3B9",
"5X c #6A8EA7",
"6X c #68ABCB",
"7X c #9C978C",
"8X c #908883",
"9X c #B89589",
"0X c #AF948D",
"qX c #BAA191",
"wX c #B5B49E",
"eX c #BBB6A7",
"rX c #99A1A5",
"tX c #C59886",
"yX c #D4A888",
"uX c #C9AE9B",
"iX c #CCB599",
"pX c #D9B295",
"aX c #E1AD8B",
"sX c #E5BB93",
"dX c #CBB5A5",
"fX c #D4B8A4",
"gX c #D9BBB1",
"hX c #EAC29C",
"jX c #D7C6AA",
"kX c #D7CBB4",
"lX c #CECAB5",
"zX c #E8C8A8",
"xX c #E8D0B7",
"cX c #92C3D4",
"vX c #DAD4C6",
"bX c #E9D6C6",
"nX c #F2DDC9",
"mX c #E3CFC1",
"MX c #E7E3CB",
"NX c #F8E6CA",
"BX c #FBEED3",
"VX c #F5ECD5",
"CX c #FCF4D8",
"ZX c #ECE8D3",
"AX c #CFE5E5",
"SX c #F5F2E5",
/* pixels */
"E E E E E E E E E E E E E E E W 2.r.C.b v Z u.d.[.d.d.f.O.v v v i > > > > , > >     > > ; t C !.y.1.E E E E E E E E E E E E E E ",
"E E E E E E E E E E E E E E E W 4.r.C.x > I qXbXMXlXeXlXx.l 7 O O O O O O O O o O O O O # # s (.5.1.E E E E E E E E E E E E E E ",
"E E E E g.g.g.g.g.g.g.g.g.g.g.a.3.&.C., > Y uXCXSXZXMXMX7Xe.7 o o o o o # # o o o o o o # # f i.5.1.E E E g.g.g.g.g.g.g.g.g.. . ",
"E E E . g.g.g.g.g.g.g.g.g.g.g.a.3.&.c., > Y uXCXCXCXCXCXlX#X| g g l l 0 # # o o o o o o # # a Y 5.2.E E g.g.g.g.g.g.g.g.g.g.. . ",
"E E g.g.g.g.g.g.g.g.g.g.g.g.g.a.3.#.S., < Y iXCXCXCXCXCXZXkX}.P.^.$X|.u.q # # # # o o o # # a M.r.2.E E / / / / / / / / / g.g.g.",
"E E g.g.g.g.g.g.g.g.g.g.g.g.g.a.3.@.S.q.k.q.9XzXBXMXMXNXBXMXyX&X%X=X&X[.C 3 3 * $ o o o # # a m.&.2.E E / / / / / / / / / / g.g.",
"E E g.g.g.g.g.g.g.g.g.g.g.g.g.a.3.@.K 1X2Xk.oX-XlXeXwXjXjXkXxXsX:X=X*X XI N B 4 * # # o # # a b.&.2.E E g.g.g.g.g.g.g.g.g.g.g.g.",
"E E g.g.g.g.g.g.g.g.g.g.g.g.g.a.3.@.J 1X,Xk.oX|.;.{ l } ;.z.kXxXsX=X*X XY B H M 4 * $ o # # a m.&.2.E E g.g.g.g.g.g.g.g.g.g.g.g.",
"E E ^ g.g.g.g.g.g.g.g.g.g.g.g.a.3.O.H 1X2Xz.|.^.& k w.x.f.d.vXNXzX].~.~.C 4 c M M 4 & # # # a m.r.2.g.g.g.g.g.g.g.g.g.g.g.g.g.g.",
"E E ^ ^ ^ g.g.g.g.g.g.g.g.g.g.a.6.+.C ,X2Xl.}.~.$ h.iXCXyXOXnXCXkX+.v Z d = = M N c * # # # a N.t.9.g.g.g.g.g.g.g.g.g.g.g.g.g.g.",
"n n n ^ ^ ^ ^ g.g.g.g.g.g.g.g.a.6.+.@.<X,Xf.}.~.& #XnXSXpX&XnXCXkX4.C ~ U S N G N c * # # # a N.t.3.g.g.g.g.g.g.g.g.g.g.g.g.g.g.",
"n n n n ^ ^ ^ ^ g.g.g.g.g.g.g.a.6.O.-.j.j.=.).~.& 7XBXCXaX*XnXCXkX4.Z ^.c.S.D D G c * # # # a N.u.3.g.g.g.g.g.g.g.g.g.g.g.g.g.g.",
"n n n n R R E E / / / / / / / ( 3.#.U 3 a M.).~.& 7XBXCXaX*XnXBXjXk ! {.D.S.K J G c * # # # a m.r.2.g.g.g.g.g.g.g.g.g.g.g.g.g.g.",
"n n n n R R E E / / / / / / / ( 3.#.b.< < Z.{.~.& 7XBXCXaX*XnXBXjXk ! {.G.m.Y K S M * # # # a m.r.2.g.g.g.g.g.g.g.g.g.g.g.g.g.g.",
"E E E . g.g.g.g.g.g.g.g.g.g.g.a.3.#.n.1 1 J.{.~.& 7XBXCXaX*XnXNXfX| ! {.G.m.Y b.J M * # # # a m.t.3.g.g.g.g.g.g.g.g.g.g.g.g.g.. ",
"E E E . g.g.g.g.g.g.g.g.g.g.g.a.3.#.n.2 x J.{.~.& 7XBXCXaX*XnXNXfX| ! {.U.m.Y m.J M * # # # h V.u.3.g.g.g.g.g.g.g.g.g.g.g.g.. . ",
"E E E E E E E E E E E E E E E Q 1.#.S., x J.{.~.$ 7XBXCXyX*XnXNXfX| I {.J.M.Y m.K M 0 # # # h V.t.3.E E E E E E E E E E E E E E ",
"E E E E E E E E E E E E E E E Q 1.#.c., v U.{.~.$ #XhXzX*X&XbXNXfX| I {.J.B.M.m.U V 0 # # # h V.r.2.E E E E E E E E E E E E E E ",
"g.g.g.g.g.g.g.g.g.g.g.g.g.g.g.a.3.5.V.1 v U._.L.$ s.@XR.R.+XbXNXfXk F T.C.n.n.V.U V 0 # # # h V.&.2.g.g.g.g.g.g.g.g.g.g.g.g.g.g.",
"g.g.g.g.g.g.g.g.g.g.g.g.g.g.g.a.3.5.H.y u U._.L.$ s.@XT.R.%XbXnXfX| A T.C.A.n.V.b.V 0 # # # a n.r.2.g.g.g.g.g.g.g.g.g.g.g.g.g.g.",
"/ / / / g.g.g.g.g.g.g.g.g.g.g.a.3.5.H.y u U._.L.$ s.@XR.T. XbXnXdX| Z Y.C.A.V.J.M.V q # o # a m.r.2./ / / / / / / / / / / / / / ",
"/ / / / / g.g.g.g.g.g.g.g.g.g.a.2.y.J.y i G.{.~.$ i..X+XY.`.mXnXuX| Z U.C.A.Z.J.M.V 0 # # # a m.r.2./ / / / / / / / / / / / / / ",
"g.g.g./ / / / / / / / / / / ) ) 1.y.J.y i G.R.L.$ Z K.P.H.`.mXbXqX{ m m.v.v.L J.N.B q # # # s N.r.2.g.g.g.g.g.g.g.g.g.g.g.g.g.g.",
"g.g.g.g./ / / / / / / / / / ) ) 1.y.J.y 1 C.T.L.$ u b S S (.mXmX9X{ v L P G G H.F.B q # # # s F.r.2.g.g.g.g.g.g.g.g.g.g.g.g.g.g.",
"g.g.g.g.g.g.g.g.g.g.g.g.g.g.g.a.3.y.J.y 1 C.T.L.9 O X X + 8.vXbXqX{ j *.-.M j F.F.M * # # # s F.r.+.g.g.g.g.g.g.g.g.g.g.g.g.g.g.",
"g.g.g.g.g.g.g.g.g.g.g.g.g.g.g.a.3.5.m.y 1 A.Y.}.8Xh.! ! ! [.xXpX|.i.~ ^.|.oXXX~.Y M * # # # s Z.&.+.g.g.g.g.g.g.g.g.g.g.g.g.g.g.",
"g.g.g.g.g.g.g.g.g.g.g.g.g.g./ p.3.#.m.j j Q.^. XwX$X^.^.^.}.iX$XP.^.).).&X:X-X/.Y V 0 # # # h Z.*.O.g.g.g.g.g.g.g.g.g.g.g.g.g.g.",
"g.g.g.g.g.g.g.g.g.g.g.g.g.g./ ( 6.#.m.9.j.l.(.i.f q * * 0 k XX].[.~.~ Y ^.).Y.H.=.q.q o # # s H.*.@.g.g.g.g.g.g.g.g.g.g.g.g.g.g.",
"/ / / / / / / / / / / / / / / a.6.&.m.9.z.2Xh.! X * h ; 3 j s.h.s.C j h m C Z oXqXrX:.# # # s H.t.O.g.g.E g.g.g.g.g.g.g.g.g./ / ",
"/ / / / / / / / / / / / / / g.a.3.#.n.9.>X4XXX! - u Z I S I u.s.u.3 = = = $ e rXAXAXj.# # # s H.t.O.g.g.E E g.g.g.g.g.g./ / / / ",
"g.g.g.g.g.g.g.g.g.g.g.g.g.g.g.a.3.#.K %.,.5Xh.! X h I K.V.M.d.s.u.C %.*.-.j q ,XcXAX,.# # # s H.t.O./ / R R R R / / / / g.g./ g.",
"g.g.g.g.g.g.g.g.g.g.g.g.g.g.g.a.3.@.J +.,.,Xh.F X m =.U.U.J.h.s.i.&.=.!.Q.M q >X6XcX,.# # # s H.t.O./ / R R R R / / / / / g.g.g.",
"E E E E E E E E E E E E E E E W 4.@.J | ,.<Xd.F X m =.F.J.'.XX[.s.=.Q.!.Q.M q >X3X3X>.# # # s H.r.2.E E E E E E E E E E E E E E ",
"E E E E E E E E E E E E E E E W 4.@.U h f #.~ F + = _ ] ] 0.dXjX0X+.a h ; @ & ' ' ' 8 # # # s F.r.2.E E E E E E E E E E E E E E ",
"E E E . g.g.g.g.g.g.g.n n n g.a.6.#.b.< ; J F.L.u.@.C O.@.f.tXyX$Xt.Z Z A A A [ q # 6 # # # s N.t.3.g.g.g.^ ^ ^ ^ ^ ^ ^ ^ ^ . . ",
"E E E g.g.g.g.g.g.g.g.g.n n g.a.w.5.b.1 , c.U.{.;X.XK.P.Y.Y.{.{._.Y.K.K.U.U.K.=.[ % 6 # # # d N.i.q.g.g.^ ^ ^ ^ ^ ^ ^ ^ ^ ^ . . ",
"E E g.g.g.g.g.g.g.g.g.g.E E g.a.0.y.b.1 x C.I.E.].7.t a a 7.iXsX-XC a a h h j =.=.%.9 6 # # d m.i.y./ / ^ ^ E E E n n n n n n n ",
"E E g.g.g.g.g.g.g.g.g.g.g.E g.a.w.y.S.1 v I.I.F.4.j 3 3 3 q.kXxXuXl @ 3 3 3 3 M.Q.-.q 6 # # d B.i.y./ / E E E E E n n n n n n n ",
"E E ^ ^ ^ ^ g.g.g.g.g.g.g.g.g.a.w.*.S.> i I.D.F z u V N H /.mXNXdX| 4 H H N M V.N.V q 6 # # d B.i.y.g.g.E E E E n n n n n n n n ",
"E E ^ ^ ^ ^ ^ ^ g.g.g.g.g.g.g.a.0.&.v.< , I.D.F X v Y Y L /.mXnXuXk 4 H P T G V.N.V q 6 # # d B.=.5.g.g.g.E E E n n n n n n n n ",
"E E n n n E ^ ^ / / / / / / / p.0.$.K < i I.D.F X Z K.U.J.}.mXxXqXk v M.v.P T A.b.B q 6 # # d B.*.5.g.g.g.g.g.g.g.g.g.g.g.g.g.g.",
"E E n n n E E E / / / / / / / p.0.$.K ; i I.U.F X ~ W.W.W.+XbXjX$Xs Z '.A.v.v.A.b.B q 6 # 6 d b.*.q.g.g.g.g.g.g.g.g.g.g.g.g.g.g.",
"E E n n n n E E g.g.g.g.g.g.g.a.0.$.L ; , I.U.Y + ~ {.W.T.+XxXfXoXh A U.A.v.P n.b.G q # # # d L *.5.g.g.g.g.g.g.g.g.g.g.g.g.g.g.",
"E E n n n n E g.g.g.g.g.g.g.g.a.0.$.L < u C.U.~ + ~ {.T.T.+XxXpXoXy A U.A.v.L n.U G p # # # g L &.5.g.g.g.g.g.g.g.g.g.g.g.g.g.g.",
"E E g.g.g.g.g.g.g.g.g.g.g.g./ p.0.$.K < v C.U.~ + ~ {.T.T.+XzXyX[.t A U.A.v.L b.U G p 6 # # g J *.q./ / / / / / / / / g.g.g.g.g.",
"E E g.g.g.g.g.g.g.g.g.g.g.g./ p.0.$.K < u C.U.~ + ~ {.T.T.@XzXyX[.t A U.A.v.L b.U G p # # # g H *.5./ / / / / / / / / g.g.g.g.g.",
"E E E . g.g.g.g.g.g.g.g.g.g.g.a.0.$.K < u C.U.~ + ~ {.T.T.@XhX:X^.t b C.n.v.L b.U G p # # # g H *.5.g.g.g.g.g.g.g.g.g.g.g.g.. . ",
"E E E E g.g.g.g.g.g.g.g.g.g.g.a.0.$.P < u C.U.~ + ~ {.U.U.{.sX-X^.t M A.v.L L b.K G p 6 6 # p H &.5.g.g.g.g.g.g.g.g.g.g.g.g.. . ",
"E E E E E E E E E E E E E E E W 3.+...<Xx.M.K.Y + I '.U.C.).sXyX[.t c A.v.P H b.U N q 6 6 # p H *.y.E E E E E E E E E E E E E E ",
"E E E E E E E E E E E E E E E W 3. .X.4XrXY K.~ $ V Q.C.c.).zXyX].a m v.v.P G b.L B q 6 6 # p V *.*.E E E E E E E E E E E E E E ",
"g.g.E E E n g.g.g.g.g.g.g.g.g.a.0. .X.5XrX=.K.~ + V N.V.A.`.zXpX].f u P H G B U L B q 6 6 # q V &.&.g.g.g.g.g.g.g.g.g.g.g.g.g.g.",
"g.g.E E n n g.g.g.g.g.g.g.g.g.a.0. .' <X1X=.K.~ $ p v v v u.iX-XoX8X7X9X9X0X0X(.H M 0 6 6 6 9 j C &.g.g.g.g.g.g.g.g.g.g.g.g.g.g.",
"E E R R / / / / / / / / / / / p.0. .' <.j.=.K.L.:.;.} } } w.$XOX}.fXxXzXzXxXgX(.V m 9 6 6 6 7 q C Z g.g.g.g.g.g.g.g.g.g.g.g.g.g.",
"E E E R / / / / / / / / / / / p.6. .' <.j.=.H. XlXvXkXkXkXuX/.H.Q.`./.!.(.(.(.Y N m 9 6 6 6 7 e C @.g.g.g.g.g.g.g.g.g.g.g.g.g.g.",
"/ / E E n n g.g.g.g.g.g.g.g.g.a.6.} ] ` | Y H..XaXyXtXtXtXOXZ.n.b.n.K D J J J H m a 7 6 6 6 6 e j %./ / / / / / / / / / / / / / ",
"/ / E E n g.g.g.g.g.g.g.g.g.g.a.6.+.c * < U C.Y.@XU.m.M.m.b.b.K D S N M N N N V h $ # 6 6 6 6 7 f j / / / / / / / / / / / / / / ",
"g.g.g.g.g.g.g.g.g.g.g.g.g.g.g.a.3.@.G ; < U U.Y.Z.V.n.n.n.K b u : * * @ 9 9 9 9 7 # 6 6 6 6 6 7 q g g.g.g.g.g.g.g.g.g.g.g.g.g.g.",
"g.g.g.g.g.g.g.g.g.g.g.g.g.g.g.a.3.@.H ; < K '.).b.b.b.S.D M t @ O o o o # # # # 6 6 6 6 6 6 6 7 e q g.g.g.g.g.g.g.g.g.g.g.g.g.g.",
"g.g.g.g./ / / / / / / / / / / ( 4.O.G ; ; H !.^.Y D D D v @ O o 6 6 6 6 6 # # # o o 6 6 6 6 6 7 9 9 g.g.g.g.g.g.g.g.g.g.E E E E ",
"g.g.g./ / / / / / / / / / / / ( s g [ 0 & * s s t : : : @ O o o 6 6 6 6 6 6 6 6 6 6 6 # # 6 6 6 $ $ g.g.g.g.g.g.g.g.g.g.E E E E ",
"R R / / / g.g.g.g.g.g.g.g.g.g.( g q { { _ _ 7 7 O 9 q _ _ w w w w w w w ` _ e w _ ` ` ` ` _ _ w _ _ / / / / / / / / / / / E E E ",
"R R / / g.g.g.g.g.g.g.g.g.g.g.p.k { { :.:. .] 9 9 { :.:.8.8.8.8.8.| | | 8.8.} } :.j.,.:.:.:.:.;.:.:./ / / / / / / / / / / / E E ",
"n n g.g.g.g.g.g.g.g.g.g.g.g.g.a.| } } 8.8.:.} } } ;.8.8.8.8.8.8.8.8.1.1.8.8.:.:.8.9.8.8.9.9.8.:.:.:.n n g.g.g.g.g.g.g.g.g.g.n n ",
"n n g.g.g.g.g.g.g.g.g.g.g.g.g.a.4.1.1.1.1.8.:.:.8.8.8.8.8.8.8.8.8.8.8.8.8.8.8.8.8.8.8.8.9.9.8.8.8.8.n n g.g.g.g.g.g.g.g.g.g.n n "
};
