/* XPM */
static char *result[] = {
/* columns rows colors chars-per-pixel */
"64 64 6 1 ",
"  c black",
". c #37474F",
"X c #008000",
"o c #4CAF50",
"O c #CDDC39",
"+ c None",
/* pixels */
"++++++++++++++++++++++++++++++++++++++++++++++++++++++++++++++++",
"++++++++++++++++++++++++++++++++++++++++++++++++++++++++++++++++",
"++++++++++++++++++++++++++++++++++++++++++++++++++++++++++++++++",
"++++++++++++++++++++++++++++++++++++++++++++++++++++++++++++++++",
"++++++++++++++++++++++++++++++++++++++++++++++++++++++++++++++++",
"++++++++++++++++++++++++++++++++++++++++++++++++++++++++++++++++",
"++++++++++++++++++++++++++++++++++++++++++++++++++++++++++++++++",
"++++++++++++++++++++++++++++++++++++++++++++++++++++++++++++++++",
"++++++++++++++++++++++++++++++++++++++++++++++++++++++++++++++++",
"++++++++++++++++++++++++++++++++++++++++++++++++++++++++++++++++",
"++++++++++++++++++++++++++++++++++++++++++++++++++++++++++++++++",
"+++++++++++++++++++++++++++++OOooooo++++++++++++++++++++++++++++",
"+++++++++++++++++++++++++++++OOooooooooooo++++++++++++++++++++++",
"++++++++++++++++.............OOoooooooooooooo..+++++++++++++++++",
"++++++++++++++++.............OOoooooooooooooo..+++++++++++++++++",
"++++++++++++++++....         OOoooXXXXooooooo..+++++++++++++++++",
"++++++++++++++++....         OOoooXXooXXXXooo..+++++++++++++++++",
"++++++++++++++++....         OOoooXXooXXooOoo..+++++++++++++++++",
"++++++++++++++++....         OOoooXXooXXooOoo..+++++++++++++++++",
"++++++++++++++++....         OOoooXXooXXooOOO..+++++++++++++++++",
"++++++++++++++++....         OOoooXXooXXooOXX..+++++++++++++++++",
"++++++++++++++++....         OOoooXXooXXooOXX..+++++++++++++++++",
"++++++++++++++++....         OOoooXXooXXooOXX..+++++++++++++++++",
"++++++++++++++++....         OOoooXXooXXooOoo..+++++++++++++++++",
"++++++++++++++++....         OOoooXXooXXooOoo..+++++++++++++++++",
"++++++++++++++++....         OOoooXXooXXooOoo..+++++++++++++++++",
"++++++++++++++++....         OOoooooOOOOooOoo..+++++++++++++++++",
"++++++++++++++++....         OOoooooooooOOOoo..+++++++++++++++++",
"++++++++++++++++....         OOoooooooooooooo..+++++++++++++++++",
"++++++++++++++++....         OOoooooooooooooo..+++++++++++++++++",
"++++++++++++++++....         OOoooooooooooooo..+++++++++++++++++",
"++++++++++++++++....         OOoooooooooooooo..+++++++++++++++++",
"++++++++++++++++....         OOoooooooooXXOoo..+++++++++++++++++",
"++++++++++++++++....         OOoooooXXXXooOoo..+++++++++++++++++",
"++++++++++++++++....         OOoooXXooXXooOoo..+++++++++++++++++",
"++++++++++++++++....         OOoooXXooXXooOoo..+++++++++++++++++",
"++++++++++++++++....         OOoooXXooXXooOoo..+++++++++++++++++",
"++++++++++++++++....         OOoooXXooXXooOOO..+++++++++++++++++",
"++++++++++++++++....         OOoooXXooXXooOXX..+++++++++++++++++",
"++++++++++++++++....         OOoooXXooXXooOXX..+++++++++++++++++",
"++++++++++++++++....         OOoooXXooXXooOXX..+++++++++++++++++",
"++++++++++++++++....         OOoooXXooXXooOoo..+++++++++++++++++",
"++++++++++++++++....         OOoooXXooXXooOoo..+++++++++++++++++",
"++++++++++++++++....         OOoooXXooOOOOooo..+++++++++++++++++",
"++++++++++++++++....         OOoooXXOOooooooo..+++++++++++++++++",
"++++++++++++++++.............OOoooooooooooooo..+++++++++++++++++",
"++++++++++++++++.............OOoooooooooooooo..+++++++++++++++++",
"+++++++++++++++++++++++++++++OOooooooooooo++++++++++++++++++++++",
"+++++++++++++++++++++++++++++OOooooo++++++++++++++++++++++++++++",
"++++++++++++++++++++++++++++++++++++++++++++++++++++++++++++++++",
"++++++++++++++++++++++++++++++++++++++++++++++++++++++++++++++++",
"++++++++++++++++++++++++++++++++++++++++++++++++++++++++++++++++",
"++++++++++++++++++++++++++++++++++++++++++++++++++++++++++++++++",
"++++++++++++++++++++++++++++++++++++++++++++++++++++++++++++++++",
"++++++++++++++++++++++++++++++++++++++++++++++++++++++++++++++++",
"++++++++++++++++++++++++++++++++++++++++++++++++++++++++++++++++",
"++++++++++++++++++++++++++++++++++++++++++++++++++++++++++++++++",
"++++++++++++++++++++++++++++++++++++++++++++++++++++++++++++++++",
"++++++++++++++++++++++++++++++++++++++++++++++++++++++++++++++++",
"++++++++++++++++++++++++++++++++++++++++++++++++++++++++++++++++",
"++++++++++++++++++++++++++++++++++++++++++++++++++++++++++++++++",
"++++++++++++++++++++++++++++++++++++++++++++++++++++++++++++++++",
"++++++++++++++++++++++++++++++++++++++++++++++++++++++++++++++++",
"++++++++++++++++++++++++++++++++++++++++++++++++++++++++++++++++"
};
