/* XPM */
static char *rcp23374491623153[] = {
/* columns rows colors chars-per-pixel */
"64 64 225 2 ",
"   c #010101",
".  c #0B0C0C",
"X  c #090807",
"o  c #1B130E",
"O  c #0F0F10",
"+  c #0A0A19",
"@  c #160D14",
"#  c #0E1311",
"$  c #0F1915",
"%  c #131414",
"&  c #1F1910",
"*  c #161619",
"=  c #191A1B",
"-  c #181717",
";  c #0F110C",
":  c #251917",
">  c #311A15",
",  c #16241D",
"<  c #2B2116",
"1  c #27211D",
"2  c #382F1C",
"3  c #342418",
"4  c #3A311D",
"5  c #1E1F20",
"6  c #191526",
"7  c #1C1A3D",
"8  c #181537",
"9  c #0C0D2C",
"0  c #2D1A2A",
"q  c #271828",
"w  c #321A26",
"e  c #211D3D",
"r  c #241833",
"t  c #1C2D24",
"y  c #1A2521",
"u  c #1D3128",
"i  c #232425",
"p  c #2A2B2D",
"a  c #292728",
"s  c #362729",
"d  c #24362C",
"f  c #3E3126",
"g  c #2B223E",
"h  c #2A2736",
"j  c #3C2334",
"k  c #382737",
"l  c #223A30",
"z  c #2E3635",
"x  c #323435",
"c  c #353638",
"v  c #353A3B",
"b  c #3A3B3D",
"n  c #3D3238",
"m  c #54331E",
"M  c #4A2C1B",
"N  c #462E29",
"B  c #493F25",
"V  c #463629",
"C  c #573825",
"Z  c #46293E",
"A  c #442838",
"S  c #4A3E3D",
"D  c #443838",
"F  c #58383B",
"G  c #572C30",
"H  c #663A28",
"J  c #653833",
"K  c #2B4535",
"L  c #31443D",
"P  c #35493C",
"I  c #34513D",
"U  c #4B4026",
"Y  c #5B482E",
"T  c #5A462D",
"R  c #4A413E",
"E  c #544437",
"W  c #544438",
"Q  c #5A4C38",
"!  c #6D4527",
"~  c #76492B",
"^  c #674331",
"/  c #705638",
"(  c #795E3E",
")  c #755B3E",
"_  c #754C3A",
"`  c #7C603F",
"'  c #1D1B40",
"]  c #201D41",
"[  c #2B2241",
"{  c #2E2B43",
"}  c #382642",
"|  c #3C3E41",
" . c #432741",
".. c #452D43",
"X. c #4B2E44",
"o. c #4C3243",
"O. c #573647",
"+. c #562C46",
"@. c #623D4B",
"#. c #6B3B4A",
"$. c #763A47",
"%. c #3C4042",
"&. c #3C4D48",
"*. c #3A5941",
"=. c #3A5442",
"-. c #414346",
";. c #494B4E",
":. c #44474A",
">. c #4C4E51",
",. c #474F50",
"<. c #4C5354",
"1. c #495A53",
"2. c #505356",
"3. c #535659",
"4. c #555A5D",
"5. c #56454D",
"6. c #67414E",
"7. c #774649",
"8. c #7B5D40",
"9. c #6F524D",
"0. c #4D6459",
"q. c #526C5C",
"w. c #7D6140",
"e. c #78674D",
"r. c #79684E",
"t. c #7A6B52",
"y. c #5B5F62",
"u. c #5E6367",
"i. c #5B6567",
"p. c #5B7367",
"a. c #63696C",
"s. c #666E71",
"d. c #686F72",
"f. c #6D7A7C",
"g. c #6A7376",
"h. c #717A7E",
"j. c #85433A",
"k. c #895837",
"l. c #8E5133",
"z. c #9A643B",
"x. c #B85E3F",
"c. c #CE6D3C",
"v. c #874749",
"b. c #964B48",
"n. c #8A5649",
"m. c #95524E",
"M. c #985A4A",
"N. c #995A51",
"B. c #894B52",
"V. c #A34B49",
"C. c #A95549",
"Z. c #B35C44",
"A. c #BA5C44",
"S. c #B25847",
"D. c #A35551",
"F. c #98664A",
"G. c #9D6353",
"H. c #9C7B59",
"J. c #957756",
"K. c #876A4D",
"L. c #B8644A",
"P. c #AB6D55",
"I. c #A56856",
"U. c #A77858",
"Y. c #AF6E4D",
"T. c #967366",
"R. c #CE6D44",
"E. c #C16247",
"W. c #D26E41",
"Q. c #C87A49",
"!. c #D37444",
"~. c #D47C4A",
"^. c #D57847",
"/. c #C97B53",
"(. c #C56C50",
"). c #6D847B",
"_. c #A6825E",
"`. c #A88460",
"'. c #B48863",
"]. c #C9814C",
"[. c #DE844A",
"{. c #DC854A",
"}. c #CA8759",
"|. c #DC8953",
" X c #DA925A",
".X c #EA965A",
"XX c #E38A4E",
"oX c #DB9B69",
"OX c #C49B72",
"+X c #CE9167",
"@X c #E69965",
"#X c #DDA16F",
"$X c #D8A86B",
"%X c #CCA378",
"&X c #DDA271",
"*X c #D2A67A",
"=X c #D6A779",
"-X c #E8B36E",
";X c #E4AE7B",
":X c #E4AB75",
">X c #EBB574",
",X c #EDB974",
"<X c #EAB77A",
"1X c #EBAF73",
"2X c #F4CC75",
"3X c #737D81",
"4X c #7A8689",
"5X c #7C898C",
"6X c #768485",
"7X c #7F8D90",
"8X c #818E91",
"9X c #839194",
"0X c #869598",
"qX c #8A999B",
"wX c #808C8E",
"eX c #94A6A8",
"rX c #95A6A8",
"tX c #A2B7B8",
"yX c #E6B281",
"uX c #E9B784",
"iX c #F0BE87",
"pX c #C7A283",
"aX c #F1C68E",
"sX c #F4D5A1",
"dX c #ACC2C3",
/* pixels */
"Y Y Y Y Y Y Y Y Y Y Y Y Y Y Y Y Y Y Y Y Y Y Y Y Y Y Y Y Y Y Y Y T Y Y Y Y Y Y Y Y Y Y Y Y Y Y Y Y Y Y Y Y Y Y Y Y Y Y Y Y Y Y Y ",
"Y Y Y Y Y Y Y Y Y Y Y Y Y Y Y Y Y Y Y Y Y Y Y Y Y Y Y Y Y Y Y Y Y Y Y Y Y Y Y Y Y Y Y Y Y Y Y Y Y Y Y Y Y Y Y Y Y Y Y Y Y Y Y Y ",
"Y Y Y Y w.w.w.w.w.B < < < < < < < < < < < < < < < < < < < < < < < < < < < < < < < < < < < < & & & & & & & < < < 3 ( w.w.w.w.2 2 ",
"Y Y Y 2 w.w.w.w.w.f a 9.t.t.t.r.r.e.e.e.e.e.r.r.t.9.Q Q Q Q Q Q Q Q Q Q Y Y 9.r.t.t.t.r.r.e.e.e.t.t.t.t.t.e.9.S 6 ( w.w.w.w.2 2 ",
"Y Y w.w.w.w.w.w.w.D 5.pXsXsXuXyXyXyX;X;X;X;XyXyXyXK.X X X X X X X X X X X X K.;XyXyXyX;X;X;X;X;XyXuXuXyXaXuX*XT.e ) ( ( ( w.w.w.",
"Y Y w.w.w.w.w.w.w.D o.'.aXaX|.^.~.~.^.!.!.^.^.~.H R f.f.f.f.f.f.f.f.f.f.f.f.R H !.!.!.!.!.W.c.c.!.!.!.E. X@X}.9.h ) ( ( ( ( w.w.",
"Y Y w.w.w.w.w.w.w.D o.U.aXiX|.!.^.^.!.!.!.!.Q.Q.M %.0X0X0X0X0X0X0X0X0X0X0X0X%.M !.R.R.R.R.W.R.R.R.R.R.E.@X@X}.9.h 8.w.w.w.w.w.w.",
"Y Y w.w.w.w.w.w.w.f * ..b.b.B.O.} } } } } g q q p i.eXeXeXeXeXeXeXeXeXeXeXeXi.p q q k k k k } } } } ..v.b.b.G . O ( w.w.w.w.w.w.",
"Y Y / w.w.w.w.w.w./ f n +X+XN...' } $.v.b.J     i.rXdXdXdXdXdXdXdXdXdXdXdXdXeX4.    J n.n.7.#.+.} ' [ C./.+XF.T Y w.w.w.w.w.w.w.",
"Y Y / / / w.w.w.w.w.E D >X>XG...7 k b.L.R.l.    i.rXdXdXdXdXdXdXdXdXdXdXdXdX8X%.    l./.}.L.v.$.X.7 g S.oX:X'.w.w.w.w.w.w.w.w.w.",
"B B B / / / / w.w.w.E D >X>XI...7 } V.R.!.z.    i.rXdXdXdXdXdXdXdXdXdXdXdXdXwX%.    z. X.X/.M.v.O.7 g S.oX:X'.w.w.w.w.w.w.w.w.w.",
"B B B B / / / T f f 1 : ) ( F.o.7  .C.[.[.z.    ,.9XrXrXtXdXdXdXdXdXtXeX9X9Xs.x     F.@X@X XC.v.O.7 g S.oX;X'.w.w.w.w.w.w.w.w.w.",
"B B B B U U Y 2     = %   . n.o.7  .C.[.[.z.    %.g.4X4XrXtXtXtXrXeXqXh.3.3.:.i     F. X X XS.b.O.7 g Z.oX;X'.w.w.w.w.w.w.w.w.w.",
"B B B B U U Y 2     i.:.  . n.X.7 Z A.@X.XD     %.u.y.y.4X9X9X7Xa.u.u.3.c c v i     8 [ q ].L.N.@.7 g Z.oX;X'.w.w.w.w.w.w.w.w.w.",
"Y Y Y 2 w.w.w.B     # , u t & s 7 Z A.@X.XN     %.| # # 3.s.s.a.:.-.-.x X X i i     9 7 6 ].L.N.@.7 g Z.oX=X'.w.w.w.w.w.w.w.w.2 ",
"Y Y Y 2 w.w.w.B       $ l d X 0 7 Z A..X.XN     | v     ,.u.u.y.| b b p     i i     A r q ].L.N.6.7 g Z.oX=X`.w.w.w.w.w.w.w.2 2 ",
"Y Y Y Y Y Y Y V : : & = , , $ : 9 w A.XXY.:     %.v     p b b v i i i =     i i     J q q Q.L.N.6.7 g A.oX%XJ.Y Y Y Y Y Y Y Y Y ",
"Y Y Y Y Y Y Y Y Y Y V a < < t $ X O l.Y.^ *     %.%.% % X               X X i i     ^ q q Q.L.m.@.7 g A.&X%XJ.Y Y Y Y Y Y Y Y Y ",
"w.w.w.w.w.w.w.w.w.w.W S :X$Xo , l t X X i.6X    %.u.u.y.*             . v v b i     ^ q q Q.L.m.@.7 g x.&X%X_.w.w.w.w.w.w.w.w.w.",
"w.w.w.w.w.w.w.w.w.w.W S >X$Xo , l t     i.4X    %.u.u.u.*             . b b b i     ^ 0 0 Q.Z.m.@.e g A.&X%XH.w.w.w.w.w.w.w.w.w.",
"( ( ( ( w.w.w.w.w.w.W S ,X-X^ = $ , x x d.g.    %.d.3X3X-.x x x i 5 5 p <.<.-.i     ^ 0 0 ].L.m.@.e g A.&XOXH.( ( ( ( ( ( ( ( ( ",
"( ( ( ( ( w.w.w.w.w.W S ,X>X8.p p v d.g.3Xa.p p b i.4X4Xf.g.g.s.;.:.:.;.3.3.b s V M _ 0 w ].L.m.@.e g A.&X%XH.( ( ( ( ( ( ( ( ( ",
"w.w.w.( ( ( ( ( ( ( E S $XOX: 4.5X5X0X0X3Xg.5X5Xx p 4.4.6X8X8X5Xa.u.u.3.c c = B +X}.n.0 w ].L.m.@.e g A.&X%XU.w.w.w.w.w.w.w.w.w.",
"w.w.w.w.( ( ( ( ( ( E a : : s.b % p 9X0X9Xi.% % | c . . 2.3.:.:.-.%.%.x X X i a & o ^ 0 w ].L.m.@.e g A.&X*X_.w.w.w.w.w.w.w.w.w.",
"w.w.w.w.w.w.w.w.w.w.W 1   X 3Xc   = 9X0X0Xi.    %.v     ;.,.b b b b b p     i i     J 0 q ].L.m.@.e g L.&X=X`.w.w.w.w.w.w.w.w.w.",
"w.w.w.w.w.w.w.w.w.w.W :   X :.x + q <.<.<.,.%.%.u.3.p p c p i i i i i y = = c %.p p N @ @ ].L.m.@.e g L.&X*X`.w.w.w.w.w.w.w.w.w.",
"w.w.w.w.w.w.w.w.w.w.W a 3 3 : s 7 j > > ; p 0X0X0X6Xs.s.a * * * * * * 5 -.-.3.u.4.4.=   X Q.L.N.@.7 g A.#X*X`.w.w.w.w.w.w.w.w.w.",
"w.w.w.w.w.w.w.w.w.w.W S >X<XP.o.7 Z A.XX! p 0X0X0X0X0X0Xs.u.u.u.u.u.u.u.u.u.u.3.b b %   X Q.L.N.@.7 g Z.#X*X_.w.w.w.w.w.w.w.w.w.",
"( ( ( ( ( ( ( ( ( ( E S ,X>XP.o.7 Z A.XX! p 0X0X0X0X0X0Xd.u.u.u.u.u.u.u.u.u.u.3.b b %   X Q.L.D.@.' [ Z.#X*X`.w.w.w.w.w.w.w.( ( ",
"( ( ( ( ( ( ( ( ( ( E S >X>XP.o.7 A m H V L p.p.6X0X0X0X6X3X3X3X3X3X3Xf.u.u.3.-.z z y , * C Z.D.6.' [ Z.&X*X`.w.w.w.w.w.( ( ( ( ",
"w.w.w.w.w.w.w.w.w.w.W S >X>XP.o.7 j X   t *.*.*.0.f.0X0X0X5X).).).).6X3Xu.u.%.p l l l l t X M.D.6.' [ Z.&X*XJ.U ( ( ( ( w.w.( w.",
"w.w.w.w.w.w.w.w.w.w.W S ,X>XP.o.7 j X   t *.*.*.= %.0X0X9Xp.*.*.*.*.1.u.u.u.p # l l l l t X M.I.6.] [ Z.&X=XJ.U ( ( ( ( ( w.w.w.",
"Y Y Y Y Y Y Y Y Y Y V S >X>XP.o.7 j X   t *.*.*.= %.0X0Xq.*.*.*.*.*.1.u.u.u.p # l l l l t X M.I.6.] [ Z.&X=XH.Y Y Y Y Y Y Y Y Y ",
"Y Y Y Y Y Y Y Y Y Y V S <X,XP.o.7 j X   t *.*.*.= %.0X0X0.*.*.*.*.*.*.1.u.u.p # l l l l t   _ I.6.' [ Z.&X=XH.Y Y Y Y Y Y Y Y Y ",
"Y Y Y 2 w.w.w.w.w.w.W R <X<XP.o.7 j X   t 0.).).d %.0X0X0.*.*.*.P P P =.u.u.p y 0.0.L l t X O.6.O.] [ Z.#X*XU./ / / / / / / 2 2 ",
"Y Y Y w.w.w.w.w.w.w.W R <X<XI.o.7 j X   z ).tXtX%.v 5X5X1.I I I l l l L u.u.p z 5X5X0.&.z X { X.O.] [ Z.#X*XH./ / / / / / / 2 2 ",
"Y Y w.w.w.w.w.w.w.w.W S <X<XI.o.7 j X   i.tX0X0Xz p u.u.L l l l l l l L u.u.p i a.a.4X0Xs.  r o.O.] [ Z.oX*XJ.Y Y B B B B B B B ",
"Y Y w.w.w.w.w.w.w.w.W S <X>XP.o.7 j X   i.tX0X0Xz p u.u.L l l l l l l L u.u.p i u.a.4X0Xs.  w Z Z ] [ Z.#X*XJ.Y Y B B B B B B B ",
"Y Y / / / / w.w.w.w.W S ,X>XP.o.7 j X   3.eX0X0Xz p u.u.<.,.&.l l l L <.u.u.p i u.u.g.h.4.X j.C.#.' [ Z.#X*XJ.Y B B B B B B B B ",
"Y Y / / / / / / w.w.W S ,X,XP.k 9 s x z i.5Xg.g.a i 3.3.u.u.<.l l l &.u.3.3.i = 3.3.y.u.<.i H J F ' [ Z.&X*XJ.Y B B B B B B B B ",
"Y Y B B B Y / / ( ( E S ,X,XP.-   = 9X0X0Xf.b b * = b b 4.u.<.l l l &.4.b b = * b b 3.u.u.y.%   : ' [ Z.&X%XU.w.w.w.w.w.w.w.w.w.",
"Y Y B B B Y Y Y ( ( E S ,X,XP.-   = 9X0X0Xf.b b * = b b 4.u.<.l l l &.4.b b = * b b 3.u.u.y.%   : 7 [ Z.&XOXH.w.w.w.w.w.w.w.w.w.",
"Y Y B B B B Y Y w.w.W S ,X,XP.-   = 8X0Xg.,.b b * = b b 4.u.y.<.<.<.4.4.b b = * b b -.:.>.y.%   X + g S.#XOXJ.w.w.w.w.w.w.w.w.w.",
"Y Y B B B B Y w.w.w.W R ,X,XP.-   % i.a.<.b b b * . 5 5 -.<.<.<.<.<.<.-.5 5 . * b b b b %.,..   y ,.6 C / OXH.w.w.w.w.w.w.w.w.w.",
"Y Y w.w.w.w.w.w.w.w.W R ,X,XI.q . % p p p p p p # X # # i p p p p p p i . .   # p p p p p p i i i.eX.     OXJ.( ( ( ( w.w.w.w.w.",
"Y Y w.w.w.w.w.w.w.w.E S ,X,XP.o.7 j X             , *.*.#             . l l $             X f.0XeXeX.     OXJ.( ( ( ( w.w.w.w.w.",
"Y Y Y 2 w.w.w.w.w.w.W S ,X,XP.o.7 j X             , *.*.#             . l l $             X f.0XeXeX.     OXJ.w.w.w.w.w.w.w.2 2 ",
"Y Y Y Y w.w.w.w.w.w.W S ,X>XP.o.7 A H l.l.s N l.> , *.*.l d t , , , , y l l $ 3 k.k.o   * 4.5X0XeXeX.     %XH.w.w.w.w.w.w.w.2 2 ",
"Y Y Y Y Y Y Y Y Y Y f S >X>XI.X.7 Z S.[.[.F n.XXm , *.*.I P K , , , t l l l $ C #X}.N @ q y.4.4.i.i.X     *XJ.Y Y Y Y Y Y Y Y Y ",
"Y Y Y Y Y Y Y Y Y Y f S >X>XG...7 Z S.{.{.F n..Xm , *.*.K l y       $ l l l $ C :X}.v.r :                 =XH.Y Y Y Y Y Y Y Y Y ",
"w.w.Y Y Y B w.w.w.w.W S >X>XG...7 Z S.[.{.O.n..Xm , *.*.K l y       $ l l l $ C :X}.j.0 :                 =X`.w.w.w.w.w.w.w.w.w.",
"w.w.Y Y B B w.w.w.w.W S >X-XI...7  .S.[.[.A o > a x P P = . X         $ c c z s 3 > J 0 > l.j.J k 6 6 j.I.%XU.w.w.w.w.w.w.w.w.w.",
"Y Y U U ( ( ( ( ( ( E S >X-XI...7 Z S.[.[.j     i -.>.>.%   X ! ! ! 3 % >.>.-.i     G 0 w Q.S.B.O.7 g S.@X%XU.w.w.w.w.w.w.w.w.w.",
"Y Y Y U ( ( ( ( ( ( E S >X>XI.X.7  .S.[.[.j     p 2.u.u.*   @ |.|.|.~ * u.u.2.p     0 r w Q.C.B.O.7 g S.@X&X_.w.w.w.w.w.w.w.w.w.",
"( ( Y Y B B w.w.w.w.E S >X>XI.X.'  .C.[.[.j     %.u.u.u.*   @ |.|.|.~ * u.u.u.%.    9 7 0 Q.C.B.O.e g S.oX:X'.( ( ( ( ( ( ( ( ( ",
"( ( Y Y B w.w.w.w.w.E D -X-XG...7  .C.[.[.G     %.u.u.u.*   : |.|.|.~ * u.u.u.%.    k o.J Q.C.v.O.7 g C.oX&X'.( ( ( ( ( ( ( ( ( ",
"w.w.w.w.w.w.w.w.w.) D n -X-Xn.} 7  .V.^.l.N | | 3.4.;.;.%   M {.{.{.~ % ;.;.4.3.| | V M ~ {.C.$.o.7 g C.oX&X_.9./ w.w.w.w.w.w.w.",
"w.w.w.w.w.w.w.w.w.n + 4 2X2X9.[ 7 } V.c.m = 2.2.2.:.b b .   M ~.~.~.~ . b b :.2.2.2.=   > E.C.v.O.7 g V.:XiXT.8 r 8.w.w.w.w.w.w.",
"w.w.w.w.( ( ( ( ( n + 3 }./.7.} 7 } V.c.m % b b b b b b .   M ~.~.~.~ . b b b b b b %   > L.D.v.O.7 g V.(.(.7.9 8 ( w.w.Y Y Y Y ",
"w.w.w.( ( ( ( ( ( n + : C.V.#.} 7 e  .F : % b b b b b b .   o O.O.O.a . b b b b b b %   @ o...} ] 7 e +.j.j.G 8 7 8.w.w.Y Y Y Y ",
"U U ( ( ( w.w.w.F.7.F J m.b.v.#.@.@.@.@.w X O O O O O O     : @.@.@.s   O O O O O O X   @ @.@.@.6.6.6.7.v.b.7.O.@.N.8.( ( Y Y Y ",
"U U ( ( w.w.w.w.F.I.G.N.n.n.m.N.n.n.n.n.N                   3 G.M.M.C                   : G.n.n.N.N.G.N.N.N.N.N.N.N.8.( ( ( Y Y ",
"B B w.w.w.w.w.w.w.w.w.w.w.w.w.w.B B B B w.w.w.w.w.w.w.w.w.w.w.2 Y Y 2 w.w.w.w.w.w.w.w.w.w.w.B B B B B B w.w.w.w.w.w.w.w.w.w.B B ",
"B B w.w.w.w.w.w.w.w.w.w.w.w.w.w.B B B B w.w.w.w.w.w.w.w.w.w.2 2 Y Y 2 2 w.w.w.w.w.w.w.w.w.w.B B B B B B w.w.w.w.w.w.w.w.w.w.B B "
};
