/* XPM */
static char *_4a9e9f08a294888ccc83ed82afbc8892IAGEpOKBb8CwSOq[] = {
/* columns rows colors chars-per-pixel */
"64 64 229 2 ",
"   c None",
".  c #040C17",
"X  c #00121D",
"o  c #0B161F",
"O  c #12121D",
"+  c #1D111F",
"@  c #0D0F16",
"#  c #25141D",
"$  c #070E28",
"%  c #041325",
"&  c #0B1524",
"*  c #0A1924",
"=  c #03142C",
"-  c #02192C",
";  c #0C192D",
":  c #09132B",
">  c #191A2A",
",  c #021331",
"<  c #021B32",
"1  c #0B1B32",
"2  c #031C3A",
"3  c #0B1A3A",
"4  c #081637",
"5  c #0E1530",
"6  c #281623",
"7  c #351D24",
"8  c #291F33",
"9  c #03233A",
"0  c #09213B",
"q  c #0B283B",
"w  c #1C2236",
"e  c #19212E",
"r  c #3B2529",
"t  c #272C3B",
"y  c #343538",
"u  c #2F3232",
"i  c #46292E",
"p  c #5A262E",
"a  c #492F31",
"s  c #582834",
"d  c #593838",
"f  c #523530",
"g  c #6A272A",
"h  c #622C34",
"j  c #6C2836",
"k  c #672838",
"l  c #7C2C35",
"z  c #7A2B3B",
"x  c #722938",
"c  c #673138",
"v  c #7D323A",
"b  c #7B3A37",
"n  c #7D2D2E",
"m  c #794531",
"M  c #021C42",
"N  c #381C4B",
"B  c #052A52",
"V  c #0C2B43",
"C  c #382448",
"Z  c #2A3142",
"A  c #3E3F4E",
"S  c #313A4F",
"D  c #31304E",
"F  c #462745",
"G  c #483D4C",
"H  c #553E4B",
"J  c #5D2D43",
"K  c #683943",
"L  c #773441",
"P  c #652E55",
"I  c #1D475B",
"U  c #3F414E",
"Y  c #3E4250",
"T  c #3E4459",
"R  c #1A4267",
"E  c #3D4F69",
"W  c #1C687A",
"Q  c #44444D",
"!  c #4E4249",
"~  c #5B464C",
"^  c #5C484C",
"/  c #59424B",
"(  c #434452",
")  c #464A56",
"_  c #5A4650",
"`  c #5F584F",
"'  c #664447",
"]  c #704149",
"[  c #49576E",
"{  c #515B6F",
"}  c #4D656D",
"|  c #71736E",
" . c #832D34",
".. c #852E3A",
"X. c #8B2E36",
"o. c #912E35",
"O. c #823136",
"+. c #8C3334",
"@. c #8D3A33",
"#. c #84323B",
"$. c #8C3239",
"%. c #8C3C3B",
"&. c #843B38",
"*. c #923535",
"=. c #943A35",
"-. c #9C3A35",
";. c #9B3B39",
":. c #943A3A",
">. c #923A2F",
",. c #A73C38",
"<. c #8B432B",
"1. c #84493B",
"2. c #8A4738",
"3. c #9C4335",
"4. c #94423D",
"5. c #9A4739",
"6. c #99533B",
"7. c #A44532",
"8. c #AC4D32",
"9. c #A1443D",
"0. c #AB4B3B",
"q. c #A7483A",
"w. c #B74C39",
"e. c #AA5333",
"r. c #AB5A36",
"t. c #A6553D",
"y. c #AC533C",
"u. c #AB5C3C",
"i. c #A45B3B",
"p. c #B25333",
"a. c #B55C35",
"s. c #B45D3B",
"d. c #B75838",
"f. c #BD502F",
"g. c #B3643A",
"h. c #B7673A",
"j. c #AE603C",
"k. c #C34C35",
"l. c #C1613E",
"z. c #C06530",
"x. c #883543",
"c. c #923843",
"v. c #9D4340",
"b. c #944D42",
"n. c #9B4C43",
"m. c #994849",
"M. c #975548",
"N. c #A54D43",
"B. c #B44B43",
"V. c #A75645",
"C. c #B45545",
"Z. c #B35A44",
"A. c #B65949",
"S. c #AB6743",
"D. c #BA6341",
"F. c #B86947",
"G. c #BA7143",
"H. c #AB6955",
"J. c #B96758",
"K. c #B77052",
"L. c #CB5749",
"P. c #CB6B49",
"I. c #C77948",
"U. c #D37842",
"Y. c #CB6B52",
"T. c #7E807B",
"R. c #BC844E",
"E. c #BB8A74",
"W. c #BA8363",
"Q. c #D7854C",
"!. c #C78657",
"~. c #D98C54",
"^. c #D9975A",
"/. c #CE8D4D",
"(. c #E49552",
"). c #DFA259",
"_. c #D39964",
"`. c #C58B76",
"'. c #C99C7C",
"]. c #CF9161",
"[. c #E69466",
"{. c #DCAC76",
"}. c #E4A56B",
"|. c #EEB67A",
" X c #ECC67D",
".X c #05508A",
"XX c #387DA1",
"oX c #446487",
"OX c #7497B0",
"+X c #5FAFBB",
"@X c #44AAD4",
"#X c #979793",
"$X c #C59C8D",
"%X c #D7AC85",
"&X c #C9B28A",
"*X c #EBB584",
"=X c #BCC8AC",
"-X c #ADC5AE",
";X c #EDCB9C",
":X c #EDC49A",
">X c #F6D59B",
",X c #D7D1AC",
"<X c #E2CCA5",
"1X c #F7D7AB",
"2X c #EDD7B8",
"3X c #F6DEB6",
"4X c #F4C9A9",
"5X c #FAE3BE",
"6X c #ADCBCB",
"7X c #D2D1C6",
"8X c #F4E5C4",
"9X c #F4E5CB",
"0X c #F6EBCE",
"qX c #FAEECD",
"wX c #FEF1CE",
"eX c #FBF1C6",
"rX c #E8EDD7",
"tX c #F6EAD2",
"yX c #F9EFDB",
"uX c #FBEED4",
"iX c #FBF2D2",
"pX c #F6F1DC",
"aX c #FBF3DC",
"sX c #F7F7D6",
"dX c #EEEBCD",
"fX c #D0EEF7",
"gX c #F6F4E3",
"hX c #F9F7E8",
"jX c #EDF3EE",
/* pixels */
"                                                                                                                                ",
"                                                                                                                                ",
"                                                                                                                                ",
"                                                                                                                                ",
"                                                                                                                                ",
"                                                                                                                                ",
"                                                                                                                                ",
"                                                                                                                                ",
"                                                                                                                                ",
"                                                                                                                                ",
"                                          Q ( ( ( ( ( ( Q ( ( ( ( ( ( ( ( ( ( ( ( ( (                                           ",
"                                          ( 0.0.n.4.4.4.2.4.4.4.4.4.4.%.:.:.4.n.9.[.U                                           ",
"                                          ( w.f r r r r a a a a i i r 7 r r r d p y.U                                           ",
"                                          Y 7.< 2 p p j l L %.%.b L c k h j x 1 ; 0.Y                                           ",
"                                          A 4.< F n k.7.h.2.N.V.N.b.m.%X%.F.z C * q.Y                                           ",
"                                          A %.< x f.D.E.'.&XE.J.2X3XyX8X`.I.H.R % gXY                                           ",
"                                          A n.0 %.>X= % = 2 qXwXaXpX= , 2 - iXq % pX(                                           ",
"                                          A n.9 2.qX$ c s p iX;XaX7Xh h p - 0X9 % pX(                                           ",
"                                          A b.0 P.qX, 2.&.<.:X{.yX#X4XhXm.% 8XI % pX(                                           ",
"                                          G 1.; ;.wX: S.r.V.3X!.aXT.<XaXC.X 8X, X aX(                                           ",
"                                          Q 1.; =.qX$ G.r.V.3XR.aX| K.gXC.X 9Xg % pX(                                           ",
"                                          ! 6.; =.qX% g.u.6.9XW.aXQ I.hXZ.* 9X;.X pX(                                           ",
"                                          ! 6.; =.iX% h.g.t.9X`.yXy I.Z.Z.* 8X=.X pX(                                           ",
"                                          / 1.3 =.5X$ a.g.j.9X'.yXu h.i.u.* 8X-.& pX(                                           ",
"                                          / 1.3 =.3X$ a.a.s.<XS.tXy g.u.u.% 9Xw.* pX(                                           ",
"                                          ' 1.3 ).;X$ d.a.a._.g.9Xy s.r.S.% 0Xw.o pX(                                           ",
"                                          ~ 2.3 #.1X: z ,...!.g.tX| =.*.z % tX$.* yX(                                           ",
"                                          ~ 2.3 ..5X= z $. .^.h.yX#X .l z % 0X$.* yXY                                           ",
"                                          ^ 2.3 ..b rXgXgXgXV.t.b.f pXrXpXwXm #.% uXY                                           ",
"                                          ^ &.4 ..5.%.A.A.s.t.t.y.3.B.C.H.:X5.#.: qXY                                           ",
"                                          ^ b 3 K $XL.A.C.B._.!.;X4XN.C.C.P.I.D.% qXY                                           ",
"                                          ^ s } hX6XOXs h c 0X].:Xr z K J & ^.K = [.Y                                           ",
"                                          ^ d < @XfXjX$.G.K.9X;X3X# D.I.K > ^.M.< }.Y                                           ",
"                                          ^ ] < .XXXB 7.q.,.1X!.8X` 0.0.q.e }.M.5 |.Y                                           ",
"                                          ~ J.< < < . =X=X=X*XG.8X,X7X-X-XqX{.#.; |.(                                           ",
"                                          ~ V.0 < , @ sXpXsX<.y.g.m hXaXsXeX5.#.1 D.(                                           ",
"                                          _ V.9 v Z.M , - - %X!.2X) = = = %  XL w 7.(                                           ",
"                                          _ V.9 b A.2 = : , %XF.2Xt = > , % |.z e 7.(                                           ",
"                                          _ M.2 c.D.= @.#.&.g.u.I.+ R._.3.O /.$.> p.(                                           ",
"                                          _ b.< c.~.= @.*.q.s.r.F.+ G.^.t.O Q.o.> e.(                                           ",
"                                          / n.< x.(., 8.=.y.d.r.F.6 d.I.t.O I.o.> 8.(                                           ",
"                                          / v., L ~.: -.=.9.p.e.D.7 a.@.n.O U...& q.(                                           ",
"                                          / v.< x.I.: -.-.;.p.e.s.6 z.I.%.O U...* q.(                                           ",
"                                          H *.2 P e., 3.=.=.p.8.8.# @.+.#.o U. .< 5.(                                           ",
"                                          H g fXC r.: l =.:.p.8.8.6 >.+.#.X U.B < 5.(                                           ",
"                                          H i +XN I., j k x w.8.d.r k j x % Q.B = %.(                                           ",
"                                          H p W C /., & % % l.y.Z.a & % : - (.B % %.(                                           ",
"                                          G s V F /., = < - h.p.l.] % = % % (.B % %.(                                           ",
"                                          A h 2 k #.+.:.4.3.q.5.#.:.v &.&.c. .< 1 $.(                                           ",
"                                          T h < j c.O...Y.O.$.O.#.#.v P.O.v.X.j : #.(                                           ",
"                                          ) s < j ..#.O.O.l  . .X.$. .O...v l j 1  .Y                                           ",
"                                          6 w < - - , < < < - - < < - - - < - < 2 8 9                                           ",
"                                          M - oX{ Q V S S V Z Z Z t - [ [ E [ , D , (                                           ",
"                                          ( ( ( ( ( ( ( ( ( ( ( ( ( ( ( ( ( ( ( ( ( (                                           ",
"                                                                                                                                ",
"                                                                                                                                ",
"                                                                                                                                ",
"                                                                                                                                ",
"                                                                                                                                ",
"                                                                                                                                ",
"                                                                                                                                ",
"                                                                                                                                ",
"                                                                                                                                ",
"                                                                                                                                "
};
