/* XPM */
static char *rcp23374924590660[] = {
/* columns rows colors chars-per-pixel */
"64 64 217 2 ",
"   c black",
".  c #140C1C",
"X  c #382F1C",
"o  c #130E23",
"O  c #0D132B",
"+  c #1E1326",
"@  c #16192C",
"#  c #1A1A2B",
"$  c #18152C",
"%  c #0C0E34",
"&  c #0B0B36",
"*  c #140D37",
"=  c #0D123B",
"-  c #161433",
";  c #1A1535",
":  c #161934",
">  c #1C1A34",
",  c #15153B",
"<  c #1A163B",
"1  c #16193E",
"2  c #1C1A3C",
"3  c #080F21",
"4  c #2D162A",
"5  c #291728",
"6  c #311925",
"7  c #221A35",
"8  c #2D1A33",
"9  c #211D3D",
"0  c #271633",
"q  c #361E33",
"w  c #29223B",
"e  c #392639",
"r  c #493F25",
"t  c #45293D",
"y  c #793637",
"u  c #4B4026",
"i  c #5B482E",
"p  c #705638",
"a  c #795E3E",
"s  c #151643",
"d  c #191642",
"f  c #151943",
"g  c #1C1A42",
"h  c #141649",
"j  c #181A4B",
"k  c #211D42",
"l  c #3B2641",
"z  c #2E2244",
"x  c #4F3246",
"c  c #693748",
"v  c #763C48",
"b  c #743F56",
"n  c #6B524C",
"m  c #734551",
"M  c #774656",
"N  c #6C585B",
"B  c #684F49",
"V  c #7D6140",
"C  c #7C685D",
"Z  c #595164",
"A  c #923A37",
"S  c #8C433F",
"D  c #AD533C",
"F  c #C7663B",
"G  c #D1713F",
"H  c #D0703E",
"J  c #883E45",
"K  c #844B4D",
"L  c #8C494B",
"P  c #9D4B4C",
"I  c #964444",
"U  c #8E554A",
"Y  c #93534C",
"T  c #9A574B",
"R  c #9D5A4C",
"E  c #955347",
"W  c #8B4D52",
"Q  c #874B55",
"!  c #9A4A52",
"~  c #8C5353",
"^  c #855155",
"/  c #935556",
"(  c #9B5955",
")  c #945858",
"_  c #965756",
"`  c #A34C45",
"'  c #AC4D45",
"]  c #A0474A",
"[  c #B44D43",
"{  c #AD5545",
"}  c #AD5A47",
"|  c #A3534B",
" . c #AD544A",
".. c #A75949",
"X. c #B35345",
"o. c #B95544",
"O. c #B45A45",
"+. c #BD5C44",
"@. c #B2564B",
"#. c #B35A4B",
"$. c #BB5E4A",
"%. c #AA5D55",
"&. c #AB5E59",
"*. c #A55A56",
"=. c #9D605A",
"-. c #BD6345",
";. c #BD624A",
":. c #BC694C",
">. c #B86649",
",. c #AE635A",
"<. c #AF6056",
"1. c #B1645A",
"2. c #B56854",
"3. c #BD7758",
"4. c #B26948",
"5. c #AA5F61",
"6. c #A16B60",
"7. c #B36960",
"8. c #C36344",
"9. c #C26348",
"0. c #C66C49",
"q. c #D56E42",
"w. c #C9734C",
"e. c #C6774B",
"r. c #D37244",
"t. c #DA7B47",
"y. c #D2764C",
"u. c #D47B4B",
"i. c #DA7B4B",
"p. c #D87646",
"a. c #C77D51",
"s. c #D57B52",
"d. c #D87850",
"f. c #CC7C62",
"g. c #AB8969",
"h. c #B5926F",
"j. c #BB9673",
"k. c #CC814E",
"l. c #D6854E",
"z. c #DD854A",
"x. c #D6894D",
"c. c #DC8A4D",
"v. c #DD8345",
"b. c #CC8452",
"n. c #CC8859",
"m. c #D68553",
"M. c #DC8451",
"N. c #D58B53",
"B. c #DB8C51",
"V. c #D68C5B",
"C. c #DB9155",
"Z. c #D4915B",
"A. c #DC935A",
"S. c #D59057",
"D. c #E28746",
"F. c #E3864C",
"G. c #E28A4E",
"H. c #E38C53",
"J. c #E28856",
"K. c #E39253",
"L. c #E4955B",
"P. c #EA935A",
"I. c #E2995D",
"U. c #EB9959",
"Y. c #E5934F",
"T. c #C2946E",
"R. c #C29B75",
"E. c #C59D78",
"W. c #D8946A",
"Q. c #E39D64",
"!. c #E09F68",
"~. c #E79868",
"^. c #F29961",
"/. c #E49C78",
"(. c #CBA27A",
"). c #C7A27B",
"_. c #DCA77A",
"`. c #DDAA7C",
"'. c #D0A27C",
"]. c #E7A266",
"[. c #E8A364",
"{. c #E6AA6B",
"}. c #EAAB6C",
"|. c #E8A66A",
" X c #F3A462",
".X c #EAB26E",
"XX c #EBB86E",
"oX c #E5AD76",
"OX c #EAAD70",
"+X c #E4AE7B",
"@X c #E8A574",
"#X c #EBB473",
"$X c #ECB974",
"%X c #E5B37C",
"&X c #EAB37A",
"*X c #EDBA79",
"=X c #E7B576",
"-X c #F1B971",
";X c #F4CA79",
":X c #C4A787",
">X c #EDBC8E",
",X c #E5B682",
"<X c #F6BA87",
"1X c #F2C28A",
"2X c #F3CB96",
"3X c #F1CE9C",
"4X c #F1C795",
"5X c #EED09D",
"6X c #F4D29C",
"7X c #EEC78F",
"8X c #F2D4A2",
"9X c #F4DBA9",
"0X c #F6E4AD",
"qX c #F9E5B1",
"wX c #F9EAB3",
"eX c #DDCDC3",
"rX c #F9F6EE",
/* pixels */
"i i i i i i i i i i i i i i i i i i i i i i i i i i i i i i i i i i i i i i i i i i i i i i i i i i i i i i i i i i i i i i i i ",
"i i i i i i i i i i i i i i i i i i i i i i i i i i i i i i i i i i i i i i i i i i i i i i i i i i i i i i i i i i i i i i i i ",
"i i i i V V V V V                                                                                                 V V V V V X X ",
"i i i X V V V V V - - :X9X9X5X3X3X3X3X2X3X3X3X6X8X6X8X8X8X8X8X6X2X2X2X2X1X<X6X6X8X8X8X6X6X3X3X3X3X8X8X9X0X>X>X:X, V V V V V X X ",
"i i V V V V V V V - - :X9X9X5X3X3X3X3X2X3X3X3X6X8X6X8X8X8X8X8X6X2X2X2X2X1X<X6X6X8X8X8X6X6X3X3X3X3X8X8X9X0X>X>X:X, a a a a V V V ",
"i i V V V V V V V - - 6.1X<Xr.u.u.u.i.p.p.y.y.y.u.u.s.s.y.y.y.y.y.y.y.y.d.y.y.p.r.r.r.r.r.q.H G G r.r.-.Q.L.L.6.2 a a a a a V V ",
"i i V V V V V V V - - 6.1X1Xp.t.t.t.t.p.p.y.y.u.y.s.s.s.y.y.i.y.y.y.y.y.s.s.p.p.r.r.r.r.q.q.q.q.q.r.r.9.}.~.~.6.2 V V V V V V V ",
"i i V V V V V V V     2 A A m g g g g g 2 g g 2 2 9 2 2 < < 1 < < < < < < 7 7 7 9 9 2 2 2 2 k k k k k L S v v     V V V V V V V ",
"i i p V V V V V V V V O #X#XK 1 1 1 J +.9.w.w.w.w.w.0.:.>.>.:.:.0.:.:.:.>.>.:.>.>.>.>.:.:.| v c c 2 2 ;.{.`.`.V V V V V V V V V ",
"i i p p p V V V V V V O #X#XK 1 1 1 I 8.r.x.x.c.x.x.c.c.N.N.N.c.N.N.N.N.x.l.l.l.l.l.x.N.L.:.J b b 2 2 ;.{._._.V V V V V V V V V ",
"r r r p p p p V V V V O #X#XK 1 1 1 I 8.r.x.x.c.x.x.c.c.N.N.N.c.N.N.N.N.x.l.l.l.l.l.x.N.L.:.J b b 2 2 ;.{._._.V V V V V V V V V ",
"r r r r p p p p V V V O &X#XY 1 1 1 ` M.v.L.L.L.L.L.A.A.Q.Q.].B.B.B.B.N.Q.Q.L.L.I.I.I.Q.Q.A.P K K 2 2 +.oX+X+XV V V V V V V V V ",
"r r r r u u i i a a a O &X#XY 1 1 1 ` M.v.L.L.L.L.L.A.A.Q.Q.].B.N.N.N.N.[.Q.L.L.I.I.I.Q.Q.A.P K K 2 2 +.oX+X+XV V V V V V V V V ",
"r r r r u u i i a a a @ &X=XE 1 1 1 X.^.U.f f f f f s s f f h I.Q.Q.@X|.s s f f f f f f . K.../ / 2 2 +.oX`.`.V V V V V V V V V ",
"i i i X V V V V V V V @ &X=XE 1 1 1 X.^.U.1 1 f h f h h f f f I.Q.Q.].].s s f g f f f f o K.../ / 2 2 +.oX`.`.V V V V V V V V X ",
"i i i X V V V V V V V : &X=XT < < < o.P.K., , 0././.<X/.s s : L.A.A.A.A.w W.<X<X>X>X:.5 + K.| ) ) 2 2 8.%XR.R.V V V V V V V X X ",
"i i i i i i i i i i i : &X=XT < < < o.P.K., , 0././.<X/.s s : A.A.A.A.A.w W.<X<X>X>X:.0 + K.| ) ) 2 2 8.%XR.R.i i i i i i i i i ",
"i i i i i i i i i i i # $X#X..< < < D H.G., , L.4X2X;XS.< < , K.A.A.A.A.9 U.1X1X6X6Xb.5 + c.| / / 2 2 8.%Xj.j.i i i i i i i i i ",
"V V V V V V V V V V V # $X#X..2 2 < X.H.G.; - U.L.U.}.A.; ; ; B.A.A.S.S.8 J.}.}.].].N.4 + c.` W W 2 2 F ,XE.E.V V V V V V V V V ",
"V V V V V V V V V V V @ #X=XT 1 1 2 X.B.c.; ; L.L.L.{.N.7 7 > B.Z.Z.Z.Z.x J.{.{.{.{.b.6 5 H.` ~ ~ 9 9 8.%Xh.h.V V V V V V V V V ",
"a a a a V V V V V V V @ $X*XY 1 1 1 X.c.c.# # L.L.L.}.N.7 7 7 B.Z.Z.Z.Z.t J.|.|.{.{.n.4 5 Y.` ^ ^ 9 9 8.,Xh.h.a a a a a a a a a ",
"a a a a a V V V V V V @ $X*XU 2 2 2 X.G.c.> > H.L.L.}.b.7 7 7 B.Z.Z.Z.Z.t J.|.{.@X@Xn.4 5 K.` ~ ~ 9 9 8.,Xj.j.a a a a a a a a a ",
"V V V a a a a a a a a @ *X*XR 2 2 2 X.c.c.> > P.L.L.#XV.7 7 > B.Z.Z.Z.Z.t M.{.{.oXoX3.4 4 Y.| ~ ~ 9 9 8.,XR.R.V V V V V V V V V ",
"V V V V a a a a a a a @ *X*XR 2 2 2 X.c.c.> > P.L.L.#XV.7 7 > B.Z.Z.Z.Z.t M.{.{.oXoX3.4 4 K.| ~ ~ 9 9 8.,XR.R.V V V V V V V V V ",
"V V V V V V V V V V V @ *X*XR 2 2 2 X.c.c.> > K.L.L..XA.7 7 > B.Z.Z.Z.Z.e J.|.|.oXoX:.5 5 K.| ~ ~ 9 9 8.%X(.(.V V V V V V V V V ",
"V V V V V V V V V V V @ *X*X..2 2 2 X.G.c.> > K.L.L..X@X< < 2 B.S.S.S.S.w J.{.|.oXoX>.8 + K.| ~ ^ 9 9 8.%X(.(.V V V V V V V V V ",
"V V V V V V V V V V V @ $X*XR 2 2 2 X.G.G.: : ^.[.[.}.}., , < C.S.S.S.S.> J.|.|.%X%X>.q + B. .~ ~ 2 2 8.%XE.E.V V V V V V V V V ",
"V V V V V V V V V V V # *X*XR 2 2 2 X.H.G.: : D [ [ S.f.f f , B.C.C.A.A.k O.F H  . .#.e 5 B.#./ / 2 2 8.%XE.E.V V V V V V V V V ",
"a a a a a a a a a a a # $X$XT 2 2 2 X.H.G.1 1 O.} } O.} h h s B.C.C.C.C.z O.#.#. . .#.e 5 B.#._ _ g g 8.%XE.E.V V V V V V V a a ",
"a a a a a a a a a a a # $X$XT 2 2 2 X.H.G.1 1 O.} } O.} h h s B.C.C.C.C.z O.#.#. . .#.e 5 B.#._ _ g g 8.%XE.E.V V V V V a a a a ",
"V V V V V V V V V V V # $X#XT < < 2 X.H.H., , * * , - - s s s B.C.C.C.C.< , , , $ $ $ - 8 B.#.( ( g g 8.%XE.E.u a a a a V V a V ",
"V V V V V V V V V V V # $X#XR < < 2 X.H.c.qXqXqX0X0XwXwXwXwXwXB.A.A.A.A.N N C C n n B n w.B.$.=.=.k k 8.%X(.(.u a a a a a V V V ",
"i i i i i i i i i i i # =X#XR < < < X.H.c.qXqXqX0X0XwXwXwXwXwXB.C.C.A.A.N N C C n n B n w.B.$.=.=.k k 8.%X(.(.i i i i i i i i i ",
"i i i i i i i i i i i # &X$XR 2 2 2 X.H.G.B.M.m.l.l.M.M.m.m.M.N.N.N.B.B.M.M.M.m.G.G.G.Y.& & 0._ _ g g 8.%X(.(.i i i i i i i i i ",
"i i i X V V V V V V V # *X*XU < < < X.G.c.c.c.x.l.l.x.c.N.N.N.N.B.B.N.N.N.N.c.c.m.m.m.= rXeX& M M k k -.%XR.R.p p p p p p p X X ",
"i i i V V V V V V V V # *X*XU < < < X.G.c.c.c.x.l.l.c.c.N.N.N.N.B.B.N.N.N.N.x.c.m.m.m.= rXeX& M M k k -.%XR.R.p p p p p p p X X ",
"i i V V V V V V V V V # *X*XU 2 2 2 o.G.c.c.c.c.l.l.N.N.N.N.N.B.B.B.N.N.N.N.N.N.l.l.k., N Z % Q Q k k -.%XR.R.i i r r r r r r r ",
"i i V V V V V V V V V # &X=XY 1 1 1 +.G.c.c.c.c.c.c.B.B.C.C.K.B.B.B.B.B.B.B.N.N.N.N.l.N o o q t t k k ;.%XE.E.i i r r r r r r r ",
"i i p p p p V V V V V # $X#X( 2 1 1 +.F.c.d d d d s d d d d , K.B.B.C.C.j h f d < < < , e { X.*.*.2 g 9.%XE.E.i r r r r r r r r ",
"i i p p p p p p V V V @ $X$X( < 2 2 +.F.c.f f c Q Q Q / < < < K.K.K.K.C.7 Q W W ) ) ( q o N.O.*.*.2 2 ;.%XE.E.i r r r r r r r r ",
"i i r r r i p p a a a # $XXX( < < < +.H.G.f f [ X.{ { { < < 2 B.B.B.C.C.k #.o.o.#.#...5 $ B.O.*.*.g g 8.%Xj.j.V V V V V V V V V ",
"i i r r r i i i a a a # $X$XT < < < o.F.D.s s ^.I.L.}.m.2 2 < B.B.B.C.C.9 M.}.OX!.!.b.0 5 c.{ ( ( 9 k 9.%Xg.g.V V V V V V V V V ",
"i i r r r r i i V V V # $X$XT < < < o.F.D.s s ^.I.L.}.m.2 2 < B.B.B.C.C.9 M.}.OX!.!.b.0 5 c.{ ( ( 9 9 8.%Xg.g.V V V V V V V V V ",
"i i r r r r i V V V V # $X$XE < < < o.F.D., , P.H.K.}.A.< < < B.c.c.C.C.k M.|.|.{.{.b.0 + B. ._ _ 9 9 8.&Xg.g.V V V V V V V V V ",
"i i V V V V V V V V V # $X$XU 2 2 2 X.G.F.1 1 F.H.B.}.~.2 2 < B.c.c.C.C.e i.[.[.|.|.b.8 + B.../ / 9 9 8.%Xg.g.a a a a V V V V V ",
"i i V V V V V V V V V @ $X$XE 2 2 2 ' v.v.> > F.G.H.#X!.< < < c.c.c.S.S.x i.[.[.Q.Q.n.8 5 c.| ^ ^ 9 9 8.%Xg.g.a a a a V V V V V ",
"i i i X V V V V V V V @ $X$XY 2 2 2 ' z.z.> > F.G.H.#X!.> > < c.c.c.S.S.t i.[.[.Q.Q.n.8 6 c.| ^ ^ 9 9 8.,Xg.g.V V V V V V V X X ",
"i i i i V V V V V V V @ $X#XY 2 2 2  .z.z.> > F.G.H..XQ.> > < c.c.c.C.C.l i.[.[.Q.Q.a.8 6 c.P m m 9 9 8.%XE.E.V V V V V V V X X ",
"i i i i i i i i i i i @ $X#XY 2 2 2  .z.z.> > F.G.H..XQ.> > 2 c.c.c.C.C.l i.[.[.Q.Q.a.8 6 c.P m m 9 9 8.%XE.E.i i i i i i i i i ",
"i i i i i i i i i i i @ #X#XK 2 2 2 ' c.c.< < P.L.L.OX@X< < 2 B.B.B.C.C.d H.[.[.oXoX4.0 6 c.P m m 2 2 -.%X(.(.i i i i i i i i i ",
"V V i i i r V V V V V @ #X#XK 2 < < ' c.z., , ^.U.U.OX@X, , , B.B.B.B.C.f L.[.[.%X%X} 8 5 c.P m m 2 2 -.&X'.'.V V V V V V V V V ",
"V V i i r r V V V V V @ #XXXW 1 1 1 ' z.D.s s [  .{ XXD 1 1 , B.B.B.B.B.j O.[.}. . .@.4 6 z.P M M 2 2 +.&XT.T.V V V V V V V V V ",
"i i u u a a a a a a a @ #XXXW 1 1 1 ' z.D.s s [  .{ XXD 2 2 1 B.B.B.B.B.j O.[.}. . .@.4 6 z.P M M 2 2 +.&XT.T.V V V V V V V V V ",
"i i i u a a a a a a a @ #X#XW g g g ' F.v.h h s s s d d g g g B.B.B.B.B.d s g f f f f f 5 c.! M M 9 9 $.OX_._.V V V V V V V V V ",
"a a i i r r V V V V V @ #X#XW g g g ' F.v.h h s s s d d g g g B.B.B.B.B.d s f g f f f f 5 c.! M M 9 9 $.OX_._.a a a a a a a a a ",
"a a i i r V V V V V V @ #X#XW g g g ` F.v.h h , , < g d g g g B.B.B.B.B.g f d < d d g f 5 c.! m m 2 2 $.OX`.`.a a a a a a a a a ",
"V V V V V V V V V V V 3 {.{.v < < < ] t.t.u.u.u.0.w.w.w.a.a.k.m.l.l.m.m.a.a.e.e.a.a.a.k.z.x.L c c 2 2 #.{.'.'.V V V V V V V V V ",
"V V V V V V V V V & &   ;X;Xx < < < ! F F  . .`  X Xw.w.u.u.u.u.u.u.u.u.i.i.y.r.}.}.~.8.-.9.P v v 2 2  .;X,X,X* % V V V V V V V ",
"V V V V a a a a a & &   e.0.x < < < ! F F @.@.`  X X0.0.u.u.u.u.u.u.u.u.i.y.y.r.}.}.@X9.-.;.P v v 9 9  .9.+.+.% & V V V i i i i ",
"V V V a a a a a a = =   I I x 1 2 2 1 , , < < < g g 1 1 , , , , , , s s f 1 1 1 < < < , , , 1 , , 1 1 l y y y , = V V V i i i i ",
"u u a a a V V V 3.&.&.&._ _ ! ,.,.,.,.,.,.%.%.%.&.&.1.1.1.1.1.<.1.1.1.1.1.,.<.<.1.1.1.1.1.1.,.7.7.7.7.&.%.&.&.*.*.5.a a a i i i ",
"u u a a V V V V 3.&.&.&._ _ ! ,.,.,.,.,.,.%.%.%.&.&.1.1.1.1.1.<.1.1.1.1.1.,.<.<.1.1.1.1.1.1.,.7.7.7.7.&.%.&.&.*.*.5.a a a a i i ",
"r r V V V V V V V V V V V V V V r r r r V V V V V V V V V V V X i i X V V V V V V V V V V V r r r r r r V V V V V V V V V V r r ",
"r r V V V V V V V V V V V V V V r r r r V V V V V V V V V V X X i i X X V V V V V V V V V V r r r r r r V V V V V V V V V V r r "
};
