/* XPM */
static char *result[] = {
/* columns rows colors chars-per-pixel */
"64 64 223 2 ",
"   c black",
".  c #13051F",
"X  c #382F1C",
"o  c #0E0E29",
"O  c #120B22",
"+  c #1D0F27",
"@  c #150C2D",
"#  c #0B1227",
"$  c #15132D",
"%  c #1C1A2E",
"&  c #1E162E",
"*  c #0B0F32",
"=  c #120F35",
"-  c #150E37",
";  c #151535",
":  c #191635",
">  c #151835",
",  c #1C1B33",
"<  c #15153B",
"1  c #19163A",
"2  c #16183B",
"3  c #1A1A3C",
"4  c #0E113B",
"5  c #28162B",
"6  c #33162B",
"7  c #36192C",
"8  c #251D35",
"9  c #251E3A",
"0  c #281D38",
"q  c #391D32",
"w  c #1E203D",
"e  c #282037",
"r  c #262139",
"t  c #2A213C",
"y  c #3A2439",
"u  c #33212E",
"i  c #441B2A",
"p  c #493F25",
"a  c #4F2C35",
"s  c #672D37",
"d  c #683438",
"f  c #6E3638",
"g  c #4B4026",
"h  c #5B482E",
"j  c #5B413F",
"k  c #705638",
"l  c #795E3E",
"z  c #74493C",
"x  c #141541",
"c  c #161841",
"v  c #1B1A42",
"b  c #1C1747",
"n  c #191B50",
"m  c #201641",
"M  c #221C44",
"N  c #251F5A",
"B  c #1F2246",
"V  c #282445",
"C  c #382749",
"Z  c #3A3144",
"A  c #2A2957",
"S  c #2C3B6E",
"D  c #452A45",
"F  c #553B55",
"G  c #493852",
"H  c #7F3D40",
"J  c #3B407B",
"K  c #5A4341",
"L  c #534A54",
"P  c #644645",
"I  c #6C4C4A",
"U  c #6A4847",
"Y  c #704D44",
"T  c #754344",
"R  c #634559",
"E  c #725249",
"W  c #7D6140",
"Q  c #514E61",
"!  c #555667",
"~  c #4B4476",
"^  c #6D5263",
"/  c #6F5267",
"(  c #6C7171",
")  c #8C3F32",
"_  c #88433A",
"`  c #94463B",
"'  c #AA583D",
"]  c #B3533F",
"[  c #C25B3D",
"{  c #D05E3B",
"}  c #CD633D",
"|  c #D36B3D",
" . c #D1653F",
".. c #D6713F",
"X. c #913A40",
"o. c #994B48",
"O. c #9D5853",
"+. c #8C4A51",
"@. c #A45544",
"#. c #AB544B",
"$. c #A95A48",
"%. c #BF5740",
"&. c #B55A46",
"*. c #A34D53",
"=. c #A85854",
"-. c #AC4E53",
";. c #BD604D",
":. c #AD6857",
">. c #B76754",
",. c #BD7D54",
"<. c #894563",
"1. c #9B6A69",
"2. c #AF7C63",
"3. c #B67462",
"4. c #B87B65",
"5. c #B17073",
"6. c #826659",
"7. c #C25C41",
"8. c #C55A44",
"9. c #C76342",
"0. c #C96747",
"q. c #D36C41",
"w. c #D46A43",
"e. c #C97546",
"r. c #DA7445",
"t. c #D37B45",
"y. c #DD7A46",
"u. c #D17D4B",
"i. c #D9754C",
"p. c #DC7752",
"a. c #DE7951",
"s. c #CD6B54",
"d. c #E07D53",
"f. c #E17A4F",
"g. c #B88569",
"h. c #BA8873",
"j. c #B79579",
"k. c #D6834D",
"l. c #DA854C",
"z. c #DB8A4D",
"x. c #D68C4D",
"c. c #CE8756",
"v. c #DB8651",
"b. c #D48C54",
"n. c #DC8C52",
"m. c #D78655",
"M. c #DA9659",
"N. c #CF804E",
"B. c #E4834B",
"V. c #E28A4C",
"C. c #E48C53",
"Z. c #E49354",
"A. c #E3945B",
"S. c #E9965D",
"D. c #E59D5D",
"F. c #E89B5E",
"G. c #EA9A55",
"H. c #E5A25E",
"J. c #EBA45B",
"K. c #CC9264",
"L. c #D49267",
"P. c #C68A67",
"I. c #E69761",
"U. c #E59D61",
"Y. c #E49568",
"T. c #DFB07E",
"R. c #E6A262",
"E. c #E9A361",
"W. c #ECAB6D",
"Q. c #E8A66D",
"!. c #E4AC74",
"~. c #ECAE73",
"^. c #E3AE79",
"/. c #E5A876",
"(. c #EDB073",
"). c #E5B27C",
"_. c #EAB47D",
"`. c #E8B579",
"'. c #F2AA6F",
"]. c #4F57A6",
"[. c #889196",
"{. c #B99B87",
"}. c #B39D98",
"|. c #9DA29E",
" X c #BCA28E",
".X c #BBA392",
"XX c #9A99B2",
"oX c #ABABAD",
"OX c #C29B84",
"+X c #C5A48B",
"@X c #C6AA92",
"#X c #CFB49C",
"$X c #C9B093",
"%X c #DAB999",
"&X c #E4A680",
"*X c #E9B582",
"=X c #ECBB83",
"-X c #F3BF99",
";X c #EDC78E",
":X c #D2C3A8",
">X c #E8D8B9",
",X c #F1D0A7",
"<X c #F7E3BA",
"1X c #FAE1AF",
"2X c #BCCADD",
"3X c #DFDBDB",
"4X c #F8ECC8",
"5X c #F6EFDE",
"6X c #FEEFD1",
"7X c #FBF3D2",
"8X c #FCF5DB",
"9X c #FCFADE",
"0X c #F7FBD9",
"qX c #F6EBCB",
"wX c #FBF7E3",
"eX c #FDFBE2",
"rX c #FCFBEC",
"tX c #F7F6E8",
"yX c #F4F6F2",
"uX c #FAFAF4",
"iX c #F9F9FA",
"pX c #F8F9F7",
"aX c #ECF1EF",
/* pixels */
"h h h h h h h h h h h h h h h h h h h h h h h h h h h h h h h h h h h h h h h h h h h h h h h h h h h h h h h h h h h h h h h h ",
"h h h h h h h h h h h h h h h h h h h h h h h h h h h h h h h h h h h h h h h h h h h h h h h h h h h h h h h h h h h h h h h h ",
"h h h h W W W W W ;                                                                                         W W W W W W W W X X ",
"h h h X W W W W W ; /.&X&XP.;X=X_.!.!.)._._.*X).).).).).)._.=X*X_.!././.).^.).^.^.~.!.!.^.^.).T.Q.;XY.Y.R.  W W W W W W W W X X ",
"h h W W W W W W W ; &X&X&XP.;X=X`.!.!._._._._.).).).^.).^._._.`.).!././.*X^.^.^.^.~.!.!.^.T.).T./.;XU.Y.Y.  l l l l l l l W W W ",
"h h W W W W W W W , >.>.>.e.0.e.s.w.t.p.a.i.i.a.p.p.p.f.a.d.a.a.a.p.i.p.i.i.p.i.i.f.a.a.q.r.r.9.%.D.$.$.$.  W W l l l l l l W W ",
"h h W W W W W W W y > $ $ +.o.y M 3 b b b n ].0XrXrXrX~ ~ N N B B v 9 3 v v c c c v v c v v b eXX.'         6._ W W W W W W W W ",
"h h W W W W W W W C $ $ $ +.@.i M b c b b b ].0XrXrXrX~ ~ N N v b v 3 3 v 3 c v v v 3 c B v b wXX.@.        l l W W W W W W W W ",
"h h k l W W W W W W 2 2 2 E 0.=.M < < #.#.0.;.>.4.4.0XeXeXrXoXM V B 2 v 3 < x 3 3 < 3 1 v v v wX[ ~.3 v v W W W W W W W W W W W ",
"h h k k k W W W W W w 2 B h 8.:.M x < e.,.k.l.x.V.z.Z.s.p.1XuXrXrXrXV V 3 - < ; < J < < 2 v c rX[ (., , , W W W W W W W W W W W ",
"g g g k k k k W W W > 2 2 Y 0.:.V b c k.t.l.l.R.F.D.M.z.l.l.l.A.A.I.eXeX8 0 t : ; >X: : 2 2 v rXw.~.& & 8 W W W W W W W W W W W ",
"g g g g k k k k W W > > 2 Y 0.=.M c c k.k.l.l.R.L.M.M.l.z.z.B.A.A.U.eXeX: V t ; $ >X% : < 3 v uX} (.8 & 8 W W W W W W W W W W W ",
"p p p p g g h h l l , 3 3 Y Q.O.M M b i.l.x.M.< 3 1 1 a a G.Z.C.C.S.eXeX: : ; , ; v 3 3 2 2 v uX| _.& , , W W W W W W W W W W W ",
"p p p p g g h h l l , , , Y W.z q -.-.,.,.z.n.; $ @ - : - 1 9 v.C.A.eXeX3 : : ; 2 2 3 1 < 3 c rXq._.: 8 , W W W W W W W W W W W ",
"h h h X W W W W W W w , , I E.f D #.&.M.K.V.z.5 ] ] ] @.#.=.<.Z.A.A.eXeX: ; ; @ [.! 1 - x x c uXq._.8 : , W W W W W W W W W W X ",
"h h h X W W W W W W , , , I W.H i &.&.L.L.z.l.0 | | U.~._.(.<.Z.Z.S.eXeX, ; ; wXeXuXaXaX< < x uXq.*X8 8 r W W W W W W W W W X X ",
"h h h h h h h h h h , , , E W.T q #.#.K.K.z.x.6 w...F.F.U.J.#.G.Z.A.9XeX: uXyXuXrX# yXaXx < x yX| *X8 8 8 h h h h h h h h h h h ",
"h h h h h h h h h h , , % E W.T q #.#.K.K.V.b.6 | | J.U.U.G.#.Z.G.A.eXeX$ yXuXrXrX# yXyXx < x uX..*X8 8 8 h h h h h h h h h h h ",
"l W W W W W W W W W , , , E W.T q #.#.K.K.z.x.5 | | E.U.E.G.#.Z.Z.A.eX9X; yXyXuXrXO yXyX4 x x yXq.*X8 8 8 W W W W W W W W W W W ",
"l W W W W W W W W W , , , Y (.:.M 3 3 l.z.b.M.i r.w.E.H.U.F.=.G.A.F.eX9X; < < pXrXuX! ! 2 2 2 uXq.).8 8 e W W W W W W W W W W W ",
"l l l l W W W W W W , , , I ~.>.V b v l.z.x.b.7 ....J.R.R.R.=.S.S.D.9X9X3 ; : $ $ $ > > 2 2 < uX} ).r 8 e l l l l l l l l l l l ",
"l l l l l W W W W W w , , Y ~.>.b c c z.z.l.b.i r.r.U.D.D.E.=.F.S.F.9XeX1 , ; ; > > , ; 2 2 v uXq.).e e e l l l l l l l l l l l ",
"W W W l l l l l l l % % % K (.$.V c c x.z.b.c.i y.y.H.U.U.H.O.S.S.A.eXeX: 3 3 2 ; ; ; 2 3 3 v uXq.*X8 8 e W W W W W W W W W W W ",
"W W W W l l l l l l % e , K (.$.A 2 2 v.v.b.b.7 y.y.F.R.D.D.O.Z.S.S.eXeX: pXyX3X; $ : : 3 3 v uXq.).8 r 8 l W W W W W W W W W W ",
"W W W W W W W W W W , , , K '.@.G 2 c k.k.b.b.7 B.f.E.E.U.D.*.F.S.I.eXeX> ; ; : tXeX9X9Xv 3 x uX| _.e e e W W W W W W W W W W W ",
"W W W W W W W W W W , , , K (.@.G 2 c u.k.x.K.7 B.B.J.U.H.D.=.A.F.I.eX9X> > ; ; eXeX9XeXv v x uX| _.8 8 e W W W W W W W W W W W ",
"W W W W W W W W W W , , , P (.@.G c c k.k.z.b.7 C.C.E.R.R.D.-.I.S.I.eXrX2 ; ; 1 tXyX9XwXv v c uX| ).e e e W W W W W W W W W W W ",
"W W W W W W W W W l % , , I ~.@.F x x k.m.z.b.6 ] %.J.Q.R.D.*.S.A.U.eXeX1 , 1 1 > V eX0X2 2 2 uX| ).e e e W W W W W W W W W W W ",
"l l l l l l l l l l , % % I (.$.F v x k.k.z.b.6 7.[ E.Q.Q.G.*.S.S.D.eXeX3 3 1 2 ; V 0XwX< < v uX| `.e e e W W W W W W W W W l l ",
"l l l l l l l l l l e , w K (.$.R b x v.v.V.n.x x 4 4 < < ; - S.F.H.rXeX9 3 9 yX1 , 2 : 2 3 3 uX| T.8 8 8 h W W W W W W l l l l ",
"W W W W W W W W W W % , , P `.;.F v c v.v.V.V.<X<X<X<X<X<X4X7X'.E.'.rXeXV 3 3 , : : , : 2 3 v uX} `.r , 8 g g g l l l l W W l W ",
"W W W W W W W W W W % % % Y (._ F b v v.v.l.v.z.v.v.v.v.l.l.u.* * @ eXeXQ M M , : 1 : : 3 3 3 uXq.`.e e 8 g g g l l l l l W W W ",
"h h h h h h h h h h , % & Y (._ F c b v.v.l.z.n.n.z.v.z.z.l.u.* * = wXeXQ w 9 3 , 3 , , 3 3 v uXw.`.8 r t h h h h h h h h h h h ",
"h h h h h h h h h h e , , P W._ F v v k.v.z.z.z.z.n.z.v.n.n.c.A A S o o eXV V Z 3 r wXwX3 3 3 uXw.(.t t t h h h h h h h h h h h ",
"h h h X W W W W W W , , , P W._ R v v v.v.z.v.n.n.n.v.n.n.n.n.o * O rXrX9X2 B 3 2 : > , 3 , 3 uXq.^.t t t k k k k k k k k k X X ",
"h h h W W W W W W W , e , P (.` / < 3 l.k.z.C.< x x x = = ; < F.F.I.eXeX1 tXtX3 ; > 3 2 2 2 v iX| *Xr r r k k k k k k k k k X X ",
"h h W W W W W W W W % , , P (.` / < < k.v.l.Z.< x x x = - = < F.U.I.eXeX1 tX5X1 2 2 2 3 2 1 3 iX..*Xr r r k h h h p p p p p p p ",
"h h W W W W W W W W , , , I (._ ^ ; < k.k.V.Z.+ &.:.8.&.;.;.+.A.U.A.eXeX3 2 : 2 |.Z 3 3 3 1 m iXq._.r t r h h h h p p p p p p p ",
"h h k k k k W W W W , , , E W.) ^ < < k.v.l.Z.+ =.>.>.8.0.;.o.F.U.I.eXeX3 : 1 < |.Z 3 1 1 3 v iXq.).r r r h h h p p p p p p p p ",
"h h k k k k k l W W , , , E W._ ^ x x k.u.V.v.q 8.&.m.s.0.] <.S.S.A.eXeX1 1 1 < [.V 1 ; 2 1 3 iX.._.t t t h h h p p p p p p p p ",
"h h p p p h k k l l , , , W (._ / x x e.u.x.b.s y.r.E.R.R.R.=.S.A.A.eX9X2 XXoXuXL ! 2X2X; < < iX..=Xr r r W W W 6.l W W W W W W ",
"h h p p p h h h l l , , , E W.` / x x u.u.k.c.s r.r.E.R.R.H.=.Z.A.I.9X9X2 iXpXuX# [.XXXX< < < iX| _.r e r W W W W _ W W W W W W ",
"h h g p p p h h W W , , , I `.` / x x k.k.k.b.a r.y.E.R.H.R.=.A.Z.F.9XeX2 2 2 > Q B w 2 2 < x uX| ).e e r W W W W W W W W W W W ",
"h h p p p p h W W W % , % K W.` F x x m.k.l.k.a r.r.J.D.D.H.&.A.Z.F.9XeX2 ; ; > * 2 2 2 < 2 b iXq.).r r r W W l W W W W W W W W ",
"h h W W W W W W W W % , > j W.o.C x x u.u.x.x.i r.r.J.U.U.U.#.A.Z.I.eX9X3 3 2 2 > > 2 2 2 2 v uX9.).r r r l l l l l W W W W W W ",
"h h W W W W W W W W , % % d ~.` C x x u.u.k.b.i i.i.U.U.D.I.#.A.A.M.eXeX2 2 2 2 > > 2 2 2 2 v pX} _.M 9 r l l l l l l W W W W W ",
"h h h X W W W W W W % , % K W._ A n n c.N.l.n.6 r.q.D.H.R.H.*.A.Z.A.9X9X, & & tX4 ; 2 ; < 1 < uX} ^.r e e W W W W W W W W W X X ",
"h h h h W W W W W W , % , P Q.+.C n n N.c.z.b.6 q.r.H.H.H.H.-.M.Z.L.eX9X1 : % tX2 ; < 2 3 3 x iX9._.8 e e W W W W W W W W W X X ",
"h h h h h h h h h h % > , P W.z D 0.;.OXOXl.l.6 w.w.H.R.H.Z.*.A.Z.A.wX9X2 2 2 ; ( Q 2 1 < 3 < iX} ~.8 r 8 h h h h h h h h h h h ",
"h h h h h h h h h h % % % I Q.z D 0.0.h.h.l.l.6 7.7.J.J.J.| o.Z.Z.A.9XeX: ; ; ; [.Q ; ; 2 2 x uX{ /.9 9 0 h h h h h h h h h h h ",
"W W h h h p W W W W % % % Y Q.d D } 9.2.4.l.V.5 u u u 8 8 < v C.A.A.eX9X1 ; < rXrXrXuXrX2 ; x iX} ~.3 , 3 l W W W W W W W W W W ",
"W W h h p p W W W W % % % P Q.d D 7.%.2.2.l.V.+ + O 8 a y ,X6Xz.v.C.9XeX: 2 ; < ( ( x < ; 2 c pX .!.3 9 9 W W W W W W W W W W W ",
"h h g g l l l l l l % % % P Q.d D %.%.2.g.x.V.$ + + % y Z ,X6Xz.z.C.eXeX2 > 2 ; ( ( 2 2 > ; x uX .W.1 m 9 E W W W W W W W W W W ",
"h h h g l l l l l l $ @ $ I W.d C b b e.9...l.<X<X<X<X1X1XV.B.z.z.C.9X9X2 > > ; $ $ 2 2 2 2 c pX{ !.9 9 w _ W l W W W W W W W W ",
"l l h h p p W W l @ v b 3 6.;XH D c < t.e.l.N...t.t.e...t.N.k.l.B.V.eX9X2 aXaX2 ; 2 2 > 2 2 3 uX} ;X9 1 B * l l l l l l l l l l ",
"l l h h p W W W W ; 5.5.5.$.&._ F x x t.t...| ..t.t.N.....x.;X9X9X9XeXeX3 w 2 > 2 ; 2 2 v 3 3 rXs.{ [ 8.[ a l l l l l l l l l l ",
"W W W W W W W W eX< 1.1.1.+.s 7 V c c # . O 8 C R R 9X9X8XeXwXeXwXrXrXeXwXwXeX9X8X7X:X:XB B 3 oX. + H H _ 6 4.W W W W W W W W W ",
"W W W W W W W W eX< 1.1.1.+.s 7 r 2 x # . O & C R R eX0XeXeXeXeXeXeXeXeXwXeX9XwX8X8X:X:XB B w oX. 5 H X.f 6 2.W W W W W W W W W ",
"W W W W l l l l 4.:.:.:.:.:.:.K.g.j.j.5X5XtX0X9X9X9X9X>X>XeXeXeXwXeX9X9X9XrXrXeX7X8X9X8X7X7X4X4X2.g.3.3.4.3.3.l W W W W h h h h ",
"W W W l l l l l 4.:.:.:.:.:.:.K.g.j.j.5X5XeX9XeX9X9X9X>X>XrXeXeX9XwX9X9X9XeXrXeX7X8X9XwX7X7X7X4Xg.4.3.3.3.3.:.W W W W W h h h h ",
"g g l l l W W W %Xj.OXOX+X{.j.{.{.j.j.eXrX>X$XqX9X9X+X#X#X@X+X9XeX+X%X%X+X+X+X9XqX@X$X@XuXuX}..XuX{.OXOX{.OXh.l l l l l l h h h ",
"g g l l W W W W @X>X:X:X:X$X X$XeXeXtX.X.X$X7X#X X X X0X9X@X$XeXrX X X.XeX+XK. X+XuX@X+X{.{.iXuX+X+X#X#X#XqX{.l l l l l l l h h ",
"p p W W W W W W W W W W W W W W g g g g l l W W W W W W W W W X h h X W W W W W W W W W W W p p p p g p W W W W W W W W W W g p ",
"p g W W W W W W W W W W W W W W g g g g W W W W W W W W W W X X h h X X W W W W W W W W W W p p p p p p W W W W W W W W W W p p "
};
