/* XPM */
static char *result[] = {
/* columns rows colors chars-per-pixel */
"64 64 86 1 ",
"  c #6B767A",
". c #6F7B7E",
"X c #717B7E",
"o c #717D82",
"O c #758185",
"+ c #778488",
"@ c #7A868A",
"# c #7C8A8E",
"$ c #7D8D92",
"% c #7F9094",
"& c #838C8E",
"* c #808E92",
"= c #839195",
"- c #84959A",
"; c #8A9799",
": c #86999E",
"> c #8B9A9E",
", c #909F9F",
"< c #879CA0",
"1 c #8C9DA2",
"2 c #919FA2",
"3 c #8EA1A6",
"4 c #8EA3A9",
"5 c #8EAAAE",
"6 c #92A2A5",
"7 c #94A5AA",
"8 c #98A7AA",
"9 c #96A9AD",
"0 c #9BAAAD",
"q c #96A7B0",
"w c #9DA6B2",
"e c #95ADB1",
"r c #9CADB2",
"t c #95B3B5",
"y c #9CB2B4",
"u c #99B8B7",
"i c #A1ACAF",
"p c #A1AEB1",
"a c #A4B2B4",
"s c #A9B4B7",
"d c #A5B4BA",
"f c #ABB7B9",
"g c #A5BBBD",
"h c #ADBABC",
"j c #B1BCBE",
"k c #ADBDC0",
"l c #B3BEC1",
"z c #B9BFC6",
"x c #A9C1C3",
"c c #B5C2C4",
"v c #B9C3C5",
"b c #B6C6C9",
"n c #BCC6C9",
"m c #B7CACC",
"M c #BDCACB",
"N c #BED8D3",
"B c #C0C7CB",
"V c #C1CCCE",
"C c #C1D0CF",
"Z c #C5CED1",
"A c #C8CED2",
"S c #C4D2D2",
"D c #CAD5D6",
"F c #C6DAD6",
"G c #CAD9D7",
"H c #C7D5D8",
"J c #CCD7D8",
"K c #C6DDD9",
"L c #CEDADA",
"P c #D3DDDD",
"I c #CDE1DE",
"U c #D2E0DF",
"Y c #D5DFE0",
"T c #D6E1E1",
"R c #DBE4E4",
"E c #DCE8E7",
"W c #DEE7E8",
"Q c #DFE9E9",
"! c #E3EEEE",
"~ c #E4F0EF",
"^ c #E6F0F0",
"/ c #E8F2F2",
"( c #EFFAFA",
") c #F0F7F7",
"_ c #F2FCFC",
"` c #FAFFFF",
/* pixels */
"RTR/AnA~^Af#1ZHPRW/^^^^!Q^!QAviaC//^^^^/^^^^^^~P/)&;JPYjVPYYYYYY",
"_^WAnL~//An19MPRWRW/^^!^^^!^Dv0hG///^^///^^^^^^U!/#4PPPPBPRYYYPR",
"/YJYY!!^//A19MJRR!!/^^^^!^^^Uv0hG////^//^/!^!^^)PC6pP!^EEA!/TY_)",
"E!~!!W!!/^DMaCJR^!R^^/^^^^^^Uc0aC)/~//^^^^^^))`)/G7s!///^PJ)~/)!",
"R!~~!!~/^/DMhNJ!!R!^/^^^^^^^RAiaC!~/^!/!!!^)!PABsp3j//~!/^PR_/WE",
"Q!~^^^////DnaMJRR!RR^^^^^^^/WAppCU!/^!!Q!W)YPUA^Pd4M~!!!!//EYE!Y",
"~/^~^/////DnjCU!!RR!!^^^^/^^^BsiC~R^^!!!W)!PY!^^UM0M/!^^!~)_PYR!",
"Q^/~^^/^/^PjjCRER!R!!PR!^^^^^visC!/^/)!))`RP!!!^Us6M/^^!!(`/!!!!",
"^/^^////!/DdrCEEQQQQQERE////TVdtF~!~/(``^RRQ!!!~M09Z//^^/`(Q!^^^",
"^^^////~/!Y90FYEQQQQQRYR^^//RSauF!!!!~^EQQQQ^!^!cd4S//^^_/RQ^^^^",
"^!^^/^////R6rMIEQQQQQRRRR/^^RYruF!~!!!~QQQ/E^!!!j07G!/`)/R^^^^^^",
"^^^/^/////^>6NKREQQEQQTYP!R^TL<$F!!!!!~!^/(!!RUUs04S/))!RQ/!^^^/",
"/////^/^///;6VSURRREERPZZGLSYJ-$J~~Q^/!_(TPR)`UZi>tS(/PU//!!^^~/",
"^/^^///////*9tMVDHYAZZZhjcjll7-@S^~~^/_/PTUPPDCBC>9VDJRR^/!!~!~~",
"^^/^^//////*-$1erkggdkkadw61-%#odE`~~~LGLGDPPLBjd%5MA!/!!!/^^!~~",
"!^^^//^///Y##+-2qqwwwwawwpdd2<X #0ahgphvcclcjaaa;O5MJ//!!~(//~~~",
"^!~^^/////T$<xmnAAnvvlzzzlbzzj6 oo@;,668000066:$. 5KPP(~!!!)/!!!",
"!!/^/^///^T-gMJJLJJAAZAZJTPLAzp$@8ivCBnvjvvBhpdk;OtU!P//!!!^((!!",
"^/^///^//^P>kSHRRRR/^/~/////YBj2@gvMCLJDLPRJPSZnd#aG^!P(^^^!~))(",
"))///////^P6uFPRWWR)//~//////Bj11sBD!R^!^/^^/^!Za3dG!!R!(!^!!E!(",
"!/(/))((!!P6uFLQ!W!^^//^//)/^Ac6:aCQ///~//////^^f60T~~QP^///!//!",
"!////)!!!^P7gZLRR!!^/^/////^/Av9:fL////~!!/^////j60P~!!RE`/^^///",
"//////~!^^P9kMTQ!!^//^/////^!Anw3jU)^////!!^//~~B8yN!!!!!E_///(/",
"///)//~/^^P7tGRQ^!^/^/^/////!Znl3jR////)_^!^~!/!MpaM^!!!/!T`_`)!",
"///(/~//!/B#9HW/!!///^/////((PJl3h/////(^!!/Q/~/VprSU~!~((QR~~!!",
"//////~!/PhorL!!!!!///^////)/YLl6l////`/!^~!!Q~!V0eVU/^^!)/TT~~/",
"//(~///~AHpodT~^^^!///////__/YLd3j/~/(/^!/^^/!!~B0*kPP^^^/_~/PP/",
"dfluyq1777=o1Y!/^^^/////)__//RJk3h(//`Q/!/^/!~!EBd=rhjMBgssdsfff",
"lvllccMnnH2@1T~~/!^/^//)(_///EYf1g((((^^/!~!^^QQVs+=#->99wfsffjj",
"JWYYYYY((Jw$$T~/^/^^^^//)/!///En2y!(`/E/~!^/Q~QQPc#9jA~^^//`UJJJ",
"WQEE///(!/k%$H/^^^^^//`/Q//////M1dE~(Q^^^~/~~QQ!Gc%b/////^/(`P!!",
"))!(_/`)!/J2<H^^/^^^))/^//~/~//N1gR^Q!^^^/!~/QQQPh=L//^///^^`P))",
"!!/!(``/Q/~8>CR^^^~//(~~/////~/V9pR/~/(^//~!!^!/Ph6L///^/^//`R!^",
"ER!RQ!!E~~~i,ZU!!^/_/~^////^//~Z77I!!Q/_)//////!Pl6L/^^/^//^`R!!",
"!RRR~!R!Q~/06MLU^/)^^^^////^/!!V6rL!^QERE`(/^!~!Zhr^^/^/^^^/`PER",
"RYEP!~!RQQ~06MGUR!^^//////^^/^!P;rK!^!RETLL``(^RSrd//^//^))`!!UR",
"RRRR!!!!QEQ86vFPJP^^//!/^^^//^/P;rKY!//~RTCCF`)RS91/^^^/!!`)RPP!",
"!PRR^^!E~QT07bLUJPPR/!^/^^^!//!P*7mFFLT//PUvhjPAM1=/^/^^)`)!U!PR",
"!RR!^^^!~^Qy0MLPPPY!Y/~^~~^//^^L@Xfkgkhkcer99169r-@///^/)!P!!!!P",
"PR!!!^~~(~~a0MPP!RRPRY/^~^^^///P @o=-11r4799778;=X@///^`!!!^!!!R",
"P!!!!^^//!!i0STE!PR!YRY!^~^^~//M&,JjVBnBVBVBBBvjg;+/_)^`EE!!^/!P",
"R!^!!!)/!^!i0UURR!R!RYW!!^^^^((j@fPZAYPRR^PPYYYYP9-hV!)`^R!E^/!!",
"!R!^!)/!~^Us8UUE!R!RWRRR((~/((^k;ST/J^///////////h1CVSP!RR^^!^^R",
"^^^^)!E!!/Us>STERRRRWWRYQ/`_(~!h2cP/!Y^^^^^/^/^^~b8VSUPPR!^^!!!!",
"Q//()^~Q~~Us;NEUU!RR^^RYRQ!!QYPs1MR/!RE^/^^//^^/^v0VSRPP^^^^!!^!",
"QQQERQQ^//Uf=cIEEUE!!PPPPPUUPLFp1LT///!E//^////^^M0MVLPPP)^^^^!!",
"!QEE^Q^^//Uh:hCUUEUIGDAVSFGCZMn21L^//!_E^^/^//^//b6jBU!^!/!!!!!!",
"//^~E^~^/)Uj#9vVFBvvjjjjvjhhbh0&2P~!/!/!//^//^/^~c6M^!!!P/)!^!!!",
"QQQQ//(~///l+479sii0ardwrere9<1@3U^^!!!(!W^^/^///c7/^QQQTP_^^Q^E",
"QQ!QQ!/(~//h@.>1,6779awiapzs2;*#>L^^^!/!)_/^^/^~/j7QQQQQRP)^~~/Q",
"!!^Q!QE/((/g+xG!AABzdjajLPPYPDp@6PTRQEQWR~!_////~j8!!QQQ^R!/^^(Q",
"Q//^!!QQ//_k-L!Q^)^^JBBJJ^^^^Pd@9LTTR!WQWRYR_)~//j,!~~!/^T!)~/(Q",
"~/!!!~//~~~h9/~!^^^^JABYP//!/!l*rPRRRREWWYYPYE//~j7^^!^/!RR(/((Q",
"!//~//////~br///^^^/WPA!/////!l=6GTITTTRRTLFZH_/^c%!!^/^^!T!/(/T",
"~/!!^//^///Md///^^^^^YP/)/^!!!n*=rxGLMPJPLJBnzY_U>@!!^^^/~^QTRTQ",
"/!/!Q!/////m7///^^^^^RP)_///!!noO%%36pDDDJDJJJi2d#+)(`~/!)(!TTQ/",
"!!!!^^^////b4/^/^^^^^RP/`^^^^^b#>gvbpqqpwsdsiksi=$#sSFKPR(~TR~!~",
"!!!^^^^////ce^/^^//^!!R!)`^!^~j%yCSUDZZnzzzAzzzY^7$8jNKLDYPR//~!",
"R!^^^^/^///l7P///^^!RR!^((!(!/h:jL~^)/^YYLYY!!!^!F;7MLIITELT/^^!",
"!^^^^^^//^/11//^^^^!!RR/^/``)(a3GR/~!!!)_))(/!!!~!>6MSLPUTLQ///~",
"PP/!/!~~//K%q///^^^!R!!!(QWQ^!iaJY//!~Q!!!!/!!~^~~#2GGVDDSBPRTPP",
"pfhhjfds=$$+9///^RRPR^^!(TYRD!ieZ^///~~/!!!RR~~~~!o1VCGvnhhBvhha",
"hgvcnVJip71@d/(W!!RR!!/!)!RPRAaeZ~///~/~/!!/!///!!oo680sp0pdvbcc",
"PPPPPRjsVjd@4ZPRRR^^!!!!!^!RJV0eS^^/^/^/!/!!!!/~//&-ppaaMvSSSSLY"
};
