/* XPM */
static char *result[] = {
/* columns rows colors chars-per-pixel */
"64 64 7 1 ",
"  c #250E26",
". c #11735C",
"X c #24C630",
"o c #AAFB79",
"O c #87D8B0",
"+ c white",
"@ c None",
/* pixels */
"@@@@@@@@@@@@@@@@@@@@@@@@@@@@@@@@@@@@@@@@@@@@@@@@@@@@@@@@@@@@@@@@",
"@@@@@@@@@@@@@@@@@@@@@@@@@@@@@@@@@@@@@@@@@@@@@@@@@@@@@@@@@@@@@@@@",
"@@@@@@@@@@@@@@@@@@@@@@@@@@@@@@@@@@@@@@@@@@@@@@@@@@@@@@@@@@@@@@@@",
"@@@@@@@@@@@@@@@@@@@@@@@@@@@@@@@@@@@@@@@@@@@@@@@@@@@@@@@@@@@@@@@@",
"@@@@@@@@@@@@@@@@@@@@@@@@@@@@@@@@@@@@@@@@@@@@@@@@@@@@@@@@@@@@@@@@",
"@@@@@@@@@@@@@@@@@@@@@@@@@@@@@@@@@@@@@@@@@@@@@@@@@@@@@@@@@@@@@@@@",
"@@@@@@@@@@@@@@@@@@@@@@@@@@@@@@@@@@@@@@@@@@@@@@@@@@@@@@@@@@@@@@@@",
"@@@@@@@@@@@@@@@@@@@@@@@@@@@@@@@@@@@@@@@@@@@@@@@@@@@@@@@@@@@@@@@@",
"@@@@@@@@@@@@@@@@@@@@@@@@     @@@@@@@@@@@@@@@@@@@@@@@@@@@@@@@@@@@",
"@@@@@@@@@@@@@@@@@@@@@@  XX XX @@@@@@@@@@@@@@@@@@@@@@@@@@@@@@@@@@",
"@@@@@@@@@@@@@@@@@@@@@ XXX  X @@@@@@@@@@@@@@@@@@@@@@@@@@@@@@@@@@@",
"@@@@@@@@@@@@@@@@@@@@  XXXXX @@@@@@@@@@@@  @@@@@@@@@@@@@@@@@@@@@@",
"@@@@@@@@@@@@@@@@@@@@ XXX.. @@@@@@@@@@@@ XX  @@@@@@@@@@@@@@@@@@@@",
"@@@@@@@@@@@@@@@@@@@@ XXX.. @@@@@@@@@@@  ..XX   @@@@@@@@@@@@@@@@@",
"@@@@@@@@@@@@@@@@@@@@ ......    @@@@@@ .....XXXX @@@@@@@@@@@@@@@@",
"@@@@@@@@@@@@@@@@@@@@ .......... @@@@ ........XXX @@@@@@@@@@@@@@@",
"@@@@@@@@@@@@@@@@@@@@ .......... @@@@ ........  X @@@@@@@@@@@@@@@",
"@@@@@@@@@@@@@@@@@@@@ ........... @@@ ....    XX @@@@@@@@@@@@@@@@",
"@@@@@@@@@@@@@@@@@@@@@ .......XXX.    .... @@@  @@@@@@@@@@@@@@@@@",
"@@@@@@@@@@@@@@@@@@@@    ....XXXXXX O  ....  @@@@@@@@@@@@@@@@@@@@",
"@@@@@@@@@@@@@@@@@   OOOO ...XXXXXX OOO ..... @@@@@@@@@@@@@@@@@@@",
"@@@@@@@@@@@@@@@  OOOOOO ...XXXXXXX OOOO ..... @@@@@@@@@@@@@@@@@@",
"@@@@@@@@@@@@@  OOOO    ..XXXXXXXXX +OOOO .... @@@@@@@@@@@@@@@@@@",
"@@@@@@@@@@@@ OOO   .. ...XXXXXooXX +++OOO .. @@@@@@@@@@@@@@@@@@@",
"@@@@@@@@@@@ OO  ..... ...XXXXXooo +++++OOO . @@@@@@@@@@@@@@@@@@@",
"@@@@@@@@@@@ O ....... ..XXXXXoooo +++++OOOO  @@@@@@@@@@@@@@@@@@@",
"@@@@@@@@@@ O ...XXXX....XXXXXoooo  +++++OOO @@@@@@@@@@@@@@@@@@@@",
"@@@@@@@@@ O ..XXXXXXX.XXXXXooooo XX +++++OO @@@@@@@@@@@@@@@@@@@@",
"@@@@@@@@ . .XXXXXXX.XXXXXXXoooo XXX +    +OO @@@@@@@@@@@@@@@@@@@",
"@@@@@@@@ ....XXX..X.X.XXXXXXX  XXXXX .XXX +O   @ @@@@@@@@@@@@@@@",
"@@@@@@@@ ...XXX..   .X..XXXXXXXXXXXXXXX XX O .. X @@@@@@@@@@@@@@",
"@@@@@@@ ...XX.X  @@@   ..XX..XXXXXXXXX +  ++   XX @@@@@@@@@@@@@@",
"@@@@@@@ .XXX.X @@@@@@@@ .X.X.XX.XXXXXX +++++ @@  @@@@@@@@@@@@@@@",
"@@@@@@@ ..XX.. @@@@@@@@ ...X....XXXXXX +++++ @@@@@@@@@@@@@@@@@@@",
"@@@@@@@ ...XX @@@@@@@@@@ .X.....XXXXXXX ++++ @@@@@@@@@@@@@@@@@@@",
"@@@@@@@ .XXX. @@@@@@@@@@@  .X..X..XXXXXX +OO @@@@@@@@@@@@@@@@@@@",
"@@@@@@@ .XXX. @@@@@@@@@@@@@  ...X.X.XXXX OOOO @@@@@@@@@@@@@@@@@@",
"@@@@@@@ .XXX. @@@@@@@@@@@@@@@   .X..XXX OOOO         @@@@@@@@@@@",
"@@@@@@@ ...X. @@@@@@@@@@@@@@@@@@ ..XXX OO    ........ @@@@@@@@@@",
"@@@@@@@@ .XX. @@@@@@@@@@@@@@@@@@@ ..X..  ....XXXXXXXX. @@@@@@@@@",
"@@@@@@@@@ .X. @@@@@@@@@@@@@@@@@@@@ ... ..XXXXXXXXXXXXX. @@@@@@@@",
"@@@@@@@@@@ XX @@@@@@@@@@@@@@@@@@@@ .....XXXXXXX         @@@@@@@@",
"@@@@@@@@@@@ XX  @@@@@@@@@@@@@@@@@@ ....XXXXXX  .XXXXXXX. @@@@@@@",
"@@@@@@@@@@@@  X. @@@@@@@@@@@@@@@@@ ..XXXXX   .XXXXXXXXXX @@@@@@@",
"@@@@@@@@@@@@@@  @@@@@@@@@@@@@@@@@@ ..XXX  .XXXXXXXXXXXXX @@@@@@@",
"@@@@@@@@@@@@@@@@@@@@@@@@@@@@@@@@@@ .XXX .XXXXXXXXXXXX XX @@@@@@@",
"@@@@@@@@@@@@@@@@@@@@@@@@@@@@@@@@@@ .XXX XXXXXXXXXXXX  XX @@@@@@@",
"@@@@@@@@@@@@@@@@@@@@@@@@@@@@@@@@@@ .XXXXXX  XXXXXXXXXXXo @@@@@@@",
"@@@@@@@@@@@@@@@@@@@@@@@@@@@@@@@@@@@ .XXXX    XXXXXXoooo @@@@@@@@",
"@@@@@@@@@@@@@@@@@@@@@@@@@@@@@@@@@@@ .XXXX    XXXXoooooo @@@@@@@@",
"@@@@@@@@@@@@@@@@@@@@@@@@@@@@@@@@@@@ .XXXX ++ XXooooooo @@@@@@@@@",
"@@@@@@@@@@@@@@@@@@@@@@@@@@@@@@@@@@@@ .XXXX  Xooooo    @@@@@@@@@@",
"@@@@@@@@@@@@@@@@@@@@@@@@@@@@@@@@@@@@@ XXXXXXoooo  @@@@@@@@@@@@@@",
"@@@@@@@@@@@@@@@@@@@@@@@@@@@@@@@@@@@@@@  ooooooo @@@@@@@@@@@@@@@@",
"@@@@@@@@@@@@@@@@@@@@@@@@@@@@@@@@@@@@@@@@       @@@@@@@@@@@@@@@@@",
"@@@@@@@@@@@@@@@@@@@@@@@@@@@@@@@@@@@@@@@@@@@@@@@@@@@@@@@@@@@@@@@@",
"@@@@@@@@@@@@@@@@@@@@@@@@@@@@@@@@@@@@@@@@@@@@@@@@@@@@@@@@@@@@@@@@",
"@@@@@@@@@@@@@@@@@@@@@@@@@@@@@@@@@@@@@@@@@@@@@@@@@@@@@@@@@@@@@@@@",
"@@@@@@@@@@@@@@@@@@@@@@@@@@@@@@@@@@@@@@@@@@@@@@@@@@@@@@@@@@@@@@@@",
"@@@@@@@@@@@@@@@@@@@@@@@@@@@@@@@@@@@@@@@@@@@@@@@@@@@@@@@@@@@@@@@@",
"@@@@@@@@@@@@@@@@@@@@@@@@@@@@@@@@@@@@@@@@@@@@@@@@@@@@@@@@@@@@@@@@",
"@@@@@@@@@@@@@@@@@@@@@@@@@@@@@@@@@@@@@@@@@@@@@@@@@@@@@@@@@@@@@@@@",
"@@@@@@@@@@@@@@@@@@@@@@@@@@@@@@@@@@@@@@@@@@@@@@@@@@@@@@@@@@@@@@@@",
"@@@@@@@@@@@@@@@@@@@@@@@@@@@@@@@@@@@@@@@@@@@@@@@@@@@@@@@@@@@@@@@@"
};
