/* XPM */
static char *result[] = {
/* columns rows colors chars-per-pixel */
"64 64 142 2 ",
"   c #010101",
".  c #080604",
"X  c #050806",
"o  c #0C0A06",
"O  c #070708",
"+  c #070B09",
"@  c #0A0B0B",
"#  c #110D09",
"$  c #0C120F",
"%  c #15120E",
"&  c #1B150E",
"*  c #0F0F10",
"=  c #0E1312",
"-  c #131314",
";  c #191811",
":  c #161718",
">  c #171919",
",  c #1B1C1D",
"<  c #241D12",
"1  c #15231D",
"2  c #1B241E",
"3  c #1A281D",
"4  c #2B2216",
"5  c #20251B",
"6  c #2E2519",
"7  c #32271A",
"8  c #352A1C",
"9  c #392E1D",
"0  c #3C301E",
"q  c #1E1F20",
"w  c #172720",
"e  c #1D2422",
"r  c #192C24",
"t  c #1F342B",
"y  c #232324",
"u  c #292823",
"i  c #252A2A",
"p  c #2B2C2D",
"a  c #362F26",
"s  c #213325",
"d  c #243A2D",
"f  c #3F3120",
"g  c #33312A",
"h  c #2E2F30",
"j  c #2F3435",
"k  c #233A31",
"l  c #2B3C36",
"z  c #323435",
"x  c #363837",
"c  c #3C3A34",
"v  c #353639",
"b  c #34393A",
"n  c #393B3C",
"m  c #443523",
"M  c #443A23",
"N  c #493F25",
"B  c #4D3C28",
"V  c #503E29",
"C  c #2C4535",
"Z  c #2F4835",
"A  c #2C4139",
"S  c #2F4B39",
"D  c #314B37",
"F  c #31433C",
"G  c #344F3A",
"H  c #3A4B3F",
"J  c #34513C",
"K  c #4B4026",
"L  c #53422A",
"P  c #5A462E",
"I  c #5B482E",
"U  c #484339",
"Y  c #5D4830",
"T  c #644E33",
"R  c #675035",
"E  c #6A5236",
"W  c #6E5639",
"Q  c #705638",
"!  c #73593A",
"~  c #795E3E",
"^  c #3D3E41",
"/  c #364742",
"(  c #3D4143",
")  c #384943",
"_  c #395641",
"`  c #3A5941",
"'  c #424447",
"]  c #45474A",
"[  c #454C4C",
"{  c #494B4E",
"}  c #474F50",
"|  c #4C4E52",
" . c #465450",
".. c #4D5254",
"X. c #4E5658",
"o. c #4E5858",
"O. c #505356",
"+. c #525659",
"@. c #545A5C",
"#. c #42604B",
"$. c #496352",
"%. c #4C6A56",
"&. c #7D6140",
"*. c #545F60",
"=. c #5A5E61",
"-. c #576062",
";. c #5F6367",
":. c #5E6568",
">. c #5F6B6C",
",. c #5F766C",
"<. c #61666A",
"1. c #636A6D",
"2. c #627E6F",
"3. c #676E71",
"4. c #686F72",
"5. c #677275",
"6. c #6C7376",
"7. c #647D71",
"8. c #6B7679",
"9. c #6D7A7C",
"0. c #727B7E",
"q. c #6D817B",
"w. c #727E80",
"e. c #758384",
"r. c #768985",
"t. c #7A8789",
"y. c #7D8C8D",
"u. c #7F8E90",
"i. c #818F92",
"p. c #859396",
"a. c #869598",
"s. c #889799",
"d. c #8A9A9B",
"f. c #8E9EA1",
"g. c #92A2A4",
"h. c #95A6A8",
"j. c #95A9A9",
"k. c #99ACAE",
"l. c #9CAFB1",
"z. c #9EB2B3",
"x. c #A5BABB",
"c. c #ACC2C3",
/* pixels */
"I I I I I I I I I I I I I I I I I I I I I I I I I I I I P Y I I I I I I I I I I I I I I I I I I I I I I I I I I I I I I I I I I ",
"I I I I I I I I I I I I I I I I I I I I I I I I I I I I P P I I I I I I I I I I I I I I I I I I I I I I I I I I I I I I I I I I ",
"I I I I &.&.&.&.&.&.&.&.&.&.&.&.&.&.&.&.&.&.&.&.&.&.&.&.&.&.&.&.&.&.&.&.&.&.&.&.&.&.&.&.&.&.I I I I I I I &.&.&.&.&.&.&.&.&.9 9 ",
"I I I 9 &.&.&.&.&.&.&.&.&.&.&.&.&.&.&.&.&.&.&.&.&.&.~ I Y Y Y P Y Y Y Y Y Y P E &.&.&.&.&.&.&.I I I I I &.&.&.&.&.&.&.&.&.~ 9 9 ",
"I I &.&.&.&.&.&.&.&.&.&.&.&.&.&.&.&.&.&.&.&.&.&.~ ~ Y + X   O O O O O   X X   6 ~ &.&.&.&.~ ~ ~ I I I I ~ ~ ~ ~ ~ ~ ~ ~ ~ &.&.&.",
"I I &.&.&.&.&.&.&.&.&.&.&.&.&.&.&.&.&.&.&.&.&.&.9 & u 8.9.w.9.9.9.9.9.w.9.9.9.O.< ! &.&.~ ~ ~ ~ ~ I I I ~ ~ ~ ~ ~ ~ ~ ~ ~ ~ &.&.",
"I I &.&.&.&.&.&.&.&.&.&.&.&.&.&.&.&.&.&.&.&.~ &.4   , p.a.p.p.p.p.p.p.a.p.p.a.-.o ! &.&.&.&.&.&.&.&.I I &.&.&.&.&.&.&.&.&.&.&.&.",
"I I &.&.&.&.&.&.&.&.&.&.&.&.&.&.&.&.Q Q Q &.~ L c x } h.j.h.j.h.h.h.j.h.h.j.j.w.x N m T &.&.&.&.&.&.I I &.&.&.&.&.&.&.&.&.&.&.&.",
"I I Q &.&.&.&.&.&.&.&.&.&.&.&.&.&.&.! ! W &.! # =.a.f.c.c.c.c.c.c.c.c.c.c.c.c.l.0.*   < &.&.&.&.&.&.&.&.&.&.&.&.&.&.&.&.&.&.&.&.",
"I I Q Q Q &.&.&.&.&.&.&.&.&.&.&.&.&.P P Q Q ! # =.a.f.c.c.c.c.c.c.c.c.c.c.c.c.g.+.O   7 &.&.&.&.&.&.&.&.&.&.&.&.&.&.&.&.&.&.&.&.",
"N N K Q Q Q Q &.&.&.&.&.&.&.&.&.&.&.I I P I ! # =.a.g.c.c.c.c.c.c.c.c.c.c.c.c.g.+.O   4 &.&.&.&.&.&.&.&.&.&.&.&.&.&.&.&.&.&.&.&.",
"N N N N Q Q Q Q &.&.&.&.&.&.&.&.&.&.I I I I ! # | w.w.k.k.x.c.c.c.c.c.c.c.c.c.f.+.O   4 W &.&.&.&.&.&.&.&.&.&.&.&.&.&.&.&.&.&.&.",
"N N N N K K I I ~ ~ ~ ~ ~ ~ ~ ~ ~ ~ ~ ~ K N T o ^ =.3.t.t.f.h.h.h.h.h.h.h.h.h.i.{ O   < N N &.&.&.&.&.&.&.&.&.&.&.&.&.&.&.&.&.&.",
"N K N N K K I I ~ ~ ~ ~ ~ ~ ~ ~ ~ ~ ~ ~ K B T # ^ <.<.<.;.;.;.;.;.;.<.<.;.;.;.O.z X   < N N &.&.&.&.&.&.&.&.&.&.&.&.&.&.&.&.&.&.",
"I I I 9 &.&.&.&.&.&.&.&.&.&.&.&.&.&.&.&.N N M o ^ ;.=.<.;.;.;.;.;.=.<.=.;.;.;.+.z O   < N K &.&.&.&.&.&.&.&.&.&.&.&.&.&.&.&.&.0 ",
"I I I 9 &.&.V 6 6 6 6 6 m &.&.&.&.&.&.&.N N m O ^ ;.;.<.;.^ i i i ^ { { { { { ' z     9 N N &.&.&.&.&.&.&.&.&.&.&.&.&.&.&.~ 9 9 ",
"I I I I I I <   O b =   & P I I I I I I I I L o ^ <.=.=.=.y       : y y y y y y , .   4 I I I I I I I I I I I I I I I I I I I I ",
"I I I I I I <   - 5.i + ; N N L I I I I I I L o ^ <.<.<.] q @ O                       4 I I I Y I I I I I I I I I I I I I I I I ",
"~ &.&.&.&.&.7     X w k w   . B &.&.&.&.&.&.! # ^ <.<.<.' v ^ z X                     9 &.&.&.&.&.&.&.&.&.&.&.&.&.&.&.&.&.&.&.&.",
"&.&.&.&.&.&.7       r k r     B &.&.&.&.&.&.! # ^ =.<.=.] ^ v z X                     9 &.&.&.&.&.&.&.&.&.&.&.&.&.&.&.&.&.&.&.&.",
"~ ~ ~ ~ &.&.7       w k w     B &.Q W ! ! Q T o ^ <.=.<.^ ^ ^ j X                     9 ~ ~ ~ ~ ~ ~ ~ ~ ~ ~ ~ ~ ~ ~ ~ ~ ~ ~ ~ ~ ",
"~ ~ ~ ~ ~ &.N < < 4 3 w 1 $ $ f I Q W W I B m o ^ =.=.=.{ ^ ^ ^ : * - - - - - - @ X   9 ~ ~ ~ ~ ~ ~ ~ ~ ~ ~ ~ ~ ~ ~ ~ ~ ~ ~ ~ ~ ",
"&.&.&.~ ~ ~ ~ ~ ~ ~ 4 o = t d = < L M M 4 - #   ^ *...^ X.| B ^ ^ ^ ^ ^ ^ ^ ^ ^ v X   9 &.&.&.&.&.&.&.&.&.&.&.&.&.&.&.&.&.&.&.&.",
"&.&.&.&.~ ~ ~ ~ &.! E E B X X 1 1 o o X @.j.d.: O @ : ^ ^ | =.@.=.=.=.=.=.=.=.=.| O   9 &.&.&.&.&.&.&.&.&.&.&.&.&.&.&.&.&.&.&.&.",
"&.&.&.&.&.&.&.&.&.&.&.&.P     1 1       :.c.z.>     @ n n O.<.<.<.=.;.;.<.;.<.=.O.+   9 &.&.&.&.&.&.&.&.&.&.&.&.&.&.&.&.&.&.&.&.",
"&.&.&.&.&.&.&.&.&.&.&.&.E 8 8 2 2 p p i 3.l.h.*.,   X y x ] | O.O.O.O.O.| O.O.{ x 9 8 L &.&.&.&.&.&.&.&.&.&.&.&.&.&.&.&.&.&.&.&.",
"&.&.&.&.&.&.&.&.&.&.&.&.! T Y a ^ 3.3.3.w.y.i.z.(     : i h h h p p h h h h p < o ! &.&.&.&.&.&.&.&.&.&.&.&.&.&.&.&.&.&.&.&.&.&.",
"&.&.&.&.&.&.&.&.&.&.&.&.I     @.p.a.p.p.0.;.1.i.j   - ;.:       .               % ! &.~ &.&.&.&.&.&.&.&.&.&.&.&.&.&.&.&.&.&.&.&.",
"~ ~ ~ ~ ~ ~ ~ ~ ~ ~ 8 & g 5.5.( } a.a.a.p.t.e.j X.5.8.y.@.{ { { { { { | | } } { ' ; # 4 I &.&.&.&.&.&.&.I &.&.&.&.&.&.&.&.&.~ ~ ",
"~ ~ ~ ~ ~ ~ ~ ~ ~ ~ <   i a.p.b n a.a.a.a.a.t.- -.a.a.a.5.:.;.<.;.;.;.;.:.;.;.;.@.O   < I I &.&.&.&.&.&.I I &.&.&.&.&.&.~ ~ ~ ~ ",
"&.&.&.&.&.&.&.&.&.&.<   , :.:.c c :.:.:.0.a.t.-  .q.e.s.0.6.6.6.6.6.6.6.;.;.;.;.O.O   0 ~ ~ ~ ~ ~ ~ ~ ~ K K K K ~ ~ ~ ~ &.&.~ &.",
"&.&.&.&.&.&.&.&.&.&.4 o o o o L V o O o [ r.9.= d ` #.u.t.y.a.a.i.i.i.w.;.;.<.=.{ X   0 ~ ~ ~ ~ ~ ~ ~ ~ K K K K ~ ~ ~ ~ ~ &.&.&.",
"I I I I I I I I I I L V L V V P L L V L 6 - =   d ` ` #.2 @.a.u.$.#.#.o.:.:.:.( O     4 I I I I I I I I I I I I I I I I I I I I ",
"I I I I I I I I I I I I I I I I I I I P 4     s J ` ` J $  .a.y.#._ ` _ H / / i       4 I I I I I I I I I I I I I I I I I I I I ",
"I I I 0 &.&.&.&.&.&.&.N N N &.&.&.&.&.&.f   @ ,.%.J J s 2 [ 7.2.#.G S C k k k w     . 9 &.&.&.&.&.&.&.&.&.Q Q Q Q Q Q Q Q Q 9 9 ",
"I I I &.&.&.&.&.&.&.&.&.N N &.&.&.&.&.&.9   = j.q.#.Z   p H ` ` _ C k k k k k 1       9 &.&.&.&.&.&.&.&.Q Q Q Q Q Q Q Q Q W 9 9 ",
"I I &.&.&.&.&.&.&.&.&.&.I I &.&.&.&.&.&.9   - j.q.` Z X p H ` ` ` C k k t k k w       9 ~ ~ ! ~ ~ ~ ~ ~ W Q I I I N N K K M K K ",
"I I &.&.&.&.&.&.&.&.&.&.&.I &.&.&.&.&.&.9   @ t.d.j.q.X h ) ` J C k k r + + + r | } | z & & E ~ ~ ~ ~ ~ I I I I I N N K K K K K ",
"I I Q Q Q Q &.&.&.&.&.&.&.&.&.&.&.&.&.&.9   @ e.g.j.r.X h b C C k k d r       , | ;.;.z     E &.&.&.&.&.I I I I N N K M K K M K ",
"I I Q Q Q Q Q Q &.&.&.&.&.&.&.&.&.&.&.&.0   + :.t.s.e.j p l ) / k / / l       - ^ O.O.p   . T &.&.&.&.&.&.I I I N N K K M M K K ",
"I I N N N I W Q ~ ~ ~ ~ ~ ~ ~ ~ ~ ~ ~ ~ 9   X z 8.a.a.a.e b ;.=.k X.:.[       : n n n ,     T ~ ~ ~ &.&.&.&.&.&.&.&.&.&.&.&.&.&.",
"I I K N N I I I ~ ~ ~ ~ ~ ~ ~ ~ ~ ~ ~ ~ 9     z 8.a.a.a.e v ;.=.A X.;.[       : n n n q     T ~ ~ ~ &.&.&.&.&.&.&.&.&.&.&.&.&.&.",
"I I N N N N I I &.&.&.&.&.&.&.&.&.&.&.&.f   X z { O.:.p.e v ;.;.X.} ] b       + * - - ] t.e.g P &.&.&.&.&.&.&.&.&.&.&.&.&.&.&.&.",
"I I N N N K I &.&.&.&.&.&.&.&.&.&.&.&.&.9     z n n ' 1.> p | | | h q :       > ( j j 1.l.j.>.U M 0 &.&.&.&.&.&.&.&.&.&.&.&.&.&.",
"I I &.&.&.&.&.&.&.&.&.&.&.&.~ ~ ~ ~ ~ ~ 9     z n n n n # q n n n :           j i.<.;.0.a.a.x.} X   ~ ~ ~ ~ ~ ~ ~ ~ ~ &.&.&.&.&.",
"I I &.~ &.&.&.&.&.&.&.&.&.&.~ ~ ~ ~ ~ ~ f . O z n n n n - 2 n n v -           j i.1.<.0.a.a.x.[     ~ ~ ~ ~ ~ ~ ~ ~ ~ &.&.&.&.&.",
"I I I 9 &.&.&.&.&.&.&.&.&.&.&.&.&.&.&.&.! R T - O @ @ o d 2 @ @ @ 1 r w       j a.y.i.i.a.a.x.}     &.&.&.&.&.&.&.&.&.&.&.~ 9 9 ",
"I I I I &.&.&.&.&.&.&.&.&.&.&.&.&.&.&.&.~ &.! o         C 3       w k r       j a.a.a.a.a.s.x. .    &.&.&.&.&.&.&.&.&.&.&.~ 9 9 ",
"I I I I I I I I I I I I I I I I I I I I I I L 4 < < &   C d 2 ; = r k t = = = p :.i.a.a.a.a.x.[     I I I I I I I I I I I I I I ",
"I I I I I I I I I I I I I I I I I I I I I I I I L N m O C J D Z d k A A k k k 2 = 5.w.w.w.e.d.(     I I I P I I I I I I I I I I ",
"&.&.I I I N &.&.~ &.&.&.&.&.&.&.&.&.&.&.&.&.&.&.7 X @ n n , X     ( ;.O.n n n i   X + O + O O X     &.&.&.&.&.&.&.&.&.&.&.&.&.&.",
"&.&.I I N K &.&.&.&.&.&.&.&.&.&.&.&.&.&.&.&.&.&.4   o n n ,       ] :.@.n ^ ^ y                     &.&.&.&.&.&.&.&.&.&.&.&.&.&.",
"I I K K ~ ~ ~ ~ ~ ~ ~ ~ ~ ~ ~ ~ ~ ~ ~ ~ ~ ~ ~ ~ < . @ n 1.b       ( ;.=.| | | z . f f f m f f f 0 m &.&.&.&.&.&.&.&.&.&.&.&.&.&.",
"I I I K ~ ~ ~ ~ ~ ~ ~ ~ ~ ~ ~ ~ ~ ~ ~ ~ ~ ~ ~ ~ <   - =.s.[       n @.@.;.;.<.] 5 L P R &.&.&.&.&.~ &.&.&.&.&.&.&.&.&.&.&.&.&.&.",
"~ ~ I I K K &.&.&.&.&.&.&.&.&.&.&.&.&.&.&.&.&.&.7   i c.0.p     . i n ] ;.;.;.;.O.O   9 ~ ~ ~ ~ ~ ~ ~ ~ ~ ~ ~ ~ ~ ~ ~ ~ ~ ~ ~ ~ ",
"~ ~ I I K ~ &.&.&.&.&.&.&.&.&.&.&.&.&.&.&.&.&.&.4   y c.0.p       i n ' <.=.<.<.@.O   9 ~ ~ ~ ~ ~ ~ ~ ~ ~ ~ ~ ~ ~ ~ ~ ~ ~ ~ ~ ~ ",
"&.&.&.&.&.&.&.&.&.&.&.&.&.&.&.&.I I &.&.&.&.&.&.4   , t.3.p       i n ^ { ] { { ( X   9 &.&.&.&.&.&.&.&.&.&.&.&.&.&.&.&.&.&.&.&.",
"&.&.&.&.&.&.&.&.&.&.&.&.&.&.&.&.I I &.&.&.&.&.&.4   * O.O.y       : y y y y y y q     9 &.&.&.&.&.&.&.&.&.&.&.&.&.&.&.&.&.&.&.&.",
"&.&.&.&.~ ~ ~ ~ ~ ~ ~ ~ ~ ~ ~ ~ I I I ~ ~ ~ ~ ~ 4   @ n n ,                           9 &.&.&.&.I I &.&.&.&.&.&.&.&.&.&.I I I I ",
"&.&.&.~ ~ ~ ~ ~ ~ ~ ~ ~ ~ ~ ~ ~ I I I I ~ ~ ~ ~ 4   @ n n ,                           9 &.&.&.&.I I &.&.&.&.&.&.&.&.&.&.I I I I ",
"K K ~ ~ ~ &.&.&.&.&.&.&.&.&.&.&.N N I I &.&.&.&.4     * $ o   o 0 M Y Y I Y Y Y I P P E ~ ~ K K I I ~ ~ ~ ~ ~ ~ ~ ~ ~ ~ ~ I I I ",
"K K ~ ~ &.&.&.&.&.&.&.&.&.&.&.&.N N K N &.&.&.&.4             o L I &.&.&.&.&.&.&.&.~ ~ ~ ! K K I I ~ ~ ~ ~ ~ ~ ~ ~ ~ ~ ~ ~ I I ",
"N K &.&.&.&.&.&.&.&.&.&.&.&.&.&.N N N N &.&.&.&.&.&.&.&.&.&.~ 9 P I 9 ~ &.&.&.&.&.&.&.&.&.&.N K N N N N &.&.&.&.&.&.&.&.&.&.N K ",
"N K &.&.&.&.&.&.&.&.&.&.&.&.&.&.N N N N &.&.&.&.&.&.&.&.&.~ 0 9 I I 9 9 &.&.&.&.&.&.&.&.&.&.N N N K N N &.&.&.&.&.&.&.&.&.&.N N "
};
