/* XPM */
static char *result[] = {
/* columns rows colors chars-per-pixel */
"64 64 7 1 ",
"  c #250E26",
". c #11735C",
"X c #24C630",
"o c #AAFB79",
"O c #87D8B0",
"+ c white",
"@ c None",
/* pixels */
"@@@@@@@@@@@@@@@@@@@@@@@@@@@@@@@@@@@@@@@@@@@@@@@@@@@@@@@@@@@@@@@@",
"@@@@@@@@@@@@@@@@@@@@@@@@@@@@@@@@@@@@@@@@@@@@@@@@@@@@@@@@@@@@@@@@",
"@@@@@@@@@@@@@@@@@@@@@@@@@@@@@@@@@@@@@@@@@@@@@@@@@@@@@@@@@@@@@@@@",
"@@@@@@@@@@@@@@@@@@@@@@@@@@@@@@@@@@@@@@@@@@@@@@@@@@@@@@@@@@@@@@@@",
"@@@@@@@@@@@@@@@@@@@@@@@@@@@@@@@@@@@@@@@@@@@@@@@@@@@@@@@@@@@@@@@@",
"@@@@@@@@@@@@@@@@@@@@@@@@@@@@@@@@@@@@@@@@@@@@@@@@@@@@@@@@@@@@@@@@",
"@@@@@@@@@@@@@@@@@@@@@@@@@@@@@@@@@@@@@@@@@@@@@@@@@@@@@@@@@@@@@@@@",
"@@@@@@@@@@@@@@@@@@@@@@@@@@@@@@@@@@@@@@@@@@@@@@@@@@@@@@@@@@@@@@@@",
"@@@@@@@@@@@@@@@@@       @@@@@@@@@@@@@@@@@@@@@@@@@@@@@@@@@@@@@@@@",
"@@@@@@@@@@@@@@@@ ooooooo  @@@@@@@@@@@@@@@@@@@@@@@@@@@@@@@@@@@@@@",
"@@@@@@@@@@@@@@  ooooXXXXXX @@@@@@@@@@@@@@@@@@@@@@@@@@@@@@@@@@@@@",
"@@@@@@@@@@    oooooX  XXXX. @@@@@@@@@@@@@@@@@@@@@@@@@@@@@@@@@@@@",
"@@@@@@@@@ oooooooXX ++ XXXX. @@@@@@@@@@@@@@@@@@@@@@@@@@@@@@@@@@@",
"@@@@@@@@ ooooooXXXX    XXXX. @@@@@@@@@@@@@@@@@@@@@@@@@@@@@@@@@@@",
"@@@@@@@@ ooooXXXXXX    XXXX. @@@@@@@@@@@@@@@@@@@@@@@@@@@@@@@@@@@",
"@@@@@@@ oXXXXXXXXXXX  XXXXXX. @@@@@@@@@@@@@@@@@@@@@@@@@@@@@@@@@@",
"@@@@@@@ XX  XXXXXXXXXXXX XXX. @@@@@@@@@@@@@@@@@@@@@@@@@@@@@@@@@@",
"@@@@@@@ XX XXXXXXXXXXXX. XXX. @@@@@@@@@@@@@@@@@@@@@@@@@@@@@@@@@@",
"@@@@@@@ XXXXXXXXXXXXX.  XXX.. @@@@@@@@@@@@@@@@@@  @@@@@@@@@@@@@@",
"@@@@@@@ XXXXXXXXXX.   XXXXX.. @@@@@@@@@@@@@@@@@ .X  @@@@@@@@@@@@",
"@@@@@@@ .XXXXXXX.  XXXXXX.... @@@@@@@@@@@@@@@@@@  XX @@@@@@@@@@@",
"@@@@@@@@         XXXXXXX..... @@@@@@@@@@@@@@@@@@@@ XX @@@@@@@@@@",
"@@@@@@@@ .XXXXXXXXXXXXX.. ... @@@@@@@@@@@@@@@@@@@@ .X. @@@@@@@@@",
"@@@@@@@@@ .XXXXXXXX....  ..X.. @@@@@@@@@@@@@@@@@@@ .XX. @@@@@@@@",
"@@@@@@@@@@ ........    OO XXX.. @@@@@@@@@@@@@@@@@@ .X... @@@@@@@",
"@@@@@@@@@@@         OOOO XXX..X.   @@@@@@@@@@@@@@@ .XXX. @@@@@@@",
"@@@@@@@@@@@@@@@@@@ OOOO XXXX.X.X...  @@@@@@@@@@@@@ .XXX. @@@@@@@",
"@@@@@@@@@@@@@@@@@@@ OO+ XXXXXX..X..X.  @@@@@@@@@@@ .XXX. @@@@@@@",
"@@@@@@@@@@@@@@@@@@@ ++++ XXXXXXX.....X. @@@@@@@@@@ XX... @@@@@@@",
"@@@@@@@@@@@@@@@@@@@ +++++ XXXXXX....X... @@@@@@@@ ..XX.. @@@@@@@",
"@@@@@@@@@@@@@@@  @@ +++++ XXXXXX.XX.X.X. @@@@@@@@ X.XXX. @@@@@@@",
"@@@@@@@@@@@@@@ XX   ++  + XXXXXXXXX..XX..   @@@  X.XX... @@@@@@@",
"@@@@@@@@@@@@@@ X .. O XX XXXXXXXXXXXXXXX..X.   ..XXX... @@@@@@@@",
"@@@@@@@@@@@@@@@ @   O+ XXX. XXXXX  XXXXXXX.X.X..XXX.... @@@@@@@@",
"@@@@@@@@@@@@@@@@@@@ OO+    + XXX ooooXXXXXXX.XXXXXXX. . @@@@@@@@",
"@@@@@@@@@@@@@@@@@@@@ OO+++++ XX oooooXXXXX.XXXXXXX.. O @@@@@@@@@",
"@@@@@@@@@@@@@@@@@@@@ OOO+++++  ooooXXXXX....XXXX... O @@@@@@@@@@",
"@@@@@@@@@@@@@@@@@@@  OOOO+++++ ooooXXXXX.. ....... O @@@@@@@@@@@",
"@@@@@@@@@@@@@@@@@@@ . OOO+++++ oooXXXXX... .....  OO @@@@@@@@@@@",
"@@@@@@@@@@@@@@@@@@@ .. OOO+++ XXooXXXXX... ..   OOO @@@@@@@@@@@@",
"@@@@@@@@@@@@@@@@@@ .... OOOO+ XXXXXXXXX..    OOOO  @@@@@@@@@@@@@",
"@@@@@@@@@@@@@@@@@@ ..... OOOO XXXXXXX... OOOOOO  @@@@@@@@@@@@@@@",
"@@@@@@@@@@@@@@@@@@@ ..... OOO XXXXXX... OOOO   @@@@@@@@@@@@@@@@@",
"@@@@@@@@@@@@@@@@@@@@  ....  O XXXXXX....    @@@@@@@@@@@@@@@@@@@@",
"@@@@@@@@@@@@@@@@@  @@@ ....    .XXX....... @@@@@@@@@@@@@@@@@@@@@",
"@@@@@@@@@@@@@@@@ XX    .... @@@ ........... @@@@@@@@@@@@@@@@@@@@",
"@@@@@@@@@@@@@@@ X  ........ @@@@ .......... @@@@@@@@@@@@@@@@@@@@",
"@@@@@@@@@@@@@@@ XXX........ @@@@ .......... @@@@@@@@@@@@@@@@@@@@",
"@@@@@@@@@@@@@@@@ XXXX..... @@@@@@    ...... @@@@@@@@@@@@@@@@@@@@",
"@@@@@@@@@@@@@@@@@   XX..  @@@@@@@@@@@ ..XXX @@@@@@@@@@@@@@@@@@@@",
"@@@@@@@@@@@@@@@@@@@@  XX @@@@@@@@@@@@ ..XXX @@@@@@@@@@@@@@@@@@@@",
"@@@@@@@@@@@@@@@@@@@@@@  @@@@@@@@@@@@ XXXXX  @@@@@@@@@@@@@@@@@@@@",
"@@@@@@@@@@@@@@@@@@@@@@@@@@@@@@@@@@@ X  XXX @@@@@@@@@@@@@@@@@@@@@",
"@@@@@@@@@@@@@@@@@@@@@@@@@@@@@@@@@@ XX XX  @@@@@@@@@@@@@@@@@@@@@@",
"@@@@@@@@@@@@@@@@@@@@@@@@@@@@@@@@@@@     @@@@@@@@@@@@@@@@@@@@@@@@",
"@@@@@@@@@@@@@@@@@@@@@@@@@@@@@@@@@@@@@@@@@@@@@@@@@@@@@@@@@@@@@@@@",
"@@@@@@@@@@@@@@@@@@@@@@@@@@@@@@@@@@@@@@@@@@@@@@@@@@@@@@@@@@@@@@@@",
"@@@@@@@@@@@@@@@@@@@@@@@@@@@@@@@@@@@@@@@@@@@@@@@@@@@@@@@@@@@@@@@@",
"@@@@@@@@@@@@@@@@@@@@@@@@@@@@@@@@@@@@@@@@@@@@@@@@@@@@@@@@@@@@@@@@",
"@@@@@@@@@@@@@@@@@@@@@@@@@@@@@@@@@@@@@@@@@@@@@@@@@@@@@@@@@@@@@@@@",
"@@@@@@@@@@@@@@@@@@@@@@@@@@@@@@@@@@@@@@@@@@@@@@@@@@@@@@@@@@@@@@@@",
"@@@@@@@@@@@@@@@@@@@@@@@@@@@@@@@@@@@@@@@@@@@@@@@@@@@@@@@@@@@@@@@@",
"@@@@@@@@@@@@@@@@@@@@@@@@@@@@@@@@@@@@@@@@@@@@@@@@@@@@@@@@@@@@@@@@",
"@@@@@@@@@@@@@@@@@@@@@@@@@@@@@@@@@@@@@@@@@@@@@@@@@@@@@@@@@@@@@@@@"
};
