/* XPM */
static char *result[] = {
/* columns rows colors chars-per-pixel */
"64 64 142 2 ",
"   c #010101",
".  c #080604",
"X  c #060A07",
"o  c #0C0A06",
"O  c #060A09",
"+  c #0B0C0C",
"@  c #110E09",
"#  c #0C130E",
"$  c #15120D",
"%  c #19150D",
"&  c #0F0F10",
"*  c #0E1311",
"=  c #0F1915",
"-  c #131414",
";  c #191713",
":  c #141E17",
">  c #1F1810",
",  c #161718",
"<  c #141B19",
"1  c #191A1B",
"2  c #221B12",
"3  c #14231D",
"4  c #1A251B",
"5  c #252013",
"6  c #2B2216",
"7  c #25241A",
"8  c #2E2518",
"9  c #342B1A",
"0  c #392E1D",
"q  c #3D301F",
"w  c #1E1F20",
"e  c #172720",
"r  c #1D2322",
"t  c #172821",
"y  c #1C2D24",
"u  c #1D3128",
"i  c #232425",
"p  c #2D2E23",
"a  c #252728",
"s  c #262B2B",
"d  c #2A2C2D",
"f  c #332D24",
"g  c #233527",
"h  c #24332D",
"j  c #21382E",
"k  c #283D2D",
"l  c #3E3121",
"z  c #3A352E",
"x  c #2E3435",
"c  c #223A30",
"v  c #2C3B35",
"b  c #313435",
"n  c #3C3933",
"m  c #353638",
"M  c #353A3B",
"N  c #3A3B3D",
"B  c #443423",
"V  c #473825",
"C  c #493E25",
"Z  c #4D3C29",
"A  c #513F29",
"S  c #284133",
"D  c #2F4B39",
"F  c #31443D",
"G  c #3A433E",
"H  c #314E3B",
"J  c #34513D",
"K  c #4B4026",
"L  c #56422C",
"P  c #5A462E",
"I  c #5B482E",
"U  c #5D4830",
"Y  c #644E33",
"T  c #675035",
"R  c #6C5337",
"E  c #6F5639",
"W  c #705638",
"Q  c #735A3B",
"!  c #795E3E",
"~  c #7C603F",
"^  c #3C3E41",
"/  c #3C4042",
"(  c #394A45",
")  c #3D4E49",
"_  c #3A5442",
"`  c #3A5941",
"'  c #414346",
"]  c #454749",
"[  c #44494A",
"{  c #494B4E",
"}  c #474F50",
"|  c #4C4E51",
" . c #455250",
".. c #4C5354",
"X. c #455F50",
"o. c #4B5E52",
"O. c #4F5859",
"+. c #505356",
"@. c #535659",
"#. c #555A5D",
"$. c #4B6754",
"%. c #4F625D",
"&. c #526C5C",
"*. c #7D6140",
"=. c #5B5F62",
"-. c #576062",
";. c #5E6367",
":. c #5D6769",
">. c #5E696B",
",. c #597164",
"<. c #5C7468",
"1. c #616669",
"2. c #646B6E",
"3. c #666E71",
"4. c #686F72",
"5. c #677274",
"6. c #6A7276",
"7. c #6C7679",
"8. c #6D7A7C",
"9. c #717A7E",
"0. c #6D827B",
"q. c #6D887C",
"w. c #737D81",
"e. c #738382",
"r. c #798487",
"t. c #778987",
"y. c #7A8689",
"u. c #7C898C",
"i. c #7F8D90",
"p. c #808C8E",
"a. c #818E91",
"s. c #839194",
"d. c #869598",
"f. c #8A999B",
"g. c #91A3A5",
"h. c #94A6A8",
"j. c #96A8AA",
"k. c #99ABAD",
"l. c #A0B4B6",
"z. c #A3B8B9",
"x. c #A8BDBE",
"c. c #ACC2C3",
/* pixels */
"I I I I I I I I I I I I I I I I I I I I I I I I I I I I P P U I I I I I I I I I P I I I I I I I I I I I I I I I I I I I I I I I ",
"I I I I I I I I I I I I I I I I I I I I I I I I I I I I P U P U I I I I I I I I P U I I I I I I I I I I I P I I I I I I I I I I ",
"I I I I *.*.*.*.*.*.*.*.*.*.*.*.*.*.*.*.*.*.*.*.*.*.*.*.~ *.~ ! *.*.*.*.*.*.*.*.*.*.*.*.*.*.I I I I I I P *.*.*.*.*.*.*.*.*.0 0 ",
"I I I 0 *.*.*.*.*.*.*.*.*.*.*.*.*.*.*.*.*.*.*.*.*.W U U U U U P U U U U U U E *.*.*.*.*.*.*.*.I I I I I *.*.*.*.*.*.*.*.*.*.0 0 ",
"I I *.*.*.*.*.*.*.*.*.*.*.*.*.*.*.*.*.*.*.*.*.*.! V   X . X O O O O X     X V ~ *.*.*.*.~ ~ ~ ~ I I I I ~ ~ Q ~ Q *.*.Q ~ *.*.*.",
"I I *.*.*.*.*.*.*.*.*.*.*.*.*.*.*.*.*.*.*.*.*.*.q N 8.8.8.8.8.8.7.8.8.8.8.8.N l *.*.*.*.~ Q ~ ~ ~ I I I Q ~ ~ ~ *.Q ~ ~ Q ~ *.*.",
"I I *.*.*.*.*.*.*.*.*.*.*.*.*.*.*.*.*.*.*.*.~ ~ 8 / d.d.d.d.d.d.d.d.d.d.d.d.^ 6 ! ! *.*.~ ~ *.*.*.*.P I *.*.*.*.*.*.*.*.*.*.*.*.",
"I I *.*.*.*.*.*.*.*.*.*.*.*.*.*.*.*.W W W W Z Z n :.h.h.g.h.h.h.h.g.h.h.h.h.:.n C C U *.*.*.*.*.*.*.P P *.*.*.*.*.*.*.*.*.*.*.*.",
"I I W ~ *.*.*.*.*.*.*.*.*.*.*.*.*.*.E E E L     =.j.c.c.c.c.c.c.c.c.c.c.c.c.h.@.    B I *.*.*.*.*.*.*.*.*.*.*.*.*.*.*.*.*.*.*.*.",
"I I W W W *.*.*.*.*.*.*.*.*.*.*.*.*.I I W C     =.j.c.c.c.c.c.c.c.c.c.c.c.c.a.'     q I *.*.*.*.*.*.*.*.*.*.*.*.*.*.*.*.*.*.*.*.",
"C K C W W W W *.*.*.*.*.*.*.*.*.*.*.I I I q     -.j.c.c.c.c.c.c.c.c.c.c.c.c.p./     l P ~ ~ *.*.*.*.*.*.*.*.*.*.*.*.*.*.*.*.*.*.",
"C C C C W W W P l q l 0 B B Q *.*.*.I I I B     ..i.k.k.x.c.c.c.c.c.z.h.s.s.3.b     l I E *.*.*.*.*.*.*.*.*.*.*.*.*.*.*.*.*.*.*.",
"K K C K K K I 0     w -   . Y ! ! ! ! ! K 9     / 6.y.y.k.l.l.l.j.j.f.w.@.@.] i     9 K K K ~ *.*.*.*.*.*.*.*.*.*.*.*.*.*.*.*.*.",
"C C C C K K I 0     :.'   X Y ! ! ! ! ! K 9     ^ ;.=.=.y.a.d.i.1.=.;.@.m m N a     9 C K C ~ ~ *.*.*.*.*.*.*.*.*.*.*.*.*.*.*.*.",
"I I I 0 *.*.~ Z     * e u u $ L *.*.*.*.C 9     ^ ^ & & +.3.3.1.] ' / b + + a i     L C C C ~ ~ *.*.*.*.*.*.*.*.*.*.*.*.~ ~ *.p ",
"I I I 0 *.*.~ Z       < c u O Z *.*.*.*.K 9     / M     | ;.;.=.^ ^ ^ d     i i     L *.K C ~ ~ *.*.*.*.*.*.*.*.*.*.~ ~ ~ ~ 0 0 ",
"I I I I I I I C 2 2 6 4 4 < = 7 9 l I I V 2     ^ ^     d ^ N M a i i 1     i a     l I I I I U I I I I I I I I I I I I I I I I ",
"I I I I I I I I I I I 9 @ @ t = O $ V Z f <     ^ ' - &               . + o i a     l I I I I P I I I I I I I I I I I I I I I I ",
"~ ~ ~ *.*.*.~ *.*.*.*.! ~ Q $ 3 j y .   -.e.    ' =.=.=.,             + N m N i     L *.*.*.*.*.*.*.*.*.*.*.*.*.*.*.*.*.*.*.*.*.",
"~ ~ ~ *.*.*.*.*.*.*.*.*.*.Q @ e c u     :.y.    ^ =.1.1.,             + N N N a     L *.*.*.*.*.*.*.*.*.*.*.*.*.*.*.*.*.*.*.*.*.",
"! ! ! ! *.*.*.*.*.*.*.*.*.! C 7 < < b b 5.7.    ^ 4.w.w.' b b b i w w d | ..' i     L ~ ! ! ! ! ~ ~ ~ Q ~ ~ ~ ~ ! ! ! ! Q *.~ Q ",
"! ! ! ! ~ ~ *.*.*.*.*.*.*.~ U z d M 5.6.9.2.d d ^ -.y.y.9.6.4.4.{ ' ] { @.#.^ i 2 2 U ! ! ~ ! ! ~ ~ ~ ~ ~ Q Q ~ ! ! ! ! *.Q ! *.",
"*.*.*.! ! ! ! ! ! ! ! Q E T ; O.u.u.d.d.w.5.u.u.b d =.#.r.a.p.u.1.=.=.@.b m 1 8 Q Q ~ *.*.*.*.*.~ ~ *.*.*.*.*.*.*.*.*.*.*.*.*.*.",
"*.*.*.*.! ! ! ! ! ! ! B @ - 3.N - d a.d.s.>.- = ^ m + + @.@.] ' ' ^ ' b . . i a o @ U *.*.*.*.*.~ ~ *.*.*.*.*.*.*.*.*.*.*.*.*.*.",
"*.*.*.*.*.*.*.*.*.*.*.l   O w.M   1 s.d.d.>.    / M     { | N N N N N d     i i     L ~ *.*.*.*.*.*.*.*.*.*.*.*.*.*.*.*.*.*.*.*.",
"*.*.*.*.*.*.*.*.*.*.*.q   . ' n 9 z ......| / G :.@.d s m d i i w i i w 1 1 m / d d l Z L *.*.*.*.*.*.*.*.*.*.*.*.*.*.*.*.*.*.*.",
"*.*.*.*.*.*.*.*.*.*.*.C % % $ L ! T % % o d d.d.d.r.3.3.a - - - - - - 1 ' / @.=.#.#.1   > *.*.*.*.*.*.*.*.*.*.*.*.*.*.*.*.*.*.*.",
"*.*.*.*.*.*.*.*.*.*.*.~ ~ ~ ! ! ! ! ! ! 0 g d.s.d.d.d.d.3.;.;.;.1.=.1.1.;.1.1.@.N N -   > *.*.*.*.*.*.*.*.*.*.*.*.*.*.*.*.*.*.*.",
"! ! ! ! ! ! ! ! ! ! ! ! ! ! ! *.~ *.*.*.0 d f.f.d.d.d.d.4.1.1.1.1.;.;.;.1.;.;.+.N N -   $ *.*.*.*.*.*.*.I *.*.*.*.*.*.*.*.*.! ! ",
"! ! ! ! ! ! ! ! ! ! ! ! ! ! *.*.*.E 0 0 p F <.<.y.d.d.d.r.w.w.e.w.w.w.9.;.;.@.' v v y 3 4 7 E *.*.*.*.*.I I *.*.*.*.*.*.! ! ! ! ",
"*.*.*.*.*.*.*.*.*.*.*.*.*.*.*.*.*.T     y J X.` o.8.d.d.d.u.0.0.9.0.0.w.1.;.' s c c c c y   Y Q ! ! ! ! K K K K ! ! ! ! *.*.! *.",
"*.*.*.*.*.*.*.*.*.*.*.*.*.*.*.*.*.T     g J J ` : ^ d.d.a.,.J ` ` J o.1.=.1.s - c c c c y   Y ! ! ! ! ! K K K K ! ! ! ! ! *.*.*.",
"I I I I I I I I I I I I I I I I I Z     y ` ` ` = / d.d.&.` ` ` ` ` o.1.;.;.d & c c c c t   C P U P U P I I I I I I I I I I I I ",
"I I I I I I I I I I I I I I I I I C     y ` ` ` 3 / d.d.$.` ` ` ` ` ` o.;.1.s * c c c c t O C U U P I P I I I I I I I I I I I I ",
"I I I q *.*.*.*.~ *.*.K C C *.*.*.T .   y $.q.q.h N d.d.$.` ` ` H H H _ ;.;.d r %.%.( c y   T *.*.*.*.*.~ E E E W W W W W W 0 0 ",
"I I I *.*.*.*.*.*.*.*.~ C K *.*.~ T     k q.z.z./ N u.u.X._ J H c c k F 1.;.a x u.u.O.) v   T *.*.*.*.*.W W E E W W W W W W 0 0 ",
"I I ~ ~ ~ *.*.*.*.*.*.*.I I *.*.~ T     :.l.s.d.v d ;.;.F c c c c c c S ;.=.d i 1.;.y.d.3.  Y ! *.~ Q *.R R I I I C C C K K K K ",
"I I *.~ ~ ~ *.*.*.*.*.*.*.P *.*.*.T     :.l.d.d.x s ;.;.F c c c c c c ( ;.1.d i ;.;.y.d.5.  Y ~ *.Q ~ *.I U I I I C C C K K C K ",
"I I Q E W W *.~ *.*.*.*.*.*.~ ! *.Y .   O.g.d.d.x d ;.;... .( c c c / ..1.=.d w ;.;.6.8.#.  T *.*.*.*.*.I I I I C C C C C C C C ",
"I I W W W W Q W *.*.*.*.*.*.*.Y A C b b :.u.7.7.a i @.@.=.:...c c c ) =.@.@.i w @.@.=.;.+.i V A U *.*.*.*.I I I C C C C C C C C ",
"I I C K C I E R ! ! ! ! ! ! ! 8   1 s.d.d.8.N N , 1 N N #.1...c c c ) =.N N 1 , N N @.1.;.=.-   7 ~ *.*.*.*.~ ~ ~ ~ *.*.*.*.*.*.",
"I I C K C I I I ! ! ! ! ! ! ! 8   1 i.d.d.8.N N - 1 N N @.;...k c c ) O.N N 1 - N N @.1.;.=.-   6 ~ *.*.*.*.~ ~ ~ ~ ~ ~ *.*.*.*.",
"I I C C K K I I *.*.*.*.*.*.*.8   1 s.d.6.| N N , 1 N N #.1.=...O.O.=.@.N N 1 - N N ' ] | =.-   o 9 ~ *.*.*.~ ~ ~ ~ ~ ~ *.*.*.*.",
"I I C K K K I ~ *.*.*.*.*.*.*.8   - :.2...N N N - + i 4 ' | | +.| | +./ w w + - N N N N ^ | &   r ..V l l *.~ ~ ~ ~ ~ ~ *.*.*.*.",
"I I ~ ~ ~ ~ ~ ~ *.*.*.*.*.*.! B 2 2 d d d d d d * X = - a d d d d d d i + + X # d d d d d d a y -.g.+     ~ ~ ~ ! ~ ~ *.*.*.*.*.",
"I I *.~ ~ ~ ~ ~ *.*.*.*.*.*.! ! ! Y               4 J ` #             + c c =             . 8.d.h.g.+     ~ ~ ~ ! ~ ~ *.*.*.*.*.",
"I I I q *.*.~ ~ *.*.*.*.*.*.*.*.*.Y               4 ` ` #             + c c =             . 8.d.h.g.+   X ~ *.*.~ ~ *.*.*.~ 0 0 ",
"I I I I *.*.*.*.*.*.*.*.*.*.*.*.*.Q Z Z V Z V V % 4 ` ` k g y t 3 3 3 t c c = % 8 8 $   - #.u.d.h.g.+   X *.*.*.~ ~ *.*.*.~ 0 0 ",
"I I I I I I I I I I I I I I I I I I I I I I I I 2 4 ` ` J H c 4 e e y c S j - > I I 9 2 p =.#.#.:.:..     I I I I I I I I I I I ",
"I I I I I I I I I I I I I I I I I I I I I I I I > 4 ` ` S c t       = c u j = > I I I I B                 I I I I I I I I I I I ",
"*.*.I I I C ~ ~ ~ ~ ~ *.*.*.*.*.*.*.*.*.*.~ *.*.6 4 ` ` S c 3       = c S c - 8 *.*.*.*.U                 *.*.*.*.*.*.*.*.*.*.*.",
"*.*.I I C C ~ ~ ~ ~ *.*.*.*.*.*.*.*.*.*.*.Y 2 2 i b G G : # O       X < M v b i 2 2 U *.Q I I P I L I I I *.*.*.*.*.*.*.*.*.*.*.",
"I I K K ~ ~ ~ ~ ~ ~ ~ ~ ~ ~ ~ ~ ! ! ! ! ! L     a ' { | -   o 5 8 8 2 - | | ' a     L *.*.*.*.*.~ *.*.*.*.*.*.*.*.*.*.*.*.*.*.*.",
"I I I K Q ~ Q ~ W ~ ~ ~ ~ ~ ~ Q ! ! ! ! ! L     d +.;.;.,   % C I I B - ;.;.+.d     L *.*.*.*.*.*.*.*.*.*.*.*.*.*.*.*.*.*.*.*.*.",
"~ ~ P I K G ~ ~ ~ ~ ~ ~ ~ ~ ~ ~ *.*.*.*.! L     / 1.1.1.,   % C I I B , ;.1.;./     L ! ! ! ! ! ! ! ! ! ! ! ! ! ! ! ! ! ! ! ! ! ",
"~ ~ I I K ~ ~ ~ ~ ~ ~ ~ ~ ~ ~ ~ *.*.*.*.*.L     / 1.;.;.,   % C I I B , ;.;.1.^     L ! ! ! ! ! ! ! ! ! ! ! ! ! ! ! ! ! ! ! ! ! ",
"*.*.*.*.*.*.*.*.~ ~ ~ ~ ~ *.*.*.I I ~ *.L p N ^ @.@.{ { -   2 *.I I 6 - [ { @.@.N ^ f 8 B ~ *.*.*.*.*.*.*.*.*.*.*.*.*.*.*.*.*.*.",
"*.*.*.*.*.*.*.*.~ ~ ~ ~ ~ ~ *.*.I I ~ *.q 1 +.+.+.{ N N +   6 *.I I 6 + N N { +.+...1   2 *.*.*.*.*.*.*.*.*.*.*.*.*.*.*.*.*.*.*.",
"*.*.*.*.*.! ~ Q ~ ~ ~ ~ Q ~ ~ ~ I I P ~ 9 - M N N N N N +   6 *.I I 6 + N N N N N N -   % *.*.*.I I *.*.*.*.*.*.*.*.*.*.I I I I ",
"*.*.*.! ! ! *.Q ~ ~ ~ Q ~ ~ Q ~ I P P P q - N N N N N N +   5 *.I I 6 # N N N N N N -   2 ~ *.*.I I *.*.*.*.*.*.*.*.*.*.I I I I ",
"K K ! ! ~ ~ *.*.*.*.*.*.*.*.*.*.C K I P 0 . & & & & & &     6 *.I I V   + - + @ # -     % ~ K K I I ! ! ! ! ! ! ! ! ! ! ! I I I ",
"K K ! ! *.*.*.*.*.*.*.*.*.*.*.*.C K C K 0                   6 *.I I V                   > Q K K I I ! ! ! ! ! ! ! ! ! ! ! ! I I ",
"C C *.*.*.*.*.*.*.*.*.*.*.*.*.*.K C C C ~ *.*.*.*.*.*.*.*.*.*.q I I q *.*.*.*.*.*.*.*.*.~ *.C C C C K C *.*.*.*.*.*.*.*.*.*.C C ",
"C G *.*.*.*.*.*.*.*.*.*.*.*.*.*.C C C C *.*.*.*.*.*.*.*.*.*.0 9 I I 9 0 *.*.*.*.*.*.*.*.*.*.K C K K C K *.*.*.*.*.*.*.*.*.~ C C "
};
