/* XPM */
static char *result[] = {
/* columns rows colors chars-per-pixel */
"64 64 156 2 ",
"   c #010101",
".  c #080604",
"X  c #050806",
"o  c #0D0A06",
"O  c #070A09",
"+  c #0B0C0C",
"@  c #100C07",
"#  c #120E09",
"$  c #0B120E",
"%  c #15120C",
"&  c #19150D",
"*  c #1E190F",
"=  c #0F0F10",
"-  c #0E1713",
";  c #0F1914",
":  c #131414",
">  c #181716",
",  c #121B15",
"<  c #1D1A12",
"1  c #161718",
"2  c #161A19",
"3  c #1A1B1C",
"4  c #211A11",
"5  c #201D18",
"6  c #15231D",
"7  c #1A251D",
"8  c #252013",
"9  c #2A2216",
"0  c #26231A",
"q  c #2C2519",
"w  c #2D291D",
"e  c #312619",
"r  c #342B1B",
"t  c #382E1C",
"y  c #3D301F",
"u  c #1C1F20",
"i  c #1D2322",
"p  c #1B2D26",
"a  c #1E3126",
"s  c #1E3229",
"d  c #232425",
"f  c #2A2721",
"g  c #252A27",
"h  c #2C2B26",
"j  c #262728",
"k  c #252A2A",
"l  c #2A2C2D",
"z  c #332C24",
"x  c #233527",
"c  c #25342A",
"v  c #21382E",
"b  c #283A2C",
"n  c #3F3220",
"m  c #3B3228",
"M  c #2E2F30",
"N  c #2D3132",
"B  c #223A30",
"V  c #2E3E39",
"C  c #323436",
"Z  c #3B3B37",
"A  c #353739",
"S  c #34393A",
"D  c #3A3B3D",
"F  c #433423",
"G  c #443923",
"H  c #493E25",
"J  c #443A2C",
"K  c #4E3C28",
"L  c #563F26",
"P  c #513F2A",
"I  c #2C4534",
"U  c #2F4936",
"Y  c #2F433C",
"T  c #2E4938",
"R  c #3F413D",
"E  c #324F3B",
"W  c #35533E",
"Q  c #4B4026",
"!  c #55422C",
"~  c #5B452D",
"^  c #5B482E",
"/  c #484033",
"(  c #41423E",
")  c #5A4730",
"_  c #5F4930",
"`  c #63492C",
"'  c #644E33",
"]  c #6C5436",
"[  c #6F5639",
"{  c #725C36",
"}  c #705638",
"|  c #745A3B",
" . c #795E3E",
".. c #796039",
"X. c #3C3E41",
"o. c #3C4143",
"O. c #3C4B47",
"+. c #3E4D49",
"@. c #385640",
"#. c #3A5941",
"$. c #414346",
"%. c #434749",
"&. c #44494B",
"*. c #494C4D",
"=. c #425D49",
"-. c #4B4E51",
";. c #4B5355",
":. c #4D5D55",
">. c #515456",
",. c #525659",
"<. c #555A5D",
"1. c #44624C",
"2. c #546C5F",
"3. c #7D6140",
"4. c #555E60",
"5. c #5B5F62",
"6. c #576062",
"7. c #5F6367",
"8. c #5E6669",
"9. c #5E696A",
"0. c #5B7767",
"q. c #61666A",
"w. c #636B6E",
"e. c #61746E",
"r. c #666E71",
"t. c #686F73",
"y. c #677275",
"u. c #6B7276",
"i. c #6E767A",
"p. c #6E7A7C",
"a. c #71797D",
"s. c #836B3F",
"d. c #6D817B",
"f. c #737E81",
"g. c #748183",
"h. c #788387",
"j. c #7B868A",
"k. c #7C8A8D",
"l. c #7C968C",
"z. c #818E92",
"x. c #849295",
"c. c #869598",
"v. c #869F98",
"b. c #8A9A9C",
"n. c #8D9EA0",
"m. c #8EA0A2",
"M. c #92A3A5",
"N. c #95A6A8",
"B. c #96A8AA",
"V. c #99ADAE",
"C. c #9BAEB0",
"Z. c #9EB3B4",
"A. c #A1B5B7",
"S. c #A4B9BA",
"D. c #A9BEBF",
"F. c #ACC2C3",
/* pixels */
"^ ^ ^ ^ ^ ^ ^ ^ ^ ^ ^ ^ ^ ^ ^ ^ ^ ^ ^ ^ ^ ^ ^ ^ ^ ^ ^ ^ ^ ^ ^ ^ ^ ^ ^ ^ ^ ^ ^ ^ ) ^ ^ ^ ^ ^ ^ ^ ^ ^ ^ ^ ^ ^ ^ ^ ^ ^ ^ ^ ^ ^ ^ ^ ",
"^ ^ ^ ^ ^ ^ ^ ^ ^ ^ ^ ^ ^ ^ ^ ^ ^ ^ ^ ^ ^ ^ ^ ^ ^ ^ ^ ^ ^ ^ ^ ^ ^ ^ ^ ^ ^ ^ ^ ^ ) ) ^ ^ ^ ^ ^ ^ ^ ^ ^ ^ ^ ) ^ ^ ^ ^ ^ ^ ^ ^ ^ ^ ",
"^ ^ ^ ^ 3.3.3.3.3.3.3.3.3.3.3.3.3.3.3.3.3.3.3.3.3.3.3.3.3.3.3.3.3.3.3.3.3.3.3.3.3.3.3.3.3.3.^ ^ ^ ^ ^ ^ ) 3.3.3.3.3.3.3.3.3.y t ",
"^ ^ ^ t 3.3.3.3.3.3.3.3.3.3.3.3.3.3.3.3.3.3.3.3.3.3.3.3.3.3.3.3.3.3.3.3.3.3.3.3.3.3.3.3.3.3.3.^ ^ ^ ^ ^ 3.3.3.3.3.3.3.3.3...t t ",
"^ ^ 3.3.3.3.3.3.3.3.3.3.3.3.3.3.3.3.3.3.3.3.3.3.3.3.3.3.3.3.3.3.3.3.3.3.3.3.3.3.3.3.3.3.3. . . .^ ^ ^ ^ ..3. . . . . . .3.3.3.3.",
"^ ^ 3.3.3.3.3.3.3.3.3.3.3.3.3.3.3.3.3.3.3.3.3.3.3.3.3.3.3.3.3.3.3.3.3.3.3.3.3.3.3.3.3.3. . . .....^ ^ ^  . . . . . . . . . .3.3.",
"^ ^ 3.3.3.3.3.3.3.3.3.3.3.3.3.3.3.3.3.3.3.3.3.3.3. .] e e e e e e e e e e q ^ |  . .3.3.3.3.3.3.3.3.) ^ 3.3.3.3.3.3.3.3.3.3.3.3.",
"^ ^ 3.3.3.3.3.3.3.3.3.3.3.3.3.3.3.3.} } } 3.3.3.^ K J C C S S S S C S S C S J _  . .] 3.3.3.3.3.3.3.) ^ 3.3.3.3.3.3.3.3.3.3.3.3.",
"^ ^ } ..3.3.3.3.3.3.3.3.3.3.3.3.3.3.} } } 3.3.3.q   u x.c.c.c.c.c.c.c.c.c.c.X.q  .3._ _ 3.3.3.3.3.3.3.3.3.3.3.3.3.3.3.3.3.3.3.3.",
"^ _ } [ } 3.3.3.3.3.3.3.3.3.3.3.3.3.^ ^ } } 3.3.5   u x.c.c.c.c.c.c.c.c.c.c.X.q  .3.^ ^ 3.3.3.3.3.3.3.3.3.3.3.3.3.3.3.3.3.3.3.3.",
"Q H H [ } } } 3.3.3.3.3.3.3.3.3.3.3.^ ^ ^ ^ | e -.w.i.A.A.A.A.A.A.A.A.A.A.A.k.*.4 4 F ^ 3.3.3.3.3.3.3.3.3.3.3.3.3.3.3.3.3.3.3.3.",
"H Q Q H } } } } 3.3.3.3.3.3.3.3.3.3.^ ^ ^ ^ | # 6.c.n.F.F.F.F.F.F.F.F.F.F.F.b.-.    n ^ ] 3.3.3.3.3.3.3.3.3.3.3.3.3.3.3.3.3.3.3.",
"H Q H Q Q Q ^ ^  . . . . . . . . . . . .H H ' @ ,.j.z.A.A.A.A.A.A.A.A.C.B.B.i.D     r Q Q Q 3.3.3.3.3.3.3.3.3.3.3.3.3.3.3.3.3.3.",
"Q H Q G Q Q ^ ^  . . . . . . . . . . . .Q H ' @ $.q.r.c.c.c.c.c.c.c.c.k.7.q.*.j     r H G Q 3.3.3.3.3.3.3.3.3.3.3.3.3.3.3.3.3.3.",
"^ ^ ^ t 3.3.3.3.3.3.3.3.3.3.3.3.3.3.3.3.H Q G O J 7.r.c.c.c.c.c.c.c.c.k.7.7.*.j     ! H Q Q ..3.3.3.3.3.3.3.3.3.3.3.3.3.3.3.3.t ",
"^ ^ ^ t 3.3.3.3.3.3.3.3.3.3.3.3.3.3.3.3.H H G + X.q.q.i.i.i.i.i.p.p.r.,.*.*.$.d     ! 3.Q Q 3.3.3.3.3.3.3.3.3.3.3.3.3.3.3.3.t t ",
"^ ^ ^ ^ ^ ^ ^ ^ ) ^ ^ ^ ^ ^ ^ ^ ^ ^ ^ ^ ^ ^ ! o X.q.7.7.7.7.7.7.,.>.*.D D D D j     F ^ ^ ^ ^ ^ ^ ) ^ ^ ^ ^ ^ ^ ^ ^ _ ) ^ ^ ^ ^ ",
"^ ^ ^ ) ^ ^ ^ ^ ) ) ^ ^ ^ ^ ^ ^ ^ ^ ^ ^ ^ ^ ! o X.q.7.7.7.7.7.5.X.D D D D D D d     n ^ ^ ^ ^ ! H H K H H H ^ ^ ^ ^ ) ` ^ ^ ^ ^ ",
"..3.3.3.3.3.3.3.3.3.3.3.3.3.3.3.3.3.3.3.3.3.{ + $.5.7.7.7.7.7.7.$.D D D D D D j     ! 3.3.3.3.r .       .   3.3. .3.3.3.3.3.3.3.",
"3.3.3.3.3.3.3.3.3.3.3.3.3.3.3.3.3.3.3.3.3...| # X.7.7.q.7.7.7.5.X.D D D D D D j     ! 3.3.3.3.e             3.3. .3.3.3.3.3.3.3.",
" . . . .3.3.3.3.3.3.3.3.3.3.3.3...} } } } } ' # $.5.q.7.q.5.q.5.X.D D D D D D d     ! | .. . .e   + &.2      . . . . . . . . . .",
" . . . ...3.3.3.3.3.3.3.3.3.3.3.} } } } } } ' + X.7.7.7.q.q.5.>.X.D D A k j l 3     !  .|  ._ 0 $ 3 6.3      . . . . . . . . . .",
"3.3.3. . . .3.3. . . . . . .] [ ^ ^ Q Q Q Q G # D <.5.q.5.q.,.D D D D M     . X     !  .| [ % 6 s a O O . . 3.3.3.3.3.3.3.3.3.3.",
"3.3.3.3. . .3.|  . . . . . .] ] ^ ^ Q Q Q Q Q G 5 = 5 5.q.5.,.D D D D M     &.;.    ! H # + p ; O % ' [ [ ] 3.3.3.3.3.3.3.3.3.3.",
"3.3.3.3.3.3.3.3.3.3.3.3.3.3.3.3.3.3.3.3.3.3.3.3.' q : q.q.q.>.D D D D l .   ;.5.    ! F     a ;   # | 3.3.3.3.3.3.3.3.3.3.3.3.3.",
"3.3.3.3.3.3.3.3.3.3.3.3.3.3.3.3.3.3.3.3.3.3. .K F m l A A D M d d d d 3     N ;.;.;./ w ; ; 6 0 r F  .3.3.3.3.3.3.3.3.3.3.3.3.3.",
"3.3.3.3.3.3.3.3.3.3.3.3.3.3. . . . . . . .| ) d u X.<.: + + + + + + + .     1 <.S.S.%.3 p p < ! 3.3.3.3.3.3.3.3.3.3.3.3.3.3.3.3.",
"3.3.3.3.3.3.3.3.3.3.3.3.3.3. . . . . . . .! $ g.c.c.k.q.$.D D D D D D l     9.Z.c.c.u.C     ' 3.3.3.3.3.3.3.3.3.3.3.3.3.3.3.3.3.",
" . . . . . . . . . . . . . . .3.3.3.3.3.3.! + g.c.c.c.k.7.<.<.<.<.4.S l c.c.b.l.r.r.f.f.y.r.d ! 3.3.3.3.^ 3.3.3.3.3.3.3.3.3. . .",
" . . . . . . . . . . . . . .3.3.3.3.3. .3.! + g.c.c.c.c.h.y.7.q.5.8.C l F.F.B.h.q.q.k.c.c.x.3 K 3.3.3.3.^ ) 3.3.3.3.3.3. . . . .",
"3.3.3.3.3.3.3.3.3.3.3.3.3.3.3.3.3.3.3.' ! F 7 e.p.k.v.c.c.h.u.w.&.$.o.<.A.A.b.f.u.u.k.f.6.6.S J P ^  . .Q Q Q Q  . . . .3.3. .3.",
"3.3.3.3.3.3.3.3.3.3.3.3.3.3.3.3.3.3.3.4   , #.#.W 2.j.c.c.c.x.i.u 1 4.A.z.z.i.i.c.c.k.O.  X r.N   # }  .Q Q Q H  . . . . .3.3.3.",
"^ ^ ^ ^ ^ ^ ^ ^ ^ ^ ^ ^ ^ ^ ^ ^ ^ ^ ^ %   , #.#.#.b l c.c.c.9.i b.C.M.z.q.q.f.x.c.c.S O     = X   o ! ^ ^ ^ ^ ^ ^ ^ ^ ^ ^ ^ ^ ^ ",
"^ ^ ^ ^ ^ ^ ^ ) ^ ^ ^ ^ ^ ^ ^ ^ ^ ^ ^ %   ; 1.l.v.:.3 x.c.<.i : C.F.C.k.q.7.f.c.x.x.l             + ! ^ ^ ^ ^ ^ ^ ^ ^ ^ ^ ^ ^ ^ ",
"^ ^ ^ y 3.3.3.3...3.3.Q Q Q 3.3...3.3.4   , 1.Z.F.y.3 c.c.o.  : b.C.b.f.i.f.z.f.;.;.k +     q t t F  ...3.} } } } } } } } } t t ",
"^ ^ ^ 3.3.3.3.3.3.3.3.3.H Q 3.3.3.3.3.*   7 0.V.A.9.2 y.y.( * q 9.y.t.p.c.b.f.-.1 1 V i     ]  .3.3.3.3.} } } } } } } } } } t t ",
"^ ^ ..3.3.3.3.3.3.3.3.3.^ ^ 3.3.3.3.3.4   S D.b.c.;.      G s.{ #   o.c.x.x.X.d 7.7.j.*.    '  . . . . .} } ^ ^ ~ U Q Q H Q H Q ",
"^ ^ 3.3.3.3.3.3.3.3.3.3.3.) 3.3.3.3.3.4   N n.c.c.;.o K L ] s.s.] ] J 3 u u + d 7.7.w.D   . '  . . . . .^ _ ^ ^ ~ Q Q Q Q H Q G ",
"^ ) } } } } 3.3.3.3.3.3.3.3.3.3.3.3.3.4   l c.c.c.;.% ` ` { s.s.s.s.H         d 7.7.8.C   . ' 3.3.3.3.3.^ ^ ^ ^ H H Q n Q Q Q Q ",
"^ ) } } } } [ [ 3.3.3.3.3.3.3.3.3.3.3.4   l x.q.6.C # ` ` ] .. .s.s.G     3 = d 7.7.8.C     ' 3.3.3.3.3. ._ ^ ^ H H Q Q Q G Q Q ",
"^ ^ Q G Q ^ ] ]  . . . . . . . . .| ] 0 : C p.j 3 : 5 L L ~ ` ` { ..y $ = -.j d 5.5.5.D = = L |  . .3.3.3.3.3.3.s...3.3.3.3.3.3.",
"^ ^ H H Q ^ ^ ^  . . . . . . . . .' + 8.k.6.2 b.C.M.r.O . t ` ! # o M <.<.%.3 > X.X.,.5.<.<.> K  . .3.3.3.3.3.3. .s. . .3.3.3.3.",
"^ ^ Q Q Q Q ^ ^ 3.3.3.3.3.3.3.3.3.' . i M &.k.n.M.z.r.8.q.Z * 4 g l S %.%.3 O : D D $.,.q.5.= K 3.3.3.3.3.3.3.3. .s. . .3.3.3.3.",
"^ ^ Q Q Q Q ^ 3.3.3.3.3.3.3.3.3.3.' .     S D.b.c.f.r.c.x.o.  . C D D Z D +   : D D X.-.q.5.= K 3.3.3.3.3.3.3.3.s. .s. .3.3.3.3.",
"^ ^ 3.3...3.3.3.3.3.3.3.3.3.3...3.'   d N ,.Z.k.j.f.i.c.c.o.  X j l M l l - X : D D D *.,.,.= F  . . . . . . . . . . .3.3.3.3.3.",
"^ ^ 3.3.3.3.3.3.3.3.3.3.3.3. .| | _ o x.F.Z.x.r.q.p.c.x.c.o.      .       p - : A D A D D A + K  . . . . . . . . . . .3.3.3.3.3.",
"^ ^ ^ t 3.3.3.3.3.3.3.3.3.3...F % l c.n.n.z.y.j.k.x.f.3 2 x U I a a p a a v ; . + @ + O + + P  .3.3.3.3.3.3.3.3.3.3.3.3.3.3.y t ",
"^ ^ ^ ) 3.3.3.3.3.3.3.3.3. .y >.y.p.B.j.u.f.g.x.c.y.V x x U W I B B B B B B ; > 9 9 K K K K |  .3.3.3.3.3.3.3.3.3.3.3.3.3.3.t t ",
"^ ^ ^ ^ ^ ^ ^ ^ ^ ^ ^ ^ ^ ! o i.F.S.c.u.8.u.c.c.c.;.= @.#.#.W v B B B B B B ; * ^ ^ ^ ^ ^ ^ ^ ^ ` ) ~ ^ ^ ^ ^ ^ ^ ^ ^ ^ ^ ^ ^ ^ ",
"^ ^ ^ ^ ^ ^ ^ ^ ^ ^ ^ H K H d f.S.Z.x.u.r.u.c.f.f.O.$ #.#.#.U a s s s B B B ; * ^ ^ ^ ^ ^ ^ ^ ^ ) ~ ^ ^ ~ _ ^ ^ ^ ^ ^ _ ^ ^ ^ ^ ",
"3.3.^ ^ ^ Q 3.3.3.3.3.X X % c.M.c.x.q.j.c.c.j.2 O X $ #.#.T p   X   ; B v B ; q 3.3.3.3.3.3.3.3.3.3.3.3.3.3.3.3. .3.3.3.3.3. .3.",
"3.3.^ ^ H Q 3.3.3.3.3.    O M.N.c.x.k.x.c.u.j X   , I #.W a X       X $ $ s s 7 4 4 ' 3.3.3.3.3.3.3.3.3.3.3.3.3.3.3.3.3.3.3.3.3.",
"^ ^ Q Q | 3. . . . . .    + M.N.c.c.c.4.&.$.z .   7 #.:.:.g o 8 q q 4     S Y 6 .   ! 3.3.3.3.3.3.3.3.3.3.3.3.3.3.3.3.3.3.3.3.3.",
"^ ^ ^ Q | 3.3.|  . . .    O M.N.c.c.c.j . 4 } @   7 =.7.q.l & H ^ ^ F     -.O.i     ! 3.3.3.3.3.3.3.3.3.3.3.3.3.3.3.3.3.3.3.3.3.",
".. .) ^ Q Q 3.3...3.3.    + c.n.k.k.z.d . 4 | @   7 =.7.q.l & H ^ ^ F     -.+.i     !  . . . . . . . . . . . . . . . . . . . . .",
"3. .^ ^ Q 3.3.3.3.3.3.      2 2 2 1 1 ! ] | | @   j 6.q.7.l & H ^ ^ F     ;.6.S     !  . . . . . . . . . . . . . . . . . . . . .",
"3.3.3.3.3.3.3.3.3.3.3.K K K K K y t K [ 3.' e D X.-.5.*.*.d 4 3.^ ^ q     D <.,.X.X.z q F 3.3.3.3.3.3.3.3.3.3.3.3.3.3.3.3.3.3.3.",
"3.3.3.3.3.3.3.3.3.3.3.3.3.3.3.3.^ ^ 3.3.3.! O &.-.>.-.D D 3 e 3.^ ^ 8     l *.>.>.>.>   4 3.3.3.3.3.3.3.3.3.3.3.3.3.3.3.3.3.3.3.",
"3.3.3.3. . . . . . . . . . . . .^ ^ ^ | ..! X C D D D D D 3 e 3.^ ^ q     M D D D D :   4 3.3.3.^ ^ 3.3.3.3.3.3.3.3.3.3.^ ^ _ ^ ",
"3.3.3. . . . . . . . . . . . . .^ ^ ^ ^  .!   C D D D D D 3 4 3.^ ^ 8     M D D D D = . *  .3.3.^ ^ 3.3.3.3.3.3.3.3.3.3.^ ^ ^ ^ ",
"Q Q  . . .3.3.3.3.3.3.3.3.3.3.3.Q H ^ ^ K %   = = = = = = X 5  .^ ^ F     + + : = = X 5 _ 3.Q Q ^ ^  . . . . . . . . . . .^ ^ ^ ",
"Q Q  . .3.3.3.3.3.3.3.3.3.3.3.3.H H Q H t       .           9 s.^ _ F                 t 3...Q Q ^ ^  . . . . . . . . . . . .^ ^ ",
"Q K 3.3.3.3.3.3.3.3.3.3.3.3.3.3.H Q H H  .3.3.3.3.3...3.3.3.3.t ^ ^ t 3.3.3...3.3.3.3.3.3.3.Q G H Q H Q 3.3.3.3.3.3.3.3.3.3.H H ",
"Q Q 3.3.3.3.3.3.3.3.3.3.3.3.3.3.Q H Q H 3.3.3.3.3.3.3.3.3.3.t t ^ ^ t t 3.3.3.3.3.3.3.3.3.3.H H Q H Q H 3.3.3.3.3.3.3.3.3.3.H H "
};
