/* XPM */
static char *_1e15395098d463af16433084176c2a2n6kJtbuIINqRSDu8[] = {
/* columns rows colors chars-per-pixel */
"64 64 4 1 ",
"  c black",
". c gray20",
"X c #565656",
"o c gray67",
/* pixels */
"XXXXXXXX oXXXXXXXXXXXXXXX oXXXXXXXXXXXXXXXX oXXXXXXXXXXXXXXX XXX",
"XXXXXXXX oXXXXXXXXXXXXXXX oXXXXXXXXXXXXXXXX oXXXXXXXXXXXXXXX XXX",
"XXXXXXXX XXXXXXXXXXXXXXXX XXXXXXXXXXXXXXXXX XXXXXXXXXXXXXXXX XXX",
"XXXXXXXX XXXXXXXXXXXXXXXX XXXXXXXXXXXXXXXXX XXXXXXXXXXXXXXXX XXX",
"XXXXXXXX XXXXXXXXXXXXXXX. XXXXXXXXXXXXXXXX. XXXXXXXXXXXXXXX. XXX",
"                                                                ",
" ooXXXXXXXXXXXXXX ooXXXXXXXXXXXXXX ooXXXXXXXXXXXXXX ooXXXXXXXXXX",
" oXXXXXXXXXXXXXXX ooXXXXXXXXXXXXXX ooXXXXXXXXXXXXXX oXXXXXXXXXXX",
" oXXXXXXXXXXXXXXX oXXXXXXXXXXXXXXX oXXXXXXXXXXXXXXX oXXXXXXXXXXX",
" oXXXXXXXXXXXXXXX oXXXXXXXXXXXXXXX oXXXXXXXXXXXXXXX oXXXXXXXXXXX",
" oXXXXXXXXXXXXXXX oXXXXXXXXXXXXXXX oXXXXXXXXXXXXXXX oXXXXXXXXXXX",
" oXXXXXXXXXXXXXXX oXXXXXXXXXXXXXXX oXXXXXXXXXXXXXXX oXXXXXXXXXXX",
" XXXXXXXXXXXXXXXX XXXXXXXXXXXXXXXX XXXXXXXXXXXXXXXX XXXXXXXXXXXX",
" XXXXXXXXXXXXXXXX XXXXXXXXXXXXXXXX XXXXXXXXXXXXXXX. XXXXXXXXXXXX",
" XXXXXXXXXXXXXXX. XXXXXXXXXXXXXXX. XXXXXXXXXXXXXXX. XXXXXXXXXX..",
" XXXXXXXX........ XXXXXXXXX....... XXXXXXXXX....... XXXXXX......",
"                                                                ",
"oXXXXXXX ooooooooooXXXXXXX oooooooooXXXXXXXXoooooooooXXXXXXXXooo",
"XXXXXXXX ooXXXXXXXXXXXXXXX oXXXXXXXXXXXXXXXXooXXXXXXXXXXXXXXXoXX",
"XXXXXXXX oXXXXXXXXXXXXXXXX oXXXXXXXXXXXXXXXXoXXXXXXXXXXXXXXXXXXX",
"XXXXXXXX oXXXXXXXXXXXXXXXX oXXXXXXXXXXXXXXX.oXXXXXXXXXXXXXXX.XXX",
"XXXXXXXX oXXXXXXXXXXXXXXXX oXXXXXXXXXXXXXXX.oXXXXXXXXXXXXXXX.XXX",
"XXXXXXXX oXXXXXXXXXXXXXXXX oXXXXXXXXXXXXXXX.oXXXXXXXXXXXXXXX.XXX",
"XXXXXXXX XXXXXXXXXXXXXXXXX XXXXXXXXXXXXXXXX.XXXXXXXXXXXXXXXX.XXX",
"XXXXXXXX XXXXXXXXXXXXXXX.. XXXXXXXXXXXXXXXX.XXXXXXXXXXXXXXX..XXX",
"                                                                ",
" oooooooooXXXXXXX ooooooooXXXXXXXX oooooooooXXXXXXXX ooooooooXXX",
" ooXXXXXXXXXXXXXX ooXXXXXXXXXXXXXX ooXXXXXXXXXXXXXXX ooXXXXXXXXX",
" oXXXXXXXXXXXXXXX ooXXXXXXXXXXXXXX ooXXXXXXXXXXXXXXX oXXXXXXXXXX",
" oXXXXXXXXXXXXXXX ooXXXXXXXXXXXXXX ooXXXXXXXXXXXXXXX oXXXXXXXXXX",
" oXXXXXXXXXXXXXXX oXXXXXXXXXXXXXXX oXXXXXXXXXXXXXXXX XXXXXXXXXXX",
" oXXXXXXXXXXXXXXX oXXXXXXXXXXXXXXX oXXXXXXXXXXXXXXX. XXXXXXXXXXX",
" XXXXXXXXXXXXXXXX XXXXXXXXXXXXXXXX XXXXXXXXXXXXXXXX. XXXXXXXXXXX",
" XXXXXXXXXXXXXXXX XXXXXXXXXXXXXXXX XXXXXXXXXXXXXXXX. XXXXXXXXXXX",
" XXXXXXXXXXXXXX.. XXXXXXXXXXXXXXX. XXXXXXXXXXXXXXX.. XXXXXXXXXXX",
" XXXXXXXXXXXXXX.. XXXXXXXXXXXXXXX. XXXXXXXXXXXXXXX.. XXXXXXXXXXX",
"                                                                ",
"oXXXXXXX ooooooooooXXXXXXX ooooooooXXXXXXXX oooooooooXXXXXXX ooo",
"XXXXXXXX ooXXXXXXXXXXXXXXX oXXXXXXXXXXXXXXX ooXXXXXXXXXXXXXX oXX",
"XXXXXXXX oXXXXXXXXXXXXXXXX oXXXXXXXXXXXXXXX oXXXXXXXXXXXXXXX XXX",
"XXXXXXXX oXXXXXXXXXXXXXXXX oXXXXXXXXXXXXXXX oXXXXXXXXXXXXXXX XXX",
"XXXXXXXX oXXXXXXXXXXXXXXXX oXXXXXXXXXXXXXXX oXXXXXXXXXXXXXXX XXX",
"XXXXXXXX oXXXXXXXXXXXXXXXX oXXXXXXXXXXXXXXX oXXXXXXXXXXXXXXX XXX",
"XXXXXXXX oXXXXXXXXXXXXXXXX oXXXXXXXXXXXXXXX oXXXXXXXXXXXXXXX XXX",
"XXXXXXXX XXXXXXXXXXXXXXX.. XXXXXXXXXXXXXXX. XXXXXXXXXXXXXXX. XXX",
"........ XXXXXXXX......... XXXXXXXX........ XXXXXXXXX....... XXX",
"                                                                ",
" ooXXXXXXXXXXXXXX ooXXXXXXXXXXXXXXX ooXXXXXXXXXXXXXX ooXXXXXXXXX",
" ooXXXXXXXXXXXXXX ooXXXXXXXXXXXXXXX ooXXXXXXXXXXXXXX ooXXXXXXXXX",
" oXXXXXXXXXXXXXXX ooXXXXXXXXXXXXXXX oXXXXXXXXXXXXXXX ooXXXXXXXXX",
" oXXXXXXXXXXXXXXX oXXXXXXXXXXXXXXXX oXXXXXXXXXXXXXXX oXXXXXXXXXX",
" oXXXXXXXXXXXXXXX oXXXXXXXXXXXXXXXX oXXXXXXXXXXXXXXX oXXXXXXXXXX",
" oXXXXXXXXXXXXXXX oXXXXXXXXXXXXXXXX oXXXXXXXXXXXXXXX oXXXXXXXXXX",
" XXXXXXXXXXXXXXX. XXXXXXXXXXXXXXXX. XXXXXXXXXXXXXXX. XXXXXXXXXXX",
" XXXXXXXXXXXXXXX. XXXXXXXXXXXXXXXX. XXXXXXXXXXXXXXX. XXXXXXXXXXX",
" XXXXXXXXXXXXXX.. XXXXXXXXXXXXXXXX. XXXXXXXXXXXXXXX. XXXXXXXXXXX",
"                                                                ",
"XXXXXXXX ooXXXXXXXXXXXXXXX ooXXXXXXXXXXXXXX oooXXXXXXXXXXXXX ooX",
"XXXXXXXX ooXXXXXXXXXXXXXXX oXXXXXXXXXXXXXXX ooXXXXXXXXXXXXXX oXX",
"XXXXXXXX oXXXXXXXXXXXXXXXX oXXXXXXXXXXXXXXX oXXXXXXXXXXXXXXX XXX",
"XXXXXXXX oXXXXXXXXXXXXXXXX oXXXXXXXXXXXXXXX oXXXXXXXXXXXXXXX XXX",
"XXXXXXXX oXXXXXXXXXXXXXXXX oXXXXXXXXXXXXXXX oXXXXXXXXXXXXXXX XXX",
"XXXXXXXX XXXXXXXXXXXXXXX.. XXXXXXXXXXXXXXX. XXXXXXXXXXXXXXX. XXX",
"........ XXXXXXXX......... XXXXXXXXX....... XXXXXXXXX....... XXX"
};
