/* XPM */
static char *_c33114b7f1c4a2ff9aa1150e0f435c2wFX7OMtliLl8UnpH[] = {
/* columns rows colors chars-per-pixel */
"64 64 19 1 ",
"  c #5B482E",
". c #7D6140",
"X c #382F1C",
"o c #795E3E",
"O c #705638",
"+ c black",
"@ c #6E5537",
"# c #D2D1C1",
"$ c #493F25",
"% c #3A3B3D",
"& c #4B4026",
"* c #707C7F",
"= c #A52D27",
"- c #869598",
"; c #5F6367",
": c #28221F",
"> c #ADAB98",
", c #6A221F",
"< c white",
/* pixels */
"                                                                ",
"                                                                ",
"    ..........................................       .........XX",
"   X...........................................     ..........XX",
"  ...........................................ooo    ooooooooo...",
"  ..........................................ooooo   oooooooooo..",
"  .......................ooooooooooooooooo........  ............",
"  ................OOO...ooo++++++++++ooooo@.......  ............",
"  O...............OOO....++##########++...  ....................",
"  OOO.............  OO...++##########++...  ....................",
"$$$OOOO...........    .++###%%####%####++o  ....................",
"$$$$OOOO..........    .++###%%####%####++o  @...................",
"$$$$&&  oooooooooooo&&@++##%%%####%%%##++.$$$$..................",
"$$$$&&  oooooooooooo&&@++##%%%####%%%##++.$$$$..................",
"   X................$$$++#####%%%%#####++..$$$.................X",
"   X................$$$++%%*+++++++**%%++...$$................XX",
"                       ++%%*+++++++**%%++                       ",
"                    ===++%%+-------++%%++===                    ",
"....................===++%%+-------++%%++===....................",
"..................=====++%%+==----=++%%++=====..................",
"oooo.............O=====++%%+==----=++%%++=====oooooooooooooooooo",
"ooooo...........=======OO+++;;----;++++ .=======oooooooooooooooo",
"...ooooooooooo@@=======++**-++;;;;+--**++=======................",
"....oooooooooo@@=======++**-++;;;;+--**++=======................",
"...............========++**-+++++++--**++========...............",
"...............========++**-+++++++--**++========...............",
"..............o======oo++**-++%%%%+--**++.=======...............",
"..............o======oo++**-++%%%%+--**++.=======...............",
"ooooooooooooooo======++++++*++%%%%+**+++++=======... .........oo",
"ooooooooooooo=======:%%::+++++++%%+++++::%::=======.  ......oooo",
".............=======:%%::+++++++%%+++++::%::=======o&&&&oooo..o.",
".............=======:%%%%::>>>##++>>>::%%%::=======o&&&&ooooo...",
"             =======:%%%%::>>>##++>>>::%%%::=======             ",
"             =======:%%%%::>####++#>>::%%%::=======             ",
"   X.......$$=======:%%%%::>####++#>>::%%%::=======..OOOOOOOOOXX",
"   .........$=======+::%%%%%##++++#%%%%%%:++=======.OOOOOOOOOOXX",
"  .......... =======.+++++++++++++++++++++oo=======oOO   $$$$$$$",
"  ...........=======.+++++++++++++++++++++oo=======o     $$$$$$$",
"  OOOO.......========....++,++::::+,,++...=========.    $$$$$$$$",
"  OOOOOO.....========....++,++::::+,,++...=========..   $$$$$$$$",
"  $$$ OOooooo========oooo++:++::::+::++ooo=========.............",
"  $$$   ooooo========oooo++:++::::+::++ooo=========.............",
"  $$$$  .......======....+++++::::+++++...=======...............",
"  $$$$ ........========..++%%%++++%%%++..========...............",
"  ............o========oo++%%%++++%%%++o@========oooooooooo.....",
"  ............o========oo++%%%++++%%%++o@========oooooooooo.....",
"   X...........========..++%%%++++%%%++.$========.............XX",
"    ............=======++%%%::++++:%%%%++=======..............XX",
"                =======++%%%::++++:%%%%++=======                ",
"                =======++%%:+++++++::%%++=======                ",
"..   $............=======%%:+++++++::%%=======..................",
"..  $$............=======%%:+++++++::%%=======..................",
"  &&oooooooooooooooo=====<<<++++++<<<::=====....................",
"   &oooooooooooooooo=====<<<++++++<<<::=====....................",
"oo  $$...............====<<+++<<+++<<++===oooooooooooooooooooooo",
"oo  $................====<<+++<<+++<<++===oooooooooooooooooooooo",
"................  ..............  $$$$  ........................",
"................  ..............  $$$$$  .......................",
"....oooooooooooo   ooooooooooo..  $$$$$  .......  ..........    ",
"...ooooooooooooo    ooooooooo...  $$$$$$  ......  ..........    ",
"&&ooo...........$$  ............  ......oooooo&&  ooooooooooo   ",
"&&oo............$$$$............  ........oooo&&  oooooooooooo  ",
"$$..............$$$$...........X  X...........$$$$$$..........$$",
"$$..............$$$$..........XX  XX..........$$$$$$..........$$"
};
