/* XPM */
static char *result[] = {
/* columns rows colors chars-per-pixel */
"64 64 191 2 ",
"   c #020202",
".  c #090706",
"X  c #0B0806",
"o  c #0C0C0B",
"O  c #130606",
"+  c #190807",
"@  c #120D0A",
"#  c #1D0C0A",
"$  c #14110C",
"%  c #1A160E",
"&  c #1C180E",
"*  c #141312",
"=  c #191513",
"-  c #1D1916",
";  c #151818",
":  c #1C1C1C",
">  c #171718",
",  c #210C0B",
"<  c #2C0D0C",
"1  c #2A110F",
"2  c #211211",
"3  c #231C13",
"4  c #281F14",
"5  c #231E1B",
"6  c #2A1A18",
"7  c #381B19",
"8  c #37110F",
"9  c #2A2116",
"0  c #25211E",
"q  c #2B241D",
"w  c #292315",
"e  c #312519",
"r  c #39221F",
"t  c #362A1C",
"y  c #392E1D",
"u  c #3D351F",
"i  c #1F1F20",
"p  c #1E2122",
"a  c #242425",
"s  c #2A2522",
"d  c #2C2826",
"f  c #262728",
"g  c #252829",
"h  c #2B2B2B",
"j  c #332320",
"k  c #332C21",
"l  c #322D2C",
"z  c #3D2623",
"x  c #3E3121",
"c  c #33322E",
"v  c #2D2E30",
"b  c #312F30",
"n  c #2E3233",
"m  c #333334",
"M  c #363738",
"N  c #36393A",
"B  c #3A3B3C",
"V  c #3B3836",
"C  c #4C1A17",
"Z  c #491B18",
"A  c #561E1B",
"S  c #631E1A",
"D  c #44221F",
"F  c #4A221F",
"G  c #5B221F",
"H  c #54231F",
"J  c #65221F",
"K  c #6A221F",
"L  c #75231F",
"P  c #4B2521",
"I  c #442321",
"U  c #5B2521",
"Y  c #562421",
"T  c #433423",
"R  c #453A23",
"E  c #493F25",
"W  c #41392D",
"Q  c #4E3D28",
"!  c #423728",
"~  c #523F2A",
"^  c #493F30",
"/  c #652722",
"(  c #742521",
")  c #782521",
"_  c #7A2823",
"`  c #763735",
"'  c #3D403E",
"]  c #4B4026",
"[  c #53412A",
"{  c #5A462D",
"}  c #5B482E",
"|  c #45443D",
" . c #4C4235",
".. c #5D4931",
"X. c #624C32",
"o. c #6A5236",
"O. c #6D5538",
"+. c #705638",
"@. c #745A3B",
"#. c #795E3E",
"$. c #7C603F",
"%. c #3C3E40",
"&. c #3F4244",
"*. c #414345",
"=. c #4C4B43",
"-. c #464A4B",
";. c #56544C",
":. c #4A5153",
">. c #4E5759",
",. c #535454",
"<. c #555B5C",
"1. c #5E5F5A",
"2. c #6B4140",
"3. c #6A5D5E",
"4. c #5F605C",
"5. c #7D6140",
"6. c #67655C",
"7. c #565E61",
"8. c #5A6365",
"9. c #5E686A",
"0. c #5F6769",
"q. c #666763",
"w. c #6B6B65",
"e. c #616A6D",
"r. c #656568",
"t. c #6F706B",
"y. c #74736D",
"u. c #666E71",
"i. c #6B7476",
"p. c #6C7679",
"a. c #6E797C",
"s. c #667073",
"d. c #7B7B72",
"f. c #707C7F",
"g. c #7A7A75",
"h. c #726F66",
"j. c #862924",
"k. c #802722",
"l. c #92514F",
"z. c #8C7979",
"x. c #956362",
"c. c #7A827F",
"v. c #83837C",
"b. c #88877D",
"n. c #8F8E7E",
"m. c #727E81",
"M. c #758285",
"N. c #798689",
"B. c #7D8A8D",
"V. c #7B8082",
"C. c #7F8D90",
"Z. c #898C8C",
"A. c #878784",
"S. c #93948B",
"D. c #9B9A8C",
"F. c #808E91",
"G. c #849294",
"H. c #869598",
"J. c #9E9E94",
"K. c #929996",
"L. c #A09F93",
"P. c #9DA39D",
"I. c #A3A18F",
"U. c #A4A395",
"Y. c #A3A49B",
"T. c #AAA89A",
"R. c #91A1A2",
"E. c #9CAFB0",
"W. c #ACADA3",
"Q. c #A3ACA9",
"!. c #B3B2A3",
"~. c #B7B6A9",
"^. c #BBBAAC",
"/. c #B7B8AC",
"(. c #A6B7B7",
"). c #BDBEB1",
"_. c #B5BEB7",
"`. c #C0BEAD",
"'. c #C0BFB1",
"]. c #C4C3B5",
"[. c #C8C7B8",
"{. c #CCCCBC",
"}. c #C7C8BA",
"|. c #D0CFBF",
" X c #ABBFC0",
".X c #B4CACA",
"XX c #BBCDCA",
"oX c #BED3D4",
"OX c #D0CFC0",
"+X c #D2D1C1",
"@X c #C1CBC4",
/* pixels */
"} } } } } } } } } } } } } } } } } } } } } } } } } } } } } } } } } } } } } } } } } } } } } } } } } } } } } } } } } } } } } } } } ",
"} } } } } } } } } } } } } } } } } } } } } } } } } } } } } } } } } } } } } } } } } ..} } } } } } } } } } } } } } } } } } } } } } ",
"} } } } 5.5.5.5.5.5.5.5.5.5.$.5.5.5.5.5.5.5.5.5.5.5.5.5.5.5.5.5.5.5.5.5.5.5.5.5.5.5.$.$.$.5...} } } } } } 5.5.$.5.5.5.5.$.$.u k ",
"} } } y 5.5.5.5.5.5.5.5.5.5.5.5.5.5.5.5.5.5.5.5.5.$.o.R x y x x x x x x x Q +.5.$.$.$.$.$.$.$...} } } } 5.5.5.$.5.5.5.5.$.$.u k ",
"} } 5.5.5.5.5.5.5.5.5.5.5.5.5.5.5.5.5.5.5.5.$.$.$.$.[ % o X o X X X X . o 4 X.#.$.$.$.$.$.$.$.$.} } } } $.$.#.#.#.$.$.$.$.$.$.$.",
"} } 5.5.5.5.5.5.5.5.5.5.5.5.5.5.5.5.5.5.5.5.5.$.o.T  .h.d.d.d.d.d.d.d.d.d.6.W Q $.$.$.$.$.$.$.$.$.} } } $.$.$.$.#.$.$.$.$.@.$.$.",
"} } 5.5.5.5.5.5.5.5.5.5.5.5.5.5.5.5.5.5.5.5.$.+...e ;./.}.).}.+X+X|.].].{.J.V x X.+.$.$.$.$.5.5.$.$...} $.$.$.$.$.$.5.5.$.$.$.$.",
"} } 5.5.5.5.5.5.5.5.5.5.5.5.5.5.5.5.+.+.+.5.+.T V h.Y.{.T.y.J.+X+X}.S.v.~.).D.6.k ] o.$.$.$.5.5.$.$.} } $.$.$.$.$.$.5.5.5.$.$.$.",
"} } +.$.5.5.5.5.5.5.5.5.5.5.5.5.5.5.O.+.+.5.o.3 c U.[.~.v.*.v.+X+X].t.:.S.^.{.b.; t { } 5.5.5.5.5.5.5.5.5.5.5.5.$.$.5.5.5.5.5.5.",
"} } +.+.+.5.5.5.5.5.5.5.5.5.5.5.5.5.} } +.+.o.- c U.W.y.,.B b.+X+X).y.*.>.z.^.b.= t { } 5.5.5.5.5.5.5.5.5.5.5.5.5.5.5.5.5.5.5.5.",
"] ] ] O.+.+.+.5.5.5.5.5.5.5.5.5.5.5.} } } } o.w c U.W.y.q.q.b.Y.U.J.d.q.q.v.).b.= t } } $.$.5.$.5.5.5.5.5.5.5.5.5.5.5.5.5.5.5.5.",
"E E E ] +.+.+.O.5.5.5.5.5.5.5.5.5.5.} } } } o.3 m U.{.^././.b.,.,.6.S./.~.'.{.v.= t [ } +.5.5.$.5.5.5.5.5.5.5.5.5.5.5.5.5.5.5.5.",
"] ] E E ] ] } } #.#.#.#.#.#.#.#.$.$.@.@.] ] } & a y.Y.W.).|.Y.y.y.g.!.OX/.Q.J.q.o y ] ] ' R $.$.5.5.5.5.5.5.5.5.5.5.$.$.5.5.5.5.",
"E E ] E ] ] } } #.#.#.#.#.#.#.#.$.$.$.$.] ] } - * M <.f.P.{.{.].].}.}.].K.i.,.b X t ] ] E E $.$.5.5.5.5.5.5.5.5.5.5.5.$.5.5.5.5.",
"} } { y 5.5.5.5.5.5.5.5.5.5.5.5.5.5.$.$.] ] x $ o v 8.K.Q.Q.'.|.+XOX/.Q.Q.C.:.a . t 5.x E E $.$.5.5.5.5.5.5.5.5.5.5.$.$.$.$.5.u ",
"} { { y 5.5.5.5.5.5.5.5.5.5.5.5.5.$.$.$.] ] x $ * n m.@X XN.Y.|.+X}.K.G.XX X7.a . t 5.5.E E $.$.5.5.5.5.5.5.5.5.5.5.$.$.$.$.u k ",
"} } } } } } } } ....{ } } } } } } } } } } } ] & o v s..X.XE._.|.|.{.(.(.oX(.<.g . 4 { } } } } } ..} } } } } } } } } } } } } } } ",
"} } ....} } } } ..{ } { [ [ [ [ [ [ [ [ } } Q 3 * v 0.(..X.XXX|.|.{.XX.X.XR.:.s o w { { } } } } } } } } } } } } } } } } } } } } ",
"$.$.$.$.5.5.$.$.5.5.5.O.R 9 e e e e e { 5.5.@.} x 0 N 9.i.p.S./.^.!.Z.i.i.<.g q ! X.5.5.5.5.5.5.5.5.$.$.5.5.5.5.5.5.5.5.5.5.5.5.",
"$.$.$.$.5.$.$.$.5.5.O.{ s ; ; ; ; ; ; R O.@.#.+.[ 0 a &.&.%.t.U.I.D.4.&.*.N : d ..+.5.5.5.5.5.5.5.5.5.$.5.5.5.5.5.5.5.5.5.5.5.5.",
"@.$.$.@.5.5.5.5.5.+.T k ,.e.0.r.9.9.9.' 4 ~ X.t s -.8.p.7.%.7.A.A.c.>.&.9.s.7.%.q E @.5.#.#.#.#.$.$.#.#.#.#.#.#.#.#.#.#.#.#.#.#.",
"$.$.@.$.$.$.5.5.5.o.4 : 3.A.F.Z.z.A.N.&.. R } 3 i 8.M.C.m.>.0.m.c.p.4.<.M.C.M.:.o y @.#.#.#.#.#.$.$.$.$.#.#.#.#.#.#.#.#.#.#.#.#.",
"5.5.$.$.@.$.$.$.#.o.6 2 ` l.Z.z.l.l.t.n . e T $ i 7.N.G.F.m.m.m.c.a.s.p.C.C.M.:.o t 5.5.5.5.5.5.$.$.5.5.$.5.5.5.5.5.5.5.5.5.5.5.",
"5.5.$.$.$.$.$.$.5.O.9 2 ` x.Z.z.l.2.&.d & y T $ i 7.N.G.G.F.m.m.p.a.M.M.C.C.m.:.o t #.5.5.5.5.5.$.$.5.5.$.5.5.5.5.5.5.5.5.5.5.5.",
"5.5.5.5.5.5.5.5.5.o.w p r.Z.H.V.3.V o ! O.@.o.3 i 8.M.G.C.m.m.m.M.p.m.M.B.C.M.&.o y 5.5.5.5.5.5.5.5.5.5.5.5.5.5.5.5.5.5.5.5.5.5.",
"5.5.5.5.5.5.5.5.5.o.w ; 8.m.m.r.&.g > k Q o.o.3 * N 7.M.m.m.m.m.M.M.M.M.M.N.C.&.o t #.5.5.5.5.5.5.5.5.5.5.5.5.5.5.5.5.5.5.5.5.5.",
"5.5.5.5.5.5.5.5.5.O.w ; -.e.r.*.o : N : @ Q X.3     h u.m.m.m.m.B.C.B.M.M.M.M.&.o t $.$.5.5.5.5.5.5.5.5.5.5.5.5.5.5.5.5.5.5.5.5.",
"5.5.5.5.5.5.5.5.5.@.[ k m m n h p h B :   4 y a ; o p e.a.m.m.m.B.C.C.N.M.s.&.&.p q u } 5.5.5.5.5.5.5.5.5.5.5.5.5.5.5.5.5.5.5.5.",
"$.@.#.#.#.#.@.5.5.5.@...-     > M B B :     o g v o g e.m.m.m.m.C.C.C.C.M.>.; ; N p   w } 5.5.5.5.5.5.5.} 5.5.5.5.5.5.5.5.5.#.#.",
"#.$.#.#.@.#.$.5.5.@.5.o.~ R R k : g B :     o g N g g v :.p.m.C.C.C.C.m.&.n p g N p   w } } 5.5.5.5.5.5.} } 5.5.5.5.5.5.#.#.#.#.",
"5.5.5.5.5.5.5.5.5.5.5.5.5.5.5.Q X : B :     o h %.m a @ v 0.m.G.C.C.M.8.p o n %.' p . u o.@.#.#.#.#.#.#.] ] ] ] #.#.#.#.5.5.#.5.",
"5.5.5.5.5.5.5.5.5.5.5.5.5.5.5.Q X : B :   ; h M n i 6 C I h >.N.C.C.M.9.p o o p N n g g w } #.#.#.#.#.#.] ] ] ] #.#.#.#.#.5.5.5.",
"} } } } } } } } } } } } } } { y . > N : . a B B d o < L A # M 8.9.9.8.>.s O   * m M B :   y } } } } } } } } } } } } } } } } } } ",
"} } } } } } } } } } } } } } } y   : %.:   a M b 5 @ < L L J Z i p p : a A C O o s c B :   y } } } } } } } } } } } } } } } } } } ",
"} } } y 5.5.5.5.5.5.5.] ] E 5.Q X i B :   g M d - . < L j.j.Z o o o # 8 S S + o 5 l N a * x ..+.5.5.5.5.5.+.+.+.+.+.+.+.+.+.y y ",
"} } } 5.5.5.5.5.5.5.5.5.E E 5.Q . : %.i   a M d : . < L j.j.Y 5 : : H L j.S + o 0 h B N h 0 4 ..5.5.5.5.+.+.+.+.+.+.+.+.+.+.t y ",
"} } $.5.5.5.5.5.5.5.5.5.{ { 5.Q . : B : . p M d - . , G / / U P P P U / / Z O o 5 l B >.w.h @ [ #.#.#.#.+.+.} } } ] ] ] ] E E E ",
"} } 5.5.5.5.5.5.5.5.5.5.5.{ 5.Q . : %.: . a M h 5 . o 6 j j Y _ _ ( P j r 3 . o 0 l B z.~.=.@ [ #.#.#.5.} { } } } ] R R ] ] E ] ",
"} } +.+.+.+.5.5.5.5.5.5.5.5.5.Q . : N : o | 1.d *   @ 7 Z I / j.j.j.U F I 7 X . % V q.U.{.n.;. .E T 5.5.} } } } E E R ] ] ] E E ",
"} } +.+.+.+.O.O.5.5.5.5.5.5.5.Q . : %.: o 6.n.c     < A / S ) j.j.j.L / S C O     | U.`.+X{.!.|     5.5.5.} } } E E ] ] ] R E ] ",
"} } E ] R } +.+.#.#.#.#.#.#.#.Q . o : : a B | >     + 7 F F / ) ) ( G F P 7 .     =.U.!.].[.!.|     5.5.5.5.5.5.$.$.5.5.5.5.5.5.",
"} } E E ] { } { #.#.#.#.#.#.#.Q @     a M ;   . . . o 5 0 q F K / J I 0 0 - X .   =.I.I.I.~.T.| . . 5.5.5.5.5.5.$.$.5.5.5.5.5.5.",
"} } ] ] ] ] } } 5.5.5.5.5.5.5.o.Q 4   i M ; X t Q R e % 6 F G K K J G Z 2 - x Q Q E  .| | =.;. .] E 5.5.5.5.5.5.$.$.$.5.5.5.5.5.",
"} } ] ] ] ] } $.5.5.5.5.5.5.5.5.5.T   : m = @ { #.O.T @ < G K K K K / Z # 3 { +.5.Q $ @ @ @ & { $.$.5.5.5.5.$.$.$.$.$.$.5.5.5.5.",
"} } 5.5.$.$.$.$.5.5.5.5.5.5.#.#.@.T   = s $ $ [ X.t - - 6 r H K K J F 7 6 - 4 ! X...[ [ ] [ { O.$.#.#.#.#.#.#.#.#.$.$.5.5.5.5.5.",
"} } 5.$.$.$.5.$.5.5.5.5.5.5.#.5.#.T   $ 5 o $ [ } % @ a d d I G G Y z d d 5 . 9 X.O.$.$.#.$.#.#.#.#.#.#.$.$.#.#.#.$.$.5.5.5.5.5.",
"} } } y 5.5.5.5.5.5.5.5.5.5.5.5.5.T   * 5 @ $ { X.% * v M M l r r j l V m a o 9 T ] $.$.5.5.5.5.5.5.$.$.5.5.5.5.$.$.5.5.$.$.u y ",
"} } } } 5.5.5.5.5.5.5.5.5.5.5.5.5.T   * 5 o @ { ..= * m B V h - - : b %.%.h o 6 x ] $.$.5.5.5.5.5.5.5.$.5.5.5.5.$.$.$.$.$.$.y y ",
"} } } } } } } } } } } } } } } } } e   * 5 @ o T R $ * m B B i     o d B B h o 2 ~ } } } } } } } } } } } } } } } } } } } } } } } ",
"} } } } } } } } } } } } } } } } { e   $ 5 o . 4 e - p N M m -     . i M N m : 5 t R } } } } } { } } } } } } } } } } } } } } } } ",
"5.5.} } } E $.$.$.$.$.$.5.5.$.$.5.R   * 0 o     * h M B m s $       > d M B M g o y #.5.5.5.5.5.5.5.5.5.5.5.5.5.5.5.5.5.5.5.5.5.",
"5.5.} } E R $.$.$.$.$.$.5.$.$.$.#.T   * 0 @     o v B B b s *       = s m B B a . t $.5.5.5.5.5.5.5.5.5.5.5.5.5.5.5.5.5.5.5.5.5.",
"} } ] ] $.$.$.$.$.$.$.$.$.$.$.$.#.T   * 5 o     o n %.B b s $       - d m B B g . t #.5.5.5.5.5.5.5.5.5.5.5.5.5.5.5.5.5.5.5.5.5.",
"} } } ] $.@.$.$.@.@.$.$.$.$.$.$.#.X.T 4 $ * @ . o v M v 5 * = w e 9 4 = s m N g . t #.5.5.5.5.5.5.5.5.$.5.5.5.5.5.5.5.5.5.5.5.5.",
"$.$.{ } ] E $.$.$.$.$.$.$.$.$.$.5.5.5.y   = 5 o * v m d =   3 E } Q 9 . - d M g o t O.+.#.#.#.#.$.#.#.#.$.$.@.@.@.5.5.$.$.5.$.$.",
"$.$.{ { ' $.$.$.$.$.$.$.$.$.$.$.5.5.5.y   = - o o v m s =   3 ] } [ 9 . - d M m g q q [ #.#.#.#.#.#.#.#.@.$.$.$.5.@.@.5.@.@.5.@.",
"5.5.5.5.5.5.5.5.$.$.$.$.5.5.5.5.} } $.y   = 5 X @ h l s =   x 5.} [ % . > d m V B :   T #.$.5.5.5.5.5.5.$.$.$.$.5.5.5.5.5.5.5.5.",
"5.5.5.5.5.5.5.5.5.5.$.$.5.5.5.5.} } $.y   = 5 o o i s s =   y 5.} ] % . - s d d d >   T 5.5.5.5.5.5.5.5.$.$.$.$.5.5.5.5.5.5.5.5.",
"5.5.5.5.#.#.#.#.$.$.#.#.#.#.$.#.} } { t   @ = . . * - 5 @   y 5.} [ %   * - - - - @   u 5.5.5.5.} } 5.5.$.5.$.$.5.5.5.5.} } { } ",
"5.5.5.#.#.#.#.#.$.$.#.#.#.#.#.#.} } { w   . .     . . .     u 5.} [ %   . . . X .     u 5.5.5.5.} } 5.5.5.5.$.$.5.5.5.5.} } } } ",
"] ] #.#.#.5.5.5.5.5.5.5.$.5.5.5.E E } w                     y 5.} [ 9           .     u #.#.] E } } $.$.$.$.$.$.$.@.$.$.5.{ { } ",
"] ] #.#.5.5.5.5.5.5.5.5.5.5.5.5.] E E ] #.5.#.5.5.5.$.#.5.5.5.5.} } $.$.$.$.$.#.5.5.$.$.#.$.] E } } $.$.$.$.@.$.$.$.$.$.@.5.} } ",
"E E 5.5.5.5.5.5.5.5.5.5.5.5.5.5.E E E ] $.5.5.5.5.5.5.5.$.5.$.y } } y $.5.5.5.5.5.5.$.$.$.$.E E E E ' R $.$.$.$.$.$.$.$.$.$.] ] ",
"E ' 5.5.5.5.5.5.5.5.5.5.5.5.5.5.] E E E 5.5.5.5.5.5.5.5.$.$.y y } } y y 5.5.5.5.$.$.$.$.$.$.E E E E E E $.$.$.$.$.$.$.$.$.$.' ] "
};
