/* XPM */
static char *result[] = {
/* columns rows colors chars-per-pixel */
"64 64 142 2 ",
"   c #010101",
".  c #080604",
"X  c #0C0A06",
"o  c #070808",
"O  c #0B0C0C",
"+  c #110D09",
"@  c #0C130E",
"#  c #16110C",
"$  c #1B150E",
"%  c #0E1311",
"&  c #0F1A15",
"*  c #131414",
"=  c #131915",
"-  c #1F1810",
";  c #161718",
":  c #141E1A",
">  c #1A1B1C",
",  c #231B12",
"<  c #221E1A",
"1  c #14211C",
"2  c #1B231E",
"3  c #2B2216",
"4  c #23241C",
"5  c #2D251A",
"6  c #2D291B",
"7  c #32271A",
"8  c #352A1B",
"9  c #392E1D",
"0  c #1E1F20",
"q  c #172720",
"w  c #1E2222",
"e  c #1D2C26",
"r  c #1E342B",
"t  c #222324",
"y  c #292825",
"u  c #262729",
"i  c #252A2A",
"p  c #2A2C2D",
"a  c #342F28",
"s  c #233527",
"d  c #283022",
"f  c #23352B",
"g  c #263B2B",
"h  c #3E3121",
"j  c #3B362D",
"k  c #2D2F31",
"l  c #2E3233",
"z  c #223A30",
"x  c #293E36",
"c  c #323436",
"v  c #363739",
"b  c #353A3B",
"n  c #3A3B3D",
"m  c #433423",
"M  c #443B23",
"N  c #493E25",
"B  c #453828",
"V  c #4F3E28",
"C  c #513F29",
"Z  c #403B33",
"A  c #2A4334",
"S  c #2F4935",
"D  c #2E423B",
"F  c #2E4A39",
"G  c #304436",
"H  c #30433D",
"J  c #3E403D",
"K  c #35533E",
"L  c #4B4026",
"P  c #4D402F",
"I  c #55422B",
"U  c #59462E",
"Y  c #5B482E",
"T  c #574730",
"R  c #5F4A31",
"E  c #614B32",
"W  c #665034",
"Q  c #6D5437",
"!  c #60503A",
"~  c #6F5639",
"^  c #705638",
"/  c #745A3B",
"(  c #795E3E",
")  c #7C603F",
"_  c #3D3E41",
"`  c #344741",
"'  c #3D4344",
"]  c #364842",
"[  c #384943",
"{  c #3C5643",
"}  c #3A5941",
"|  c #414345",
" . c #424749",
".. c #474B4E",
"X. c #494C4F",
"o. c #43504E",
"O. c #465C4E",
"+. c #4B4D50",
"@. c #4D5254",
"#. c #465D56",
"$. c #505356",
"%. c #515856",
"&. c #53565A",
"*. c #545A5C",
"=. c #595E5D",
"-. c #43604C",
";. c #4C6154",
":. c #7D6140",
">. c #575E61",
",. c #595E61",
"<. c #566262",
"1. c #5E6366",
"2. c #5D6568",
"3. c #61666A",
"4. c #646A6E",
"5. c #676D71",
"6. c #686F73",
"7. c #657274",
"8. c #6B7276",
"9. c #6E7679",
"0. c #6D7A7C",
"q. c #717A7D",
"w. c #747E81",
"e. c #768285",
"r. c #7A8689",
"t. c #7D8C8E",
"y. c #7F8E90",
"u. c #858F8E",
"i. c #839294",
"p. c #869598",
"a. c #8B9C9E",
"s. c #8D9EA0",
"d. c #92A3A5",
"f. c #95A7A9",
"g. c #96A8AA",
"h. c #9AACAE",
"j. c #9BAEB0",
"k. c #9EB1B3",
"l. c #A1B5B7",
"z. c #A5BABB",
"x. c #AABFC0",
"c. c #ACC2C3",
/* pixels */
"Y Y Y Y Y Y Y Y Y Y Y Y Y Y Y Y Y Y Y Y Y Y Y Y Y Y Y Y Y Y Y Y Y Y Y Y Y Y Y Y Y Y Y Y Y Y Y Y Y Y Y Y Y Y Y Y Y Y Y Y Y Y Y Y ",
"Y Y Y Y Y Y Y Y Y Y Y Y Y Y Y Y Y Y Y Y Y Y Y Y Y Y Y Y Y U Y Y Y Y Y U Y Y Y Y Y Y Y Y Y Y Y Y Y Y Y Y Y Y Y Y Y Y Y Y Y Y Y Y ",
"Y Y Y Y :.:.:.:.:.:.:.:.:.:.:.:.:.:.:.:.:.:.:.:.I m m m m m m m m m m m m / ) :.:.:.:.:.:.:.Y Y Y Y Y Y Y :.:.:.:.:.:.:.:.) 9 9 ",
"Y Y Y 9 :.:.:.:.:.:.:.:.:.:.:.:.:.:.:.:.:.:.:.:.3                         E :.:.:.:.:.:.:.:.:.Y Y Y Y Y :.:.:.) :.:.:.:.:.) 9 9 ",
"Y Y :.:.:.:.:.:.:.:.:.:.:.:.:.:.:.:.:.:.:.) ( ( 5 o o o   o o   o   o o o R ) :.:.:.:.:.) ( ) ) Y Y Y Y ) ( ( ( ) / / ) ) :.:.:.",
"Y Y :.:.:.:.:.:.:.:.:.:.:.:.:.:.:.:.:.:.:.T # # @.9.0.9.0.0.0.0.0.0.9.0.9.y C :.) ) :.:.( ( ( ) ) Y Y Y ( ( ( ) ) ) ) ) ) / :.:.",
"Y Y :.:.:.:.:.:.:.:.:.:.:.:.:.:.:.:.:.m 8 j *.*.i.k.j.k.k.k.j.k.k.k.j.k.j.@.a 7 9 / :.:.) ) :.:.) :.Y Y ) :.:.:.:.:.:.:.:.:.:.:.",
"Y Y :.:.:.:.:.:.:.:.:.:.:.:.:.:.:.:.^ $   p p.p.l.c.c.c.c.c.c.c.c.c.c.c.c.9.p   O ~ Q :.:.:.:.:.:.:.Y Y :.:.:.:.:.:.:.:.:.:.:.:.",
"Y Y ^ ) :.:.:.:.:.:.:.:.:.:.:.:.:.:.^ ,   p p.p.l.c.c.c.c.c.c.c.c.c.c.c.c.9.p   + / Y Y :.:.:.:.:.:.:.:.:.:.:.:.:.:.:.:.:.:.:.:.",
"Y Y ^ ^ ^ :.:.:.:.:.:.:.:.:.:.:.:.:.Y #   p p.p.k.c.c.c.c.c.c.c.c.c.c.c.x.9.p   + / Y Y :.:.:.:.:.:.:.:.:.:.:.:.:.:.:.:.:.:.:.:.",
"L L N ~ ^ ^ ^ :.:.:.:.:.:.:.:.:.:.:.Y #   p p.p.l.x.c.c.c.c.c.z.r.w.w.w.q.4.p   + ^ Y Y ) ) :.:.:.:.:.:.:.:.:.:.:.:.:.:.:.:.:.:.",
"N N L N ~ ^ ^ ^ :.:.:.:.:.:.:.:.:.:.Y +   p p.p.l.c.c.c.c.c.c.z.6.1.1.1.1.3.p   + ^ Y Y ~ :.:.:.:.:.:.:.:.:.:.:.:.:.:.:.:.:.:.:.",
"L N L N L L Y Y ( ( ( ( ( ( ( ( ( ( ( -   u w.u.d.l.l.l.g.g.g.s.4.3.,.&.&.=.t   + ^ N N L N :.:.:.:.:.:.:.:.:.:.:.:.:.:.:.:.:.:.",
"N L L N L L Y Y ( ( ( ( ( ( ( ( ( ( ( ,   0 3.1.w.p.i.p.4.,.,.,.,.,.@.n n n >   + / N N N L :.) :.:.:.:.:.:.:.:.:.:.:.:.:.:.:.:.",
"Y Y U 8 :.:.:.:.:.:.:.:.:.:.:.:.:.:.) ,   0 1.1.3.5.5.5.t % % * _ | _ n n n >   + / :.N L L ) ) :.:.:.:.:.:.:.:.:.:.:.:.:.:.:.8 ",
"Y Y Y 9 :.:.:.:.:.:.:.:.:.:.:.:.:.:.:.,   > 1.1.1.1.1.1.;     o v n n n n n >   + ^ :.:.N N ) ) :.:.:.:.:.:.:.:.:.:.:.:.:.:.9 8 ",
"Y Y Y Y Y Y Y Y Y Y m 8 8 8 8 8 M Y Y #   * n n n n _ n O     o v n n n n n >   X I Y Y Y Y T T T Y Y Y T Y Y Y Y Y Y Y Y Y Y Y ",
"Y Y R R Y Y Y Y Y Y $   o > : O , Y Y +                       * v n n n n n ;   X I Y E Y Y Y T Y Y Y Y T T Y Y Y Y Y R Y Y Y Y ",
") ) ) ) :.:.) ) :.:.,   i i.i.c 8 ) ) ,                     * v n n n n n n ;   + / :.:.) ) ) ) :.:.:.:.:.:.:.:.) :.:.:.:.:.) ) ",
") ) ) ) :.) ) ) :.:.,   i p.p.c 8 ) :.,                     * n n n n n n n >   + / ) ) ) ) ) ) :.:.:.:.:.:.:.:.) :.:.:.:.:.:.) ",
"/ ) ) ) :.:.:.:.:.:.,   * [ ' i 4 8 8 O   % c c c c c c c c _ +.$.$. .n n n >   + ~ ) ) ) ) ) ) ) ) / ) ) / ) / ) / / ) ) ) ) ) ",
") ) / / ) ) :.:.:.:.h , , 3 3 2 1 @ @     t 8.8.8.8.8.8.8.8.8.5.*.&.X.n n p 4 $ 6 ) / ) ) ) / ) ) ) ) ) ) ) ) / ) ) ) ) ) ) ) / ",
":.:.) ) / ) ) ) ( ( ( ( ( ( ~ 3 & r z O   p p.p.p.p.p.p.p.p.p.u.| n n n n O L ) ) ) ) ) :.:.:.:.) ) :.:.) :.:.:.:.:.:.:.:.:.) ) ",
":.:.) ) ) ) ) ) ( ( ( ( ( ( ~ 3 & z z O   p p.p.p.p.p.p.p.p.p.t. .n n n n O M ) ) ) ) ) :.:.:.:.) ) :.:.:.:.:.:.:.:.:.:.:.:.) ) ",
":.:.:.:.:.:.:.:.:.:.:.:.:.:.:.E 8 & % 1 1 e l c <.9.9.8.<.*.*.&.Z _ p ; * m Q ) :.:.:.:.:.:.:.:.:.:.:.:.:.:.:.:.:.:.:.:.:.:.:.:.",
":.:.:.:.:.:.:.:.:.:.:.:.:.:.:.:.R 8 8 2 : &     u b b b u t t t t t t p p m E :.:.) :.:.:.:.:.:.:.:.:.:.:.:.:.:.:.:.:.:.:.:.:.:.",
":.:.:.:.:.:.:.:.:.:.:.:.:.:.( ( ( ( ) $                             p 1.1.; 8 :.) ) ) ) :.:.:.:.:.:.:.:.:.:.:.:.:.:.:.:.:.:.:.:.",
":.:.:.:.:.:.:.:.:.:.:.:.) ) ( ( ( ( ) -                             p 3.1.; 3 R ) ) ) ) :.:.:.:.:.:.:.:.:.:.:.:.:.:.:.:.:.:.:.:.",
"/ :.:.) / :.:./ :./ / :.:./ ( ) I $ - .   w 7.7.*.X.X.X.X.X.X.X.+.+.&.1.1.@.y @ $ M L L T ) :.:.:.:.:.:.T ) :.:.:.:.:.:.:.:./ :.",
"/ ) / :.:./ :./ :.:.:./ / :.) I j @.@.;   p p.p.r.w.w.e.w.w.9.1.1.3.1.1.1...2   . M L L Y T :.) :.:.:.:.T T :.:.:.:.:.:./ ) / ) ",
":.:.:.:.:.:.:.:.:.:.:.:.:.:.:.6 H p.p.t   p p.p.p.p.p.p.p.p.r.1.1.1.1.1.1.D &   + / ) ) ) ) ) / ) / ) ) L L L L / :./ :.:.:.:.:.",
":.:.:.:.:.:.:.:.:.:.:.:.:.:.:.d J i.u.t   u e.r.t.t.t.t.t.t.e.1.1.>.*.>.=.D = o @ W ~ ~ ) ) ) / ) ) ) ) L L L L / :.) :./ :.:.:.",
"Y Y Y Y Y Y Y Y Y Y Y Y Y Y Y I T ! ! #   o O * A -.-.-.-.-.*.3.1.u q x x z r r e O o 8 Y Y Y Y Y Y Y Y Y Y Y Y Y Y Y Y Y Y Y Y ",
"Y Y Y Y Y Y Y Y Y Y Y Y Y Y Y R Y Y Y #         g } } } } } #.,.3.0 & g z z z z r     3 Y Y Y Y Y Y Y Y Y Y Y Y Y Y Y Y Y Y Y Y ",
"Y Y Y 9 :.:.:.:.:.:.:.N N N :.:.:.:.:.,         g } } } } } { { ..p : : 1 z #.7.<.O   8 ) :.:.:.:.:.:.:.) / ^ ^ ~ ^ ^ ^ ^ Q 9 9 ",
"Y Y Y :.:.:.:.:.:.:.:.:.N N :.:./ E E 4 ; ; ; ; f A S } K K F z z b w     ` y.k.s.%   h ) ) :.:.:.:.:.:.^ ^ ^ ~ ~ ^ ^ ^ ^ ~ 9 9 ",
"Y Y :.:.:.:.:.:.:.:.:.:.R U ) :.B     ..1.1.3.1.t   @ K A z z z z b w     a.g.p.e.O   8 ( ( ( ( ) ( ( ( ~ ~ Y Y Y N L N L N N N ",
"Y Y :.:.:.:.:.:.:.:.:.:.) R ) ) V     ..1.3.1.1.t   @ } A z z z z v 0     a.g.p.e.O   h ( ( ( ( ( ( ( ) Y Y Y Y Y L N N L L N N ",
"Y Y ^ ^ ^ ^ :.:.:.:.:.:.:.:.:.:.B     ..3.=.X.X.>   @ A z z z z z b w     e.s.p.w.O   $ 8 9 ~ :.) :.:.:.Y Y Y Y L N N N N N N N ",
"Y Y ^ ^ ^ ^ ^ ^ :.:.:.:.:.:.:.:.V     _ &.X.n n ;   O [ x z x ] ` l p l b e.r.7.2.O   w ' ' P C R :.:.:.) Y Y Y N N N N N N N N ",
"Y Y L M L Y ~ ^ ( ( ( ( ( ( ( ( m     p n n n n *   ; 1.D g ] 1.2.2 ' p.p.p.,.n c     =.c.z.t   5 ( :.:.:.:.:.:.) ) ) :.:.:.:.:.",
"Y Y N N L Y Y Y ( ( ( ( ( ( ( ( B     p n n n n ;   * 1.D z ] 1.2.w ' p.p.p.1.v c o   *.c.z.t   3 ( :.:.:.:.:.:.) ) ) ) :.:.:.:.",
"Y Y N L L L Y Y :.:.:.:.:.:.:.:.^ I I , * # ; * o   O  .@.$.>.2.1.w ' p.p.1. .n c o   ..d.d.y.r.=.8 ( :.:.:.:.:.) ) ) ) :.:.:.:.",
"Y Y N N L L Y ) :.:.:.:.:.:.:.:.:.:.:.V h h 9 9 #   . t  .+.@.+.+.> k 4.4. .n n c o   b w.w.d.g.y.@.M h R :.) ) ) ) ) ) :.:.:.:.",
"Y Y :.:.) ) :.:.:.:.:.:.:.:.( ( ( ( ( ( / ( ( ( 3       p n n n _ * > n n n n n c     l 1.2.t.p.f.d.O   9 ) ) ) ) ) ) :.:.:.:.:.",
"Y Y :.:.) ) :.:.:.:.:.:.:.:.( ( ( ( ( ( ( ( ( ( 3       p n v n v * > v n n n v c o o c 3.3.t.p.d.d.& o h / / / ) ) ) :.:.:.:.:.",
"Y Y Y 9 :.:.:.:.:.:.:.:.:.:.:.:.:.:.:.:.:.:.) ) 3   @ S ; O o O O q : O o o O O > 7.9.e.t.t.8.5.e.s.a.a.%.$ $ @ ) ) ) ) ) ) M 9 ",
"Y Y Y Y :.:.:.:.:.:.:.:.:.:.:.:.:.:.:.:.:.W 7 7 d s g } @         q :     h V B 6 v b 2.p.p.r.w.t.s.z.c.<.    . ) ) ) ) ) ) 9 9 ",
"Y Y Y Y Y Y Y Y Y Y Y Y Y Y Y Y Y Y Y Y Y m     g } } } @         q :     B Y Y V .    .p.p.p.p.p.a.z.c.<.      U Y Y Y Y Y Y Y ",
"Y Y Y Y U U Y Y Y Y Y Y Y Y Y Y Y Y Y Y U h     f K } ;.&         w q X + m C Y I # X ' q.e.i.p.p.a.c.c.<.      Y Y Y Y Y Y Y Y ",
":.:.Y Y T L :.:.) ) :.:.:.:.:.:.:.:.:.:.) I     u J X.i.w         i n v v + V :.( / / m o @ q.p.p.s.x.c.<.      :.:.:.:.:.:.:.:.",
":.:.Y Y L L :.) ) ) :.:.:.:.:.:.:.:.:.) ) Y     o.q.9.8.>         @.,.n n O B :.) ) ) ~ U U p i i p c c >       :.:.:.:.:.:.:.:.",
"Y Y L L / ) / ) ) ) / ) ) ) ) / ( ( ( ( ( I     <.p.u.1.;         2.4.b n O B :.:.:.:.:.:.) #                   :.:.:.:.:.:.:.:.",
"Y Y Y L ( ) ) ) / / ) ) ) ) ) ) ( ( ( E I B > > 1.r.w.*.*         *.7.$.@.* B :.:.:.:.:.) ) 6 , , , , , , , , , :.:.:.:.:.:.:.:.",
") ( T Y L L ) ) :.:.:.:.:.:.) ) :.:.) -   > 1.1.1.1.*.n O         | q.p.i.> M ( ( ( ) ( ) / ) ) ( ( ( ( ( ( ( ( ( ( ( ( ( ( ( ( ",
") ( Y Y N ) ) ) :.:.:.:.:.:.) ) :.:.) ,   ; | | ' _ _ n %         | 3.4.4.* M ( ( ( ( ( ) / ) ) ( ( ( ( ( ( ( ( ( ( ( ( ( ( ( ( ",
":.:.:.:.:.:.:.:.:.:.:.:.:.:.:.:.Y Y ) -   = n n n n n n O         | 1.1.1.* 8 Y ) ) :.:.:.:.:.:.:.:.:.:.:.:.:.:.:.:.:.:.:.:.:.:.",
":.:.:.:.:.:.:.:.:.:.:.:.:.:.:.:.Y Y ) -   O t t t t t t o         v $.$.@.* 3 Y Y ) :.:.:.:.:.:.:.:.:.:.:.:.:.:.:.:.:.:.:.:.:.:.",
":.:.:.:./ :./ :.) :./ / / :.:./ Y Y Y 3 # # # # # # # # # # X     t k c c o 3 Y Y ) :.) :.:.:.:.Y Y :.:.:.:.:.:.:.:.:.:.Y Y Y Y ",
":.:.:.:.:./ :.:.) / :.) :./ :.:.Y Y Y U / / / / / ( / ( / ( C               3 N T T :.) :.:.:.:.Y Y :.:.:.:.:.:.:.:.:.:.Y Y Y Y ",
"G L ( ( / :.:.:.:.:.:.:.:.:.:.:.L N U U :.:.:.:.( :.:.:.:.:.I               B ) ) ) ) ) ) ) L L Y Y ( ( ( ( ( ( ( ( ( ( ( Y Y Y ",
"N N ( ( :.:.:.:.:.:.:.:.:.:.:.:.N L L L :.:.:.:.:.:.:.:.:.:.I               B ) :.:./ ) / / L L Y Y ( ( ( ( ( ( ( ( ( ( ( ( Y Y ",
"L L ) ) :.:.:.:.:.:.:.:.:.:.:.:.L N N L :.:.:.:.:.:.:.:.:.:.) 9 Y Y 9 ) :.:.:.:.:.:.:.:.) ) L L N L L L :.:.:.:.:.:.:.:.:.) L N ",
"N L ) ) :.:.:.:.:.:.:.:.:.:.:.:.N L N V :.:.:.:.:.:.:.:.:.) 9 9 Y Y 9 9 :.:.:.:.:.:.:.:.:.) L M L N L N :.:.:.:.:.:.:.:.:.) N L "
};
