/* XPM */
static char *result[] = {
/* columns rows colors chars-per-pixel */
"19 64 91 1 ",
"  c #565656",
". c black",
"X c gray67",
"o c gray20",
"O c #655C4F",
"+ c #8E6B3A",
"@ c #685D4D",
"# c #130C00",
"$ c #945600",
"% c #FF9600",
"& c #FF9500",
"* c #1F1200",
"= c #BE7E21",
"- c #CAA36B",
"; c #FB9302",
": c #705B43",
"> c #F99303",
", c #CA7710",
"< c #865025",
"1 c #120B00",
"2 c #CE953C",
"3 c #F99202",
"4 c #9E5D1E",
"5 c #563434",
"6 c #564343",
"7 c #ABA8A3",
"8 c #564444",
"9 c #C87511",
"0 c #885B2E",
"q c #AA762B",
"w c #613B31",
"e c #564E4E",
"r c #565555",
"t c #DA800B",
"y c #565454",
"u c #564242",
"i c #BC7A20",
"p c #F69003",
"a c #564848",
"s c #986E34",
"d c #7C6443",
"f c #563D3D",
"g c #523000",
"h c #BC7C22",
"j c #E78807",
"k c #563E3E",
"l c #AE6719",
"z c #564646",
"x c #726048",
"c c #603A31",
"v c #565151",
"b c #EF8F08",
"n c #ED8B06",
"m c #8A6A3C",
"M c #74462B",
"N c #564545",
"B c #5A5754",
"V c #F28D04",
"C c #CB821A",
"Z c #6E422D",
"A c #82663F",
"S c #AC6519",
"D c #E88807",
"F c #564F4F",
"G c #F39106",
"H c #5C3832",
"J c #663C00",
"K c #3F2600",
"L c #675C4E",
"P c #E29523",
"I c #AB9367",
"U c #ABAAA8",
"Y c #ABA497",
"T c #241500",
"R c #AB9A7A",
"E c #806641",
"W c #A05F1D",
"Q c #605A51",
"! c #EE8C05",
"~ c #EC8F0A",
"^ c #9E5E1E",
"/ c #96642B",
"( c #603900",
") c #CBA36B",
"_ c #966E36",
"` c #926C38",
"' c #564D4D",
"] c #4C2D00",
"[ c #5A3500",
"{ c #ABABAA",
"} c #564949",
/* pixels */
"        .X         ",
"        .X         ",
"        .          ",
"        .          ",
"        .          ",
"...................",
".XX                ",
".X                 ",
".X                 ",
".X                 ",
".X                 ",
".X                 ",
".                  ",
".                  ",
".                 o",
".      O+@ oooooooo",
"...#$%%%%%&%*......",
"X =%%%%%%%%%&-XXXXX",
"  ;%%%%%%%%%%%:    ",
"  >%%%,<12&%%%3    ",
"  ;%4556.789%%%0   ",
"  qw5e  .X r&%%ty  ",
"   u    .X  i%%pa  ",
"        .   s%%%6  ",
"        .   d%%%f  ",
"............g%%%...",
".XXXXXXXXX  h%%jk  ",
".XX         %%%lz  ",
".X         x&%%cv  ",
".X         b%%n5   ",
".X        m%%&MN   ",
".X       B%%%V5    ",
".        C%%&Z8    ",
".       A&%%S5     ",
".      O%%%D5F   oo",
".      G%%%Hz    oo",
"......J%%%K........",
"X    L&%%PIUXXXXXXX",
"     %%%&IY        ",
"    h%%%TR         ",
"   E%%%W.X         ",
"  Q&%%!5.X         ",
"  ~%%&^/()_____`   ",
"  %%%%%%%%%%%%%%'  ",
"  %%%%%%%%%%%%%%5  ",
"oo%%%%%%%%%%%%%%5oo",
"..](((((((((((([...",
".X{}}}}}}}}}}}}}'  ",
".XX                ",
".X                 ",
".X                 ",
".X                 ",
".X                 ",
".                 o",
".                 o",
".                oo",
"...................",
"        .XX        ",
"        .XX        ",
"        .X         ",
"        .X         ",
"        .X         ",
"        .          ",
"oooooooo.        oo"
};
