/* XPM */
static char *result[] = {
/* columns rows colors chars-per-pixel */
"19 64 107 2 ",
"   c #565656",
".  c black",
"X  c gray67",
"o  c gray20",
"O  c #575756",
"+  c #726147",
"@  c #8E6B3A",
"#  c #6F6049",
"$  c #8E5300",
"%  c #FF9600",
"&  c #FF9500",
"*  c #734300",
"=  c #E08A0F",
"-  c #E09D3E",
";  c #AB7429",
":  c #946D37",
">  c #605A51",
",  c #F28D04",
"<  c #2B1900",
"1  c #AB9367",
"2  c #7A4929",
"3  c #595755",
"4  c #B8761F",
"5  c #5D3832",
"6  c #ABA79F",
"7  c #563C3C",
"8  c #643C30",
"9  c #A07230",
"0  c #AB651A",
"q  c #564545",
"w  c #BF7014",
"e  c #63584D",
"r  c #565050",
"t  c #5F3931",
"y  c #585655",
"u  c #A06927",
"i  c #564848",
"p  c #88683D",
"a  c #D8810D",
"s  c #D48010",
"d  c #565353",
"f  c #EA8907",
"g  c #C17E1F",
"h  c #693D00",
"j  c #8B5200",
"k  c #DF8200",
"l  c #BCA686",
"z  c #905624",
"x  c #ABAAA9",
"c  c #6D5F4B",
"v  c #82542D",
"b  c #ABA69D",
"n  c #615B51",
"m  c #765033",
"M  c #ABA497",
"N  c #694B3B",
"B  c #ABA393",
"V  c #5C4842",
"C  c #ABA28F",
"Z  c #584846",
"A  c #564949",
"S  c #644E42",
"D  c #564A4A",
"F  c #72523A",
"G  c #564C4C",
"H  c #805832",
"J  c #564D4D",
"K  c #7C6443",
"L  c #8E5C2B",
"P  c #4C2D00",
"I  c #EE8B00",
"U  c #EC8B06",
"Y  c #AD7829",
"T  c #E0962A",
"R  c #EA9721",
"E  c #C07113",
"W  c #EA8D0A",
"Q  c #A86F25",
"!  c #885025",
"~  c #695A4A",
"^  c #58403E",
"/  c #706048",
"(  c #846239",
")  c #FB9301",
"_  c #DF840A",
"`  c #8A5224",
"'  c #9E7131",
"]  c #B27825",
"[  c #74553A",
"{  c #563E3E",
"}  c #F99202",
"|  c #F1991B",
" . c #E0840A",
".. c #565454",
"X. c #6E422D",
"o. c #5F4B43",
"O. c #332B2B",
"+. c #593619",
"@. c #6B412F",
"#. c #060300",
"$. c #905400",
"%. c #EB8900",
"&. c #E78700",
"*. c #814B00",
"=. c #010100",
"-. c #563434",
";. c #563A3A",
/* pixels */
"                . X                   ",
"                . X                   ",
"                .                     ",
"                .                     ",
"                .                     ",
". . . . . . . . . . . . . . . . . . . ",
". X X                                 ",
". X                                   ",
". X                                   ",
". X                                   ",
". X                                   ",
". X                                   ",
".                                     ",
".                                     ",
".                                   o ",
".             O + @ # o o o o o o o o ",
". . . . . . $ % % % % & * . . . . . . ",
"X         = % % % % % % % - X X X X X ",
"        ; % % % % & % % % % :         ",
"      > % % % , < 1 2 % % % & 3       ",
"      4 % % % 5 . 6 7 8 % % % 9       ",
"      % % % 0   . X   q w % % &       ",
"    e % % % r   . X     t & % & y     ",
"    u % % &     .       i & % % p     ",
"    a % % s     .       d f % % g     ",
". . % % % h . . . . . . . j % % k . . ",
". X % % % l X X X X       z % % &     ",
". x % % % c               v % % %     ",
". b & % % n               m % % &     ",
". M % % %                 N % % &     ",
". B % % &                 V % % &     ",
". C % % &                 Z % % %     ",
". A % % &                 S % % %     ",
". D & % % n               F % % &     ",
". G % % % #               H % % & o o ",
". J % % % K               L % % & o o ",
". . % % % P . . . . . . . h % % I . . ",
"X   U % % Y     . X X X X T % % R X X ",
"    E % % W     . X X     % % % Q     ",
"    ! % % %     . X       % % % ~     ",
"    ^ % % % /   . X     ( % % &       ",
"    D ) % % &   . X     & % % _       ",
"      ` % % % ' . X   ] % % & [       ",
"      { } % % % & | % & % %  .        ",
"      ..X.& % % % % % % % & o.        ",
"o o o o O.+.& % % % % % & @.      o o ",
". . . . . . #.$.%.% &.*.=.. . . . . . ",
". X X       d { -.-.;.G               ",
". X X                                 ",
". X                                   ",
". X                                   ",
". X                                   ",
". X                                   ",
".                                   o ",
".                                   o ",
".                                 o o ",
". . . . . . . . . . . . . . . . . . . ",
"                . X X                 ",
"                . X X                 ",
"                . X                   ",
"                . X                   ",
"                . X                   ",
"                .                     ",
"o o o o o o o o .                 o o "
};
