/* XPM */
static char *f49ad55fdd9a4ed5d288cffa110455a6E27TlvthRu609ycD[] = {
/* columns rows colors chars-per-pixel */
"19 64 115 2 ",
"   c #565656",
".  c black",
"X  c gray67",
"o  c gray20",
"O  c #625A50",
"+  c #84673F",
"@  c #715223",
"#  c #4E412C",
"$  c #663C00",
"%  c #FF9500",
"&  c #FF9600",
"*  c #C37200",
"=  c #492B00",
"-  c #B37926",
";  c #FB9708",
":  c #A8762C",
">  c #F69004",
",  c #7A6443",
"<  c #E9941B",
"1  c #8A5324",
"2  c #693F2E",
"3  c #A2601D",
"4  c #E58608",
"5  c #1E1200",
"6  c #AB9C80",
"7  c #565050",
"8  c #564F4F",
"9  c #564444",
"0  c #563434",
"q  c #623B30",
"w  c #90602C",
"e  c #82653E",
"r  c #70432C",
"t  c #564D4D",
"y  c #E4880A",
"u  c #D27B0E",
"i  c #565555",
"p  c #72563E",
"a  c #80623D",
"s  c #965800",
"d  c #D07A00",
"f  c #EF9614",
"g  c #E09934",
"h  c #AFA9A2",
"j  c #E49C38",
"k  c #F19007",
"l  c #B27927",
"z  c #6E5F4A",
"x  c #A26D2A",
"c  c #7E6642",
"v  c #CC831A",
"b  c #9E7030",
"n  c #E98E0B",
"m  c #575756",
"M  c #ABAAA7",
"N  c #EA8907",
"B  c #AF7828",
"V  c #ABA8A3",
"C  c #F18D04",
"Z  c #563939",
"A  c #6D422D",
"S  c #ABA69E",
"D  c #584644",
"F  c #564A4A",
"G  c #7C4928",
"H  c #906C38",
"J  c #A36520",
"K  c #564242",
"L  c #DB8812",
"P  c #585352",
"I  c #9E5E1E",
"U  c #FB9302",
"Y  c #565151",
"T  c #644135",
"R  c #565353",
"E  c #F28E05",
"W  c #564646",
"Q  c #E18400",
"!  c #D87E00",
"~  c #030200",
"^  c #CB7710",
"/  c #FA9302",
"(  c #ABA597",
")  c #9E5D1E",
"_  c #70543D",
"`  c #595755",
"'  c #A76B23",
"]  c #9C7132",
"[  c #FC9401",
"{  c #E3870B",
"}  c #565252",
"|  c #CE7A0F",
" . c #F39106",
".. c #98662B",
"X. c #663D2F",
"o. c #5A5754",
"O. c #564848",
"+. c #C57512",
"@. c #EF9A20",
"#. c #EE8F09",
"$. c #A16521",
"%. c #593633",
"&. c #D97F0C",
"*. c #332F2F",
"=. c #3D251D",
"-. c #C07113",
";. c #564747",
":. c #543100",
">. c #D57C00",
",. c #DB8100",
"<. c #7C4900",
"1. c #1C1000",
"2. c #563737",
"3. c #563B3B",
"4. c #565454",
/* pixels */
"                . X                   ",
"                . X                   ",
"                .                     ",
"                .                     ",
"                .                     ",
". . . . . . . . . . . . . . . . . . . ",
". X X                                 ",
". X                                   ",
". X                                   ",
". X                                   ",
". X                                   ",
". X                                   ",
".                                     ",
".                                     ",
".                                   o ",
".                 O + @ # o o o o o o ",
". . . . . . . $ % & & & & & * = . . . ",
"X           - & & & & & & & & ; X X X ",
"          : & & & & & & & & & >       ",
"        , % & & % < 1 2 3 4 & >       ",
"        % & & & 5 6 7 8 9 0 q w       ",
"      e & & % r . X         7 t       ",
"      y & & u i . X                   ",
"      & & & p   .                     ",
"    a & & %     .                     ",
". . s & & d . . . . . . . . . . . . . ",
". X f & & g X h j % k l z             ",
". X & & & x c & & & & & & v           ",
". X % & & b % & & & & & & & n m       ",
". M & & & % & & & N & & & & & B       ",
". V & & & & & C 0 Z 0 A & & & %       ",
". S % & & & & D       F G % & & H     ",
". 8 & & & & J           K & & & L     ",
". 7 % & & & P           i I & & U     ",
". Y & & & %               T & & & o o ",
". R & & & E               W % & % o o ",
". . Q & & ! . . . . . . . . % & & ~ . ",
"X   ^ & & /     . X X X X ( & & & X X ",
"    ) & & %     . X X     _ & & &     ",
"    T % & % `   . X       ' & & %     ",
"    W & & & ]   . X       [ & & {     ",
"    } | & &  .  . X     O % & & ..    ",
"      X.% & & - . X   o.& & & & R     ",
"      O.+.& & % % @.#.% & & & $.      ",
"        %.% & & & & & & & & &.}       ",
"o o o o *.=.& & & & & & & -.;.    o o ",
". . . . . . . :.>.& ,.<.1.. . . . . . ",
". X X         9 2.0 3.O.4.            ",
". X X                                 ",
". X                                   ",
". X                                   ",
". X                                   ",
". X                                   ",
".                                   o ",
".                                   o ",
".                                 o o ",
". . . . . . . . . . . . . . . . . . . ",
"                . X X                 ",
"                . X X                 ",
"                . X                   ",
"                . X                   ",
"                . X                   ",
"                .                     ",
"o o o o o o o o .                 o o "
};
