/* XPM */
static char *result[] = {
/* columns rows colors chars-per-pixel */
"19 64 133 2 ",
"   c #565656",
".  c black",
"X  c gray67",
"o  c gray20",
"O  c #685D4D",
"+  c #8E6B3A",
"@  c #655C4F",
"#  c #1F1200",
"$  c #F79100",
"%  c #FF9600",
"&  c #EA8900",
"*  c #150C00",
"=  c #9E7132",
"-  c #FF9500",
";  c #C9A36F",
":  c #6A5E4C",
">  c #605A51",
",  c #ED8D08",
"<  c #9A5C1F",
"1  c #AB9367",
"2  c #563434",
"3  c #B06818",
"4  c #D68615",
"5  c #565555",
"6  c #B86C16",
"7  c #564545",
"8  c #ABAAA7",
"9  c #564B4B",
"0  c #CF7A0F",
"q  c #74593E",
"w  c #584F4D",
"e  c #5E3932",
"r  c #5F5952",
"t  c #9F6626",
"y  c #F38F04",
"u  c #564C4C",
"i  c #88683D",
"p  c #BE7316",
"a  c #D48111",
"s  c #E78807",
"d  c #A9752B",
"f  c #AD6719",
"g  c #E3880C",
"h  c #F59003",
"j  c #986D32",
"k  c #5B3600",
"l  c #372100",
"z  c #AE9A73",
"x  c #B1A99F",
"c  c #725F47",
"v  c #575756",
"b  c #ABA394",
"n  c #D77E0C",
"m  c #EC8F0A",
"M  c #5A5754",
"N  c #BD7115",
"B  c #5B3733",
"V  c #BA7B23",
"C  c #9C7132",
"Z  c #BD7D21",
"A  c #574F4E",
"S  c #565050",
"D  c #673E2F",
"F  c #F69003",
"G  c #EA8907",
"H  c #60453C",
"J  c #564D4D",
"K  c #865025",
"L  c #7E5431",
"P  c #DA8813",
"I  c #C7811C",
"U  c #B07728",
"Y  c #EB8A06",
"T  c #985A20",
"R  c #653D30",
"E  c #9E5D1E",
"W  c #F79102",
"Q  c #9E7131",
"!  c #5D5853",
"~  c #9C5D1E",
"^  c #563E3E",
"/  c #565252",
"(  c #564444",
")  c #B26A18",
"_  c #585655",
"`  c #B47521",
"'  c #FE9400",
"]  c #564F4F",
"[  c #563737",
"{  c #A17330",
"}  c #F99202",
"|  c #986128",
" . c #565353",
".. c #AC6519",
"X. c #E68B0C",
"o. c #311C00",
"O. c #4E2E00",
"+. c #B69A6C",
"@. c #695D4D",
"#. c #7A5536",
"$. c #9C6426",
"%. c #FD9501",
"&. c #D18517",
"*. c #E68709",
"=. c #DD850D",
"-. c #D37D0D",
";. c #5C5953",
":. c #675C4E",
">. c #BD781C",
",. c #7C4928",
"<. c #5E5952",
"1. c #6B5644",
"2. c #564040",
"3. c #ED8B06",
"4. c #F18D00",
"5. c #ED9A24",
"6. c #FA9403",
"7. c #D67E0D",
"8. c #6D422D",
"9. c #604F46",
"0. c #332B2B",
"q. c #42281D",
"w. c #5D3C36",
"e. c #633B00",
"r. c #AB6500",
"t. c #E78700",
"y. c #E18400",
"u. c #A56200",
"i. c #543100",
"p. c #563D3D",
"a. c #563535",
"s. c #563A3A",
"d. c #564242",
/* pixels */
"                . X                   ",
"                . X                   ",
"                .                     ",
"                .                     ",
"                .                     ",
". . . . . . . . . . . . . . . . . . . ",
". X X                                 ",
". X                                   ",
". X                                   ",
". X                                   ",
". X                                   ",
". X                                   ",
".                                     ",
".                                     ",
".                                   o ",
".               O + @ o o o o o o o o ",
". . . . . # $ % % % % % & * . . . . . ",
"X       = - % % % % % % % % ; X X X X ",
"      : - % % % - % - % % % - >       ",
"      , % % % < . 1 2 3 - % % 4       ",
"    5 % % % 6 7 . 8 9 2 0 % % %       ",
"    q % % % w   . X     e - % % r     ",
"    t % % y     . X     u % % % i     ",
"    p % % a     .         s % % d     ",
"    f % % g     .         h % % j     ",
". . k % % % . . . . . . . - % % l . . ",
". X z % % - x X X X     c % % - v     ",
". X b n % % m v       M - % % N       ",
". X   B % % % - V C Z - % % - A       ",
". X   S D F % % % % % % % G H         ",
". X     J K - % % % % % - L           ",
". X     P % % % % % % % % % I         ",
".     U % % % Y T R E W % % % Q       ",
".   ! % % % ~ ^ u / ( 2 ) % % % _     ",
".   ` % % ' ]         5 [ % % % { o o ",
".   } % % |              ...% % X.o o ",
". . % % % o.. . . . . . . O.% % % . . ",
"X 5 - % % M     . X X X X +.% % - X X ",
"  J % % % @.    . X X     #.% % -     ",
"  S % % % i     . X       $.% % %.    ",
"    y % % &.    . X       *.% % =.    ",
"    -.% % % ;.  . X     :.- % % >.    ",
"    ,.- % % % <.. X   @ - % % - 1.    ",
"    2.3.% % % % 4.5.6.% % % % 7.      ",
"    5 8.% % % % % % % % % % - 9.      ",
"o o o 0.q.- % % % % % % % Y w.    o o ",
". . . . . . e.r.t.% y.u.i.. . . . . . ",
". X X     5 7 p.a.2 s.d.]             ",
". X X                                 ",
". X                                   ",
". X                                   ",
". X                                   ",
". X                                   ",
".                                   o ",
".                                   o ",
".                                 o o ",
". . . . . . . . . . . . . . . . . . . ",
"                . X X                 ",
"                . X X                 ",
"                . X                   ",
"                . X                   ",
"                . X                   ",
"                .                     ",
"o o o o o o o o .                 o o "
};
