/* XPM */
static char *result[] = {
/* columns rows colors chars-per-pixel */
"19 64 103 2 ",
"   c #565656",
".  c black",
"X  c gray67",
"o  c gray20",
"O  c #6C5E4B",
"+  c #8A6A3C",
"@  c #615B51",
"#  c #1B1100",
"$  c #DC8000",
"%  c #FF9600",
"&  c #FF9500",
"*  c #402500",
"=  c #786345",
"-  c #C9A36E",
";  c #746146",
":  c #705F49",
">  c #E98C09",
",  c #965920",
"<  c #010100",
"1  c #AB9367",
"2  c #7C4928",
"3  c #695D4D",
"4  c #8E5423",
"5  c #564141",
"6  c #ABA498",
"7  c #563B3B",
"8  c #70432C",
"9  c #766245",
"0  c #D48212",
"q  c #565050",
"w  c #564545",
"e  c #CF7A0F",
"r  c #D98713",
"t  c #A26623",
"y  c #70422C",
"u  c #565555",
"i  c #64584C",
"p  c #564444",
"a  c #645B4F",
"s  c #565151",
"d  c #A07230",
"f  c #180D00",
"g  c #F99100",
"h  c #AF6700",
"j  c #AD9F88",
"k  c #E58A0B",
"l  c #ABA08C",
"z  c #575756",
"x  c #ABA497",
"c  c #706048",
"v  c #ABA8A3",
"b  c #B17927",
"n  c #785F40",
"m  c #BD7014",
"M  c #E5880A",
"N  c #5F3931",
"B  c #C17E1F",
"V  c #946E36",
"C  c #564949",
"Z  c #DF830A",
"A  c #DB8812",
"S  c #AC762A",
"D  c #A17330",
"F  c #CC831A",
"G  c #6B3F2E",
"H  c #CB7710",
"J  c #564A4A",
"K  c #663D2F",
"L  c #B06818",
"P  c #A7661E",
"I  c #564D4D",
"U  c #583533",
"Y  c #945721",
"T  c #E48608",
"R  c #7E4B28",
"E  c #C47414",
"W  c #E4880A",
"Q  c #D57C00",
"!  c #975800",
"~  c #C8A167",
"^  c #6D5D48",
"/  c #5C5953",
"(  c #C57A17",
")  c #E58B0D",
"_  c #575352",
"`  c #E18A0F",
"'  c #9A7034",
"]  c #5D5853",
"[  c #CC8219",
"{  c #AC671B",
"}  c #E48C0E",
"|  c #F79102",
" . c #5F4840",
".. c #BE700A",
"X. c #5F3E37",
"o. c #130C00",
"O. c #A66100",
"+. c #CC7800",
"@. c #432700",
"#. c #563C3C",
"$. c #563434",
"%. c #563535",
"&. c #563D3D",
/* pixels */
"                . X                   ",
"                . X                   ",
"                .                     ",
"                .                     ",
"                .                     ",
". . . . . . . . . . . . . . . . . . . ",
". X X                                 ",
". X                                   ",
". X                                   ",
". X                                   ",
". X                                   ",
". X                                   ",
".                                     ",
".                                     ",
".                                   o ",
".               O + @ o o o o o o o o ",
". . . . . # $ % % % % & * . . . . . . ",
"X       = % % % % % % % & - X X X X X ",
"      ; & % % % % % % % % & :         ",
"      > % % % , < 1 2 & % % %         ",
"    3 & % & 4 5 . 6 7 8 & % % 9       ",
"    0 % % % q   . X   w e % % r       ",
"    % % % t     . X     y & % &       ",
"  u & % % i     .       p & % % a     ",
"  q & % %       .       s % % % d     ",
". f % % % . . . . . . . . g % % h . . ",
". j % % % X X X X X       & % % k     ",
". l & % % z               & % % %     ",
". x & % % c             u % % % %     ",
". v & % % b             n % % % %     ",
". X m % % &             M % % % %     ",
". X N & % % B         V & % % % &     ",
".   C Z % % % A S D F & % % % % %     ",
".     G % % % % % % % % % H % % %     ",
".     J K % % % % % % & L P % % & o o ",
".       I U Y T & & & R J E % % W o o ",
". . . . . . . . . . . . . Q % % ! . . ",
"X               . X X X X % % % ~ X X ",
"                . X X   ^ % % & /     ",
"                . X     ( % % &       ",
"                . X     & % % t       ",
"                . X   ) % % & _       ",
"      ` ' ]     . X [ % % % {         ",
"      % % % % } & % % % % | q         ",
"      % % % % % % % % % %  .          ",
"o o o ..% % % % % % % % X.        o o ",
". . . . o.O.& % & +.@.. . . . . . . . ",
". X X   q #.$.$.%.&.s                 ",
". X X                                 ",
". X                                   ",
". X                                   ",
". X                                   ",
". X                                   ",
".                                   o ",
".                                   o ",
".                                 o o ",
". . . . . . . . . . . . . . . . . . . ",
"                . X X                 ",
"                . X X                 ",
"                . X                   ",
"                . X                   ",
"                . X                   ",
"                .                     ",
"o o o o o o o o .                 o o "
};
