/* XPM */
static char *_35350bb053d4c84d9087984d4025874UuMqso1jv32kHo5h[] = {
/* columns rows colors chars-per-pixel */
"19 64 70 1 ",
"  c #565656",
". c black",
"X c gray67",
"o c gray20",
"O c #C97600",
"+ c #FF9600",
"@ c #2D1B00",
"# c #BAA78C",
"$ c #FF9500",
"% c #BFA783",
"& c #F59814",
"* c #7E4C28",
"= c #1F1200",
"- c #CC7800",
"; c #7C4A28",
": c #625A50",
"> c #C47312",
", c #D08318",
"< c #5F3931",
"1 c #5F5952",
"2 c #D77E0C",
"3 c #563434",
"4 c #C3801E",
"5 c #673E2F",
"6 c #060300",
"7 c #E18400",
"8 c #3C2400",
"9 c #DA9F4A",
"0 c #BB9454",
"q c #AB9367",
"w c #575756",
"e c #FE9400",
"r c #564545",
"t c #A8762C",
"y c #824D26",
"u c #564141",
"i c #9A7133",
"p c #9C5C1F",
"a c #565555",
"s c #563D3D",
"d c #88693C",
"f c #AF6818",
"g c #565353",
"h c #583533",
"j c #563939",
"k c #7A6443",
"l c #C27313",
"z c #565151",
"x c #D58515",
"c c #9E5E1E",
"v c #965A21",
"b c #966E36",
"n c #B36A17",
"m c #453C2F",
"M c #C77500",
"N c #5D3600",
"B c #DA8813",
"V c #CA9D5D",
"C c #945721",
"Z c #766245",
"A c #965920",
"S c #603900",
"D c #CB9440",
"F c #653D30",
"G c #564C4C",
"H c #564949",
"J c #ABA291",
"K c #482A00",
"L c #0F0900",
"P c #564B4B",
/* pixels */
"        .X         ",
"        .X         ",
"        .          ",
"        .          ",
"        .          ",
"...................",
".XX                ",
".X                 ",
".X                 ",
".X                 ",
".X                 ",
".X                 ",
".                  ",
".                  ",
".                 o",
".          oooooooo",
"..........O+++@....",
"X       .#$+++%XXXX",
"        .&++++*    ",
"        =$+$++*    ",
"        -+$+++;    ",
"       :$+>+++*    ",
"       ,++<+++*    ",
"      1$+23+++*    ",
"      4++53+++*    ",
".....6$+7..+++8....",
".XXXX9+$0q +++*    ",
".XX w++e3r +++*    ",
".X  t++y3  +++*    ",
".X  +++3u  +++*    ",
".X i++p3a  +++*    ",
".X ++$3s   +++*    ",
". d++f3g   +++*    ",
". ++$hj    +++*    ",
".k++l3z    +++*  oo",
".x++cvbbbbb+++nbbmo",
".M+++++++++++++++N.",
"XB+++++++++++++++VX",
" B+++++++++++++++C ",
" ZAAAAAASDA+++nAAF ",
"  333333.q3+++*333 ",
"  GHHHHH.JH+++*HHH ",
"        .X +++*    ",
"        .X +++*    ",
"        .  +++*    ",
"oooooooo.  +++*  oo",
"...........KSSL....",
".XX        a333    ",
".XX         HHP    ",
".X                 ",
".X                 ",
".X                 ",
".X                 ",
".                 o",
".                 o",
".                oo",
"...................",
"        .XX        ",
"        .XX        ",
"        .X         ",
"        .X         ",
"        .X         ",
"        .          ",
"oooooooo.        oo"
};
