/* XPM */
static char *_f60fa21a4b54271e98d26a03776f5225aWa08bcGnt1sqhX[] = {
/* columns rows colors chars-per-pixel */
"19 64 63 1 ",
"  c #565656",
". c black",
"X c gray67",
"o c gray20",
"O c #995A00",
"+ c #FF9600",
"@ c #693D00",
"# c #DE830B",
"$ c #DA9E48",
"% c #DE820A",
"& c #906834",
"* c #9A5B1F",
"= c #D57D0D",
"- c #C07000",
"; c #EA9419",
": c #F08D05",
"> c #FF9500",
", c #575655",
"< c #563838",
"1 c #563434",
"2 c #AB9367",
"3 c #C17213",
"4 c #BA721A",
"5 c #5A5754",
"6 c #725A42",
"7 c #966930",
"8 c #DC830D",
"9 c #E58709",
"0 c #6C3F00",
"q c #6C5E4A",
"w c #5D5651",
"e c #B07121",
"r c #F79203",
"t c #C87914",
"y c #805E39",
"u c #84643A",
"i c #CB7B14",
"p c #F28D04",
"a c #AB6C22",
"s c #5D5752",
"d c #66594B",
"f c #9F6A2A",
"g c #E68709",
"h c #D57F0F",
"j c #553100",
"k c #725D45",
"l c #ABAAA8",
"z c #BA741C",
"x c #B8721B",
"c c #575756",
"v c #725B43",
"b c #8E6433",
"n c #D5800F",
"m c #F19512",
"M c #CE9C52",
"N c #665A4C",
"B c #985F15",
"V c #301C00",
"C c #603900",
"Z c #331E00",
"A c #564C4C",
"S c #564949",
"D c #565252",
/* pixels */
"        .X         ",
"        .X         ",
"        .          ",
"        .          ",
"        .          ",
"...................",
".XX                ",
".X                 ",
".X                 ",
".X                 ",
".X                 ",
".X                 ",
".                  ",
".                  ",
".                 o",
".          oooooooo",
"..O+++++++++++++@..",
"X #+++++++++++++$XX",
"  %+++++++++++++&  ",
"  *=====-;==:++>,  ",
"  <11111.2113+++   ",
"        .X  +++4   ",
"        .X 5>++6   ",
"        .  7++>    ",
"        .  8++9    ",
"...........+++0....",
".XXXXXXXXXq++>w    ",
".XX       e++>     ",
".X        r++t     ",
".X        +++y     ",
".X       u+++      ",
".X       i++p      ",
".        +++a      ",
".       s>++d      ",
".       f+++     oo",
".       g++h     oo",
"........+++j.......",
"X      k++>lXXXXXXX",
"       z++>        ",
"       +++x        ",
"      c>++v        ",
"      b+++         ",
"      n++m         ",
"      +++M         ",
"     N++>w         ",
"oooooB+++        oo",
".....VCCZ..........",
".XX  ASSD          ",
".XX                ",
".X                 ",
".X                 ",
".X                 ",
".X                 ",
".                 o",
".                 o",
".                oo",
"...................",
"        .XX        ",
"        .XX        ",
"        .X         ",
"        .X         ",
"        .X         ",
"        .          ",
"oooooooo.        oo"
};
