/* XPM */
static char *_172dcbfdef3436ff29ce0260ee24675s4xXKNHGZDBPvgP5[] = {
/* columns rows colors chars-per-pixel */
"19 64 75 1 ",
"  c #565656",
". c black",
"X c gray67",
"o c gray20",
"O c #DC8000",
"+ c #FF9600",
"@ c #CF7A00",
"# c #565555",
"$ c #D57D0D",
"% c #C07000",
"& c #EA9419",
"* c #B16E1C",
"= c #FF9500",
"- c #563434",
"; c #AB9367",
": c #564444",
"> c #ABAAA8",
", c #C9A36F",
"< c #F1991C",
"1 c #EB9A28",
"2 c #9C7033",
"3 c #635B50",
"4 c #ABAAA9",
"5 c #AC762A",
"6 c #E38B0E",
"7 c #595755",
"8 c #C5801D",
"9 c #A4601C",
"0 c #633C30",
"q c #6C412D",
"w c #D07A0E",
"e c #5D5853",
"r c #693F2E",
"t c #563636",
"y c #564A4A",
"u c #564D4D",
"i c #8C5323",
"p c #BF7D20",
"a c #565353",
"s c #563535",
"d c #E68608",
"f c #565454",
"g c #6F432C",
"h c #563F3F",
"j c #565050",
"k c #7E6541",
"l c #F48F00",
"z c #673D00",
"x c #C2A67C",
"c c #7C5E3D",
"v c #F79203",
"b c #8E6B3A",
"n c #585655",
"m c #8C6B3B",
"M c #CD7A11",
"N c #B0AAA0",
"B c #CF8418",
"V c #5E4E46",
"C c #E68C0D",
"Z c #B96E15",
"A c #D17B0E",
"S c #574B4A",
"D c #B0680C",
"F c #985A20",
"G c #563B3B",
"H c #010100",
"J c #603900",
"K c #CD7800",
"L c #FC9400",
"P c #A56200",
"I c #543100",
"U c #090600",
"Y c #563737",
"T c #564141",
"R c #564B4B",
/* pixels */
"        .X         ",
"        .X         ",
"        .          ",
"        .          ",
"        .          ",
"...................",
".XX                ",
".X                 ",
".X                 ",
".X                 ",
".X                 ",
".X                 ",
".                  ",
".                  ",
".                 o",
".          oooooooo",
"...O++++++++++@....",
"X #++++++++++++XXXX",
"  #++++++++++++    ",
"  #+++$$%&$$$$*    ",
"  #++=--.;----:    ",
"  #++=  .X         ",
"  #++=  .X         ",
"  #++=  .          ",
"  #++=  .          ",
"...++=.............",
".X>++=,<=123       ",
".X4++++++++=5      ",
".X#++++++++++67    ",
".X#+++++=+++++8    ",
".X#=+90--qw++++e   ",
".X#rty#  u-i+++p   ",
".  a      #sd+++   ",
".          fg=+=   ",
".           h+++7oo",
".           j+++koo",
".............l++z..",
"X       .XXXX+++xXX",
"        .XX #+++e  ",
"        .X  c+++   ",
"        .X  v++=   ",
"  bn    .X m+++M   ",
"  ==2   .NB++++V   ",
"  =++++C++++++Z    ",
"  =+++++++++=AS    ",
"ooD=++++++++FG   oo",
"...HJK=+LPIU.......",
".XXf:Y--YTR#       ",
".XX                ",
".X                 ",
".X                 ",
".X                 ",
".X                 ",
".                 o",
".                 o",
".                oo",
"...................",
"        .XX        ",
"        .XX        ",
"        .X         ",
"        .X         ",
"        .X         ",
"        .          ",
"oooooooo.        oo"
};
