/* XPM */
static char *d4c01bd9932e44c5a21f35fb7175549049oHyl2QULjBtayv[] = {
/* columns rows colors chars-per-pixel */
"19 64 97 2 ",
"   c #565656",
".  c black",
"X  c gray67",
"o  c gray20",
"O  c #5D5853",
"+  c #786345",
"@  c #8E6B39",
"#  c #786444",
"$  c #575756",
"%  c #452900",
"&  c #BA6D00",
"*  c #FF9500",
"=  c #FF9600",
"-  c #6C3F00",
";  c #635A4F",
":  c #FC9606",
">  c #AFA9A2",
",  c #644C40",
"<  c #DB8812",
"1  c #634C41",
"2  c #FE9400",
"3  c #BB6F15",
"4  c #8A5224",
"5  c #0D0700",
"6  c #BB9454",
"7  c #A8641B",
"8  c #5D4943",
"9  c #A7631B",
"0  c #603A31",
"q  c #563838",
"w  c #564444",
"e  c #564E4E",
"r  c #ABA59B",
"t  c #563F3F",
"y  c #663D2F",
"u  c #D38516",
"i  c #564A4A",
"p  c #564B4B",
"a  c #AC6519",
"s  c #FE9401",
"d  c #643E32",
"f  c #564545",
"g  c #594D4B",
"h  c #3A2200",
"j  c #F28E05",
"k  c #DA820D",
"l  c #C17E1F",
"z  c #70533D",
"x  c #D18517",
"c  c #D58515",
"v  c #D68615",
"b  c #F29007",
"n  c #AF6818",
"m  c #565050",
"M  c #A9641A",
"N  c #8C6334",
"B  c #B97C23",
"V  c #564D4D",
"C  c #563434",
"Z  c #593633",
"A  c #905622",
"S  c #9C7033",
"D  c #565454",
"F  c #573534",
"G  c #F28D04",
"H  c #673E2F",
"J  c #7C6443",
"K  c #564949",
"L  c #FD9501",
"P  c #B87B24",
"I  c #C77500",
"U  c #AF6700",
"Y  c #DF9427",
"T  c #EA9926",
"R  c #DB810B",
"E  c #B8751F",
"W  c #946832",
"Q  c #6E5F4A",
"!  c #705F49",
"~  c #8A693B",
"^  c #585655",
"/  c #946D37",
"(  c #746146",
")  c #905A27",
"_  c #EA8900",
"`  c #565252",
"'  c #764B2F",
"]  c #8E5511",
"[  c #C77611",
"{  c #565151",
"}  c #010100",
"|  c #5D3600",
" . c #CC7800",
".. c #AC6400",
"X. c #565555",
"o. c #563C3C",
"O. c #564343",
/* pixels */
"                . X                   ",
"                . X                   ",
"                .                     ",
"                .                     ",
"                .                     ",
". . . . . . . . . . . . . . . . . . . ",
". X X                                 ",
". X                                   ",
". X                                   ",
". X                                   ",
". X                                   ",
". X                                   ",
".                                     ",
".                                     ",
".                                   o ",
".           O + @ # $ o o o o o o o o ",
". . . % & * = = = = = * - . . . . . . ",
"X   ; = = = = = = = = = = : > X X X X ",
"    , = = = = = = = = = = = <         ",
"    1 = = 2 3 4 5 6 7 * = = = #       ",
"    8 9 0 q w e . r t y * = = u       ",
"    e i         . X   p a = = s       ",
"                . X     d = = *       ",
"                .       f = = *       ",
"                .       g = = *       ",
". . . . . . . . . . . . h = = = . . . ",
". X X X X X X X X X     j = = k       ",
". X X                 l = = = z       ",
". X         x c v b * = = = n         ",
". X       m * = = = = = * M e         ",
". X       p = = = = = = * N           ",
". X       i * = = = = = = = B         ",
".         V C C C Z A = = = = S       ",
".                 D f F G = = *       ",
".                     D H * = = J o o ",
".                       K L = = P o o ",
". . . . . . . . . . . . . I = = U . . ",
"X               . X X X X Y = = T X X ",
"                . X X     R = = E     ",
"                . X       = = = W     ",
"                . X     Q * = = !     ",
"    ~ $         . X   ^ = = = *       ",
"    = = /       . X ( * = = = )       ",
"    = = = * < c _ * * = = = * `       ",
"    = = = = = = = = = = = * '         ",
"o o ] * = = = = = = = = [ F {     o o ",
". . . } |  .= = * ..| 5 . . . . . . . ",
". X X X.f q C C C o.O.e               ",
". X X                                 ",
". X                                   ",
". X                                   ",
". X                                   ",
". X                                   ",
".                                   o ",
".                                   o ",
".                                 o o ",
". . . . . . . . . . . . . . . . . . . ",
"                . X X                 ",
"                . X X                 ",
"                . X                   ",
"                . X                   ",
"                . X                   ",
"                .                     ",
"o o o o o o o o .                 o o "
};
