/* XPM */
static char *_a6553289c0c4041dc6e8768a72b5ae7L1ItfrVOYexdqbeb[] = {
/* columns rows colors chars-per-pixel */
"19 64 45 1 ",
"  c #565656",
". c black",
"X c gray67",
"o c gray20",
"O c #0F0900",
"+ c #6A3F00",
"@ c #C47300",
"# c #FF9600",
"$ c #6D4000",
"% c #BC7C22",
"& c #FF9500",
"* c #DB9E44",
"= c #B87822",
"- c #B87821",
"; c #CF7A0F",
": c #925721",
"> c #CA7600",
", c #B77821",
"< c #76462A",
"1 c #583533",
"2 c #563434",
"3 c #564040",
"4 c #564D4D",
"5 c #C17100",
"6 c #B67822",
"7 c #564E4E",
"8 c #C37200",
"9 c #945600",
"0 c #EB9418",
"q c #D77E0C",
"w c #DC9C42",
"e c #685D4D",
"r c #966E36",
"t c #F18D00",
"y c #DE870F",
"u c #605A51",
"i c #9F6D2D",
"p c #806640",
"a c #9F6121",
"s c #8C5413",
"d c #1B1100",
"f c #603900",
"g c #564F4F",
"h c #564949",
"j c #564A4A",
/* pixels */
"        .X         ",
"        .X         ",
"        .          ",
"        .          ",
"        .          ",
"...................",
".XX                ",
".X                 ",
".X                 ",
".X                 ",
".X                 ",
".X                 ",
".                  ",
".                  ",
".                 o",
".          oooooooo",
".....O+@###$.......",
"X  %&&#####*XXXXXXX",
"   &#######=       ",
"   &#######-       ",
"   &##;:>##,       ",
"   <12345##6       ",
"   7    8##=       ",
"        8##-       ",
"        8##-       ",
"........8##9.......",
".XXXXXXX0##-       ",
".XX     q##-       ",
".X      q##-       ",
".X      q##-       ",
".X      q##-       ",
".X      q##-       ",
".       q##-       ",
".       q##-       ",
".       q##-     oo",
".       q##-     oo",
"........8##9.......",
"X       8##wXXXXXXX",
"        8##-       ",
"        8##-       ",
"        8##-       ",
"        8##-       ",
"   errrrt##yrrrru  ",
"   i############p  ",
"   a############p  ",
"ooos############poo",
"...dffffffffffffO..",
".XXghhhhhhhhhhhj   ",
".XX                ",
".X                 ",
".X                 ",
".X                 ",
".X                 ",
".                 o",
".                 o",
".                oo",
"...................",
"        .XX        ",
"        .XX        ",
"        .X         ",
"        .X         ",
"        .X         ",
"        .          ",
"oooooooo.        oo"
};
