/* XPM */
static char *result[] = {
/* columns rows colors chars-per-pixel */
"96 64 177 2 ",
"   c #000000",
".  c #0A0500",
"X  c #0E0900",
"o  c #150C00",
"O  c #1F1100",
"+  c #281400",
"@  c #331B00",
"#  c #3A1B00",
"$  c #331919",
"%  c #331313",
"&  c #3A2200",
"*  c #332121",
"=  c #333333",
"-  c #431A11",
";  c #561F1F",
":  c #452800",
">  c #472700",
",  c #502F00",
"<  c #553100",
"1  c #58211F",
"2  c #613900",
"3  c #653100",
"4  c #783C00",
"5  c #63261D",
"6  c #6E2D1C",
"7  c #67281C",
"8  c #742F19",
"9  c #7F391B",
"0  c #562323",
"q  c #562A2A",
"w  c #5E322D",
"e  c #563636",
"r  c #563D3D",
"t  c #632B22",
"y  c #623A2F",
"u  c #743621",
"i  c #7A4700",
"p  c #7A552B",
"a  c #564545",
"s  c #564C4C",
"d  c #5A514E",
"f  c #565656",
"g  c #595656",
"h  c #5B5856",
"j  c #674F47",
"k  c #665C4E",
"l  c #655C56",
"z  c #6C5E56",
"x  c #74634C",
"c  c #746156",
"v  c #7C6456",
"b  c #803E00",
"n  c #8A3B16",
"m  c #824C00",
"M  c #9C4E00",
"N  c #944900",
"B  c #9C5300",
"V  c #9C5C00",
"C  c #8E4017",
"Z  c #8C451A",
"A  c #964314",
"S  c #9B4613",
"D  c #AE510F",
"F  c #B6570A",
"G  c #A24A12",
"H  c #AB4D10",
"J  c #A35318",
"K  c #A36000",
"L  c #AC6500",
"P  c #BE6000",
"I  c #B26900",
"U  c #854E37",
"Y  c #A1532B",
"T  c #986421",
"R  c #986934",
"E  c #B96D22",
"W  c #BF792F",
"Q  c #AC6137",
"!  c #BB6D3E",
"~  c #AB753E",
"^  c #B57333",
"/  c #BA7733",
"(  c #C35D0C",
")  c #C7600A",
"_  c #C76A00",
"`  c #DB6D07",
"'  c #D56908",
"]  c #C47400",
"[  c #C97700",
"{  c #CB7800",
"}  c #DF7206",
"|  c #C56A13",
" . c #D76D18",
".. c #D66A15",
"X. c #C67B13",
"o. c #E27506",
"O. c #E67902",
"+. c #EB7E04",
"@. c #E87A0C",
"#. c #E27913",
"$. c #C6792B",
"%. c #CA6925",
"&. c #9C7045",
"*. c #856856",
"=. c #8B6A56",
"-. c #816756",
";. c #946D56",
":. c #986F56",
">. c #9C7156",
",. c #AB7C49",
"<. c #AB7A45",
"1. c #B67B4C",
"2. c #A37356",
"3. c #AC7656",
"4. c #AF7856",
"5. c #B27956",
"6. c #BC7C56",
"7. c #C07D47",
"8. c #C27F56",
"9. c #DB8100",
"0. c #DA830E",
"q. c #EC8B00",
"w. c #EE8003",
"e. c #F48602",
"r. c #F58901",
"t. c #FA8D02",
"y. c #F38B09",
"u. c #EE900A",
"i. c #F69100",
"p. c #FF9600",
"a. c #F7930C",
"s. c #FA940A",
"d. c #EE8E15",
"f. c #EC8E1A",
"g. c #E88414",
"h. c #F08F15",
"j. c #EF9117",
"k. c #EE9018",
"l. c #F09015",
"z. c #FB9917",
"x. c #DD892C",
"c. c #D48537",
"v. c #DB8933",
"b. c #D78739",
"n. c #E58C24",
"m. c #E88D22",
"M. c #E18B2A",
"N. c #F89A29",
"B. c #AB814F",
"V. c #BF8946",
"C. c #AB8454",
"Z. c #AB8A5F",
"A. c #B18753",
"S. c #AB926F",
"D. c #AB987B",
"F. c #AB9679",
"G. c #CE8346",
"H. c #C7814E",
"J. c #CC8349",
"K. c #C68141",
"L. c #DE9C4D",
"P. c #F49E43",
"I. c #EFA05D",
"U. c #EBA068",
"Y. c #EBA471",
"T. c #AB9E87",
"R. c #ABA396",
"E. c #ABA9A5",
"W. c #ABABAB",
"Q. c #B7ABAB",
"!. c #DCA997",
"~. c #E6A790",
"^. c #CEABAB",
"/. c #D6ABAB",
"(. c #D3A9A3",
"). c #E2A9A2",
"_. c #E1ABAB",
/* pixels */
"f f f f f f f f   W.f f f f f f f f f f f f f f f   W.f f f f f f f f f f f f f f f f   W.f f f f f f f f f f f f f f f   f f f f f f f f f f f   W.f f f f f f f f f f f f f f f   W.f f f f f ",
"f f f f f f f f   W.f f f f f f f f f f f f f f f   W.f f f f f f f f f f f f f f f f   W.f f f f f f f f f f f f f f f   f f f f f f f f f f f   W.f f f f f f f f f f f f f f f   W.f f f f f ",
"f f f f f f f f   f f f f f f f f f f f f f f f f   f f f f f f f f f f f f f f f f f   f f f f f f f f f f f f f f f f   f f f f f f f f f f f   f f f f f f f f f f f f f f f f   f f f f f f ",
"f f f f f f f f   f f f f f f f f f f f f f f f f   f f f f f f f f f f f f f f f f f   f f f f f f f f f f f f f f f f   f f f f f f f f f f f   f f f f f f f f f f f f f f f f   f f f f f f ",
"f f f f f f f f   f f f f f f f f f f f f f f f =   f f f f f f f f f f f f f f f f =   f f f f f f f f f f f f f f f =   f f f f f f f f f f f   f f f f f f f f f f f f f f f =   f f f f f f ",
"                                                                                                                                                                                                ",
"  W.W.f f f f f f f f f f f f f f   W.W.f f f f f f f f f f f f f f   W.W.f f f f f f f f f f f f f f   W.W.f f f f f f f f f f   W.W.f f f f f f f f f f f f f f   W.W.f f f f f f f f f f f f ",
"  W.f f f f f f f f f f f f f f f   W.W.f f f f f f f f f f f f f f   W.W.f f f f f f f f f f f f f f   W.f f f f f f f f f f f   W.f f f f f f f f f f f f f f f   W.W.f f f f f f f f f f f f ",
"  W.f f f f f f f f f f f f f f f   W.f f f f f f f f f f f f f f f   W.f f f f f f f f f f f f f f f   W.f f f f f f f f f f f   W.f f f f f f f f f f f f f f f   W.f f f f f f f f f f f f f ",
"  W.f f f f f f f f f f f f f f f   W.f f f f f f f f f f f f f f f   W.f f f f f f f f f f f f f f f   W.f f f f f f f f f f f   W.f f f f f f f f f f f f f f f   W.f f f f f f f f f f f f f ",
"  W.f f f f f f f f f f f f f f f   W.f f f f f f f f f f f f f f f   W.f f f f f f f f f f f f f f f   W.f f f f f f f f f f f   W.f f f f f f f f f f f f f f f   W.f f f f f f f f f f f f f ",
"  W.f f f f f f f f f f f f f f f   W.f f f f f f f f f f f f f f f   W.f f f f f f f f f f f f f f f   W.f f f f f f f f f f f   W.f f f f f f f f f f f f f f f   W.f f f f f f f f f f f f f ",
"  f f f f f f f f f f f f f f f f   f f f f f f f f f f f f f f f f   f f f f f f f f f f f f f f f f   f f f f f f f f f f f f   f f f f f f f f f f f f f f f f   f f f f f f f f f f f f f f ",
"  f f f f g f f f f f f f f f f f   f f f f f f f f f f f f f f f f   f f f f f f f f f f f f f f f =   f f f f f f f f f f f f   f f f f f f f f f f f f f f f f   f f f f f f f f f f f f f f ",
"  f f f g g f f f f f f f f f f =   g g f f f f f f f f f f f f f = : :.3.>.*.f f f f f f f f f f h =   f f f f f f f f f f = =   f f f f f f f f f f f f f f f =   f h f f f f f f f f f f f f ",
"  f 6.8.A.H.3.f f = = = = = = = = 2 8.8.A.V.f f f f f = = = = = R ^ D H.v.n.b.H.4.h f f = = = = ^ ~ / o f f f f f f = = = = = = , 6.H.3.f f h H.H.^ ^ ^ ^ ^ ^ ^ 1.D A.H.2.f f f f f f = = = = = ",
"    L p.p.p.p.I                   K p.p.p.p.i.              . D K q.p.p.p.p.p.p.p.{ X           { p.p.p.                        V i.p.p.I   o 9.p.p.p.p.p.p.p.p.p.p.p.p.p.V                     ",
"W.f J.p.p.p.p.p.  W.W.W.W.W.W.W.W.).p.p.p.p.p.e f f   W.W.W._.).p.p.p.p.p.p.p.p.p.p.f.h W.W.W.W.(.p.p.p.V.f f f f f f f f W.W.W._.p.p.p.S s l l.p.p.p.p.p.p.p.p.p.p.p.p.p.' d f f f   W.W.W.W.W.",
"f f H.p.p.p.p.p.  W.W.f f f f f =.m.p.p.p.p.p.q f f   W.f 3.8.p.p.p.p.p.p.p.p.p.p.p.p.d.W.W.f f c p.p.p.' f f f f f f f f W.f c v.p.p.p.1 f l l.p.p.p.p.p.p.p.p.p.p.p.p.p.' f f f f   W.f f f f ",
"f f J.p.p.p.p.p.4 W.f f f f f f 5.s.p.p.p.p.p.q f f   W.c 8.p.p.p.p.p.' A 7 D e.p.p.p.p.L.f f f f a.p.p.p.d f f f f f f f f f 2.a.p.p.p.0 f l h.p.p.p.r.e.e.e.e.r.r.e.e.e.S s f f f   W.f f f f ",
"f f J.p.p.p.p.p.O.W.f f f f f f H.p.p.p.p.p.p.q f f   W.A.m.p.p.p.i.1 0 r s d r C p.p.p.p.g f f f b.p.p.p.e f f f f f f = f f H.p.p.p.' e f l l.p.p.p.; ; ; ; ; 0 ; ; ; 0 ; s f f f   W.f f f f ",
"f f J.p.p.p.p.p.p.T.f f f f f l J.p.p.p.p.p.p.q f f   Q.8.p.p.p.p.1 e h f f f f f E p.p.p.o.f f f ;.p.p.p.S f f f f f f = f f H.p.p.p.8 f f l l.p.p.i.e f f f f f f f f f f f f f f   W.f f f f ",
"f f J.p.p.p.s.p.p.A.f f f f f :.k.p.p.@.p.p.p.q f f   /.M.p.p.p.A q f f f f f f f f p.p.p.p.s f f l p.p.p.w.f f f f f f = f *.M.p.p.p.1 f f l l.p.p.p.e f f f f f f f f f f f f f f   W.f f f f ",
"f f J.p.p.p.#.p.p.( f f f f f 6.p.p.p. .p.p.p.q f f   8.s.p.p.p.0 f f f f f f f f f x.p.p.p.Z f f f k.p.p.p.a f f f f f = g 5.s.p.p.r.0 f f l j.p.p.p.e f f f f f f f f f f f f f f   f f f f f ",
"f f J.p.p.p.Y p.p.t.f f f f f 8.p.p.s. .p.p.p.q = =   H.p.p.p.O.q f f f f f f f f f v p.p.p.e.f f f 1.p.p.p.w f f f f = = f 8.p.p.p.F r f f l j.p.p.p.e f f f f f f f f f f f f = = K H.H.*.f f ",
"    I p.p.p.+ p.p.p.        @ { p.p.P _ p.p.p.      O ] p.p.p.#                       i.p.p.p.      : p.p.p.M             o I p.p.p..       o q.p.p.t.                              L p.p.s.o   ",
"  W.~.p.p.p.C.z.p.p.9 f f f 2.a.p.p./ U.p.p.p.Z.W.W.*.k.p.p.p.1 f f   W.W.W.W.W.W.W.W.P.p.p.p.q f f g s.p.p.s.E.W.W.W.W.W.;.j.p.p.p.~ W.W.W.Q.N.p.p.i.e f f f f f   W.W.W.W.W.W.W.W.H.p.p.p.t f ",
"  W.~.p.p.p.q c.p.p.` f f f 8.p.p.p.~ Y.p.p.p.q f f :.s.p.p.p.0 f f   W.W.f f f f f f v.p.p.p.6 f f f n.p.p.p.r f f f f f 6.p.p.p.a.Z.f f f l j.p.p.p.Q 3.4.3.3.3.m /./.l f f f f f H.p.p.p.5 f ",
"  W.J.p.p.p.q ;.p.p.p.d f h H.p.p.r.B.Y.p.p.p.q f f >.p.p.p.p.q f f   W.W.f f f f f f J.p.p.p.G f f f >.p.p.p.u f f f f f 8.p.p.p.$.a f f f l l.p.p.p.i.s.p.s.s.s.p.s.s.u.f f f f f H.p.p.p.5 f ",
"  W.J.p.p.p.0 l p.p.p.e f *.m.p.p.M F.Y.p.p.p.q f f 2.p.p.p.t.e f f   W.W.f f f f f f 6.p.p.p.F f f h z p.p.p.' f f f f c v.p.p.p.~ f f f f l l.p.p.p.p.p.p.p.p.p.p.p.p.p.e f f f f l p.p.p.5 f ",
"  W.J.p.p.p.q f j.p.p.J f 5.p.p.p.. E.b.p.p.p.q f f >.p.p.p.w.r f f   W.f f f f f f f 5.p.p.p.F f f f f r.p.p.i.f f f f 2.a.p.p.p.<.f f f f l l.p.p.p.p.p.p.p.p.p.p.p.p.p.0 f f f f f e 0 ; ; f ",
"  W.J.p.p.p.q f 7.p.p.w.f 8.p.p.p.  W.b.p.p.p.q f f >.p.p.p.@.a f f   W.f f f f f f f 6.p.p.p.) f f f = I p.p.p.e f f f H.p.p.p.F S.f f f f l l.p.p.p.p.p.p.p.p.p.p.p.p.p.0 f f f f f f f f f f ",
"  f J.p.p.p.q f *.p.p.p.j G.p.p.w.  f b.p.p.p.q f f :.p.p.p.e.s f f   f f f f f f f f 8.p.p.p.F g f f = < p.p.p.S f f g 8.p.p.p.+ f f f f f l l.p.p.p.; 0 ; ; ; ;   ; ; ; 0 f f f f f f f f f f ",
"  f G.p.p.p.q f h p.p.p.Y l.p.p.G   f b.p.p.p.e f f =.p.p.p.t.r f f   f f f f f f f f H.p.p.p.H f f f = X p.p.p.O.f f *.m.p.p.p.  f f f f f l j.p.p.p.e f f f f f   f f f f f f f f f f f f f f ",
"  f J.p.p.p.0 f f m.p.p.@.p.p.p.%   f b.p.p.p.q f f c p.p.p.p.r f =   f f f f f f f g G.p.p.p.S f f = =   f.p.p.p.s f 3.s.p.p.e.  f f f f f l d.p.p.t.e f f f = =   f f f f f f f f f f f f f f ",
"  f J.p.p.p.q f f 3.p.p.p.p.p.p.%   f b.p.p.p.q f f f a.p.p.p.e f =   f f f f f f g z v.p.p.p.0 f f = =   1.p.p.p.w f 8.p.p.p.D   f f f f f l d.p.p.p.e f f f = =   f f f f f f f f f f f f f f ",
"    I p.p.p.      & p.p.p.p.p._       ] p.p.p.        9.p.p.p.o                     i q.p.p.p.            & p.p.p.N o I p.p.p.              o q.p.p.t.                                          ",
"W.f J.p.p.p.q f   W.z.p.p.p.p.W R.W.W.b.p.p.p.q f f   !.p.p.p.g.W.W.W.f f f f f f f 8.p.p.p.p.<.W.W.W.W.W.g s.p.p.e.;.d.p.p.p.~ W.f f f f f l l.p.p.p.S.W.W.W.W.W.W.W.f f f f f f f   W.W.W.W.W.",
"f f J.p.p.p.q f   W.I.p.p.p.p.0 f f f b.p.p.p.q f f   Q.p.p.p.p.f f f f f f f f f z G.p.p.p.} e f f f f f f M.p.p.p.! p.p.p.o.e f f f f f f l l.p.p.p.e f f f f f f f f f f f f f f   W.f f f f ",
"f f J.p.p.p.0 f   W.-.p.p.p.t.0 f f f b.p.p.p.q f h   W.s.p.p.p.y f f f f f f f f 5.a.p.p.p.6 s f f f f f f :.p.p.p.%.p.p.p.9 s f f f f f f l l.p.p.t.e f f f f f f f f f f f f f f   W.f f f f ",
"f f J.p.p.p.q f   W.f 0.e.e.G e f f f b.p.p.p.q f f   W.&.p.p.p.+.g f f f f f f *.8.p.p.p.p.; f f f f f f f z p.p.p.t.p.p.p.; f f f f f f f l l.p.p.p.e f f f f f f f f f f f f f f K _.H.=.f f ",
"f f J.p.p.p.q f   W.f f q q q f f f f b.p.p.p.q f f   W.f s.p.p.p.$.g f f f f :.8.s.p.p.p.n e f f f f f f f f l.p.p.p.p.p.t.0 f f f f f f f l l.p.p.p.U *.*.*.*.*.*.*.*.v f f f f f L p.p.p.l f ",
"f f J.p.p.p.0 f   W.f f f f f f f f f b.p.p.p.q f f   W.f x p.p.p.p.f.8.4.8.8.J.p.p.p.p.t.0 f f f f f f f f f K.p.p.p.p.p.( r f f f f f f f l j.p.p.p.g.m.m.m.m.m.m.m.m.m.R f f f f L p.p.p.t f ",
"f f J.p.p.p.q f   W.f f f f f f f f f b.p.p.p.e f f   W.f f E p.p.p.p.p.p.p.p.p.p.p.p.p.~ r f f f f f f f f h *.p.p.p.p.p.t s f f f f f f f l l.p.p.p.p.p.p.p.p.p.p.p.p.p.p.f f f f L p.p.p.5 f ",
"f f J.p.p.p.q f   f f f f f f f f f f b.p.p.p.q = =   f f f f | p.p.p.p.p.p.p.p.p.p.p.+ q f f f f f f f f f f h s.p.p.p.p.; f f f f f f f h l l.p.p.p.p.p.p.p.p.p.p.p.p.p.p.e f = = L p.p.p.5 f ",
"= = p p.p.p.$ =   f f f f f f f f = = T p.p.p.* = =   f f f f f J p.p.p.p.p.p.p.p.p.-   f f f f f f f f f = = = X.p.p.p.O.q f f = = = = = = = 0.p.p.p.p.p.p.p.p.p.p.p.p.p.t.* = = = : p.p.p.5 f ",
"    . B M b                           o B B 4                       M r.p.p.p.O.>                               o B M M #                     & M M M M M M M B M B M M M 3         . B B B     ",
"  W.W.s r r s f f f f f f f f f f   W.W.s r r s f f f f f f f f f f f   ,.~ ; 0 e s f f f f f f f f f f   W.W.f f s r r r f f f   W.W.f f f f f a a r r r a r a r   D.D.r r s f f f f d r r a f ",
"  W.W.f f f f f f f f f f f f f f   W.W.f f f f f f f f f f f f f f f   W.W.f f f f f f f f f f f f f f   W.W.f f f f f f f f f   W.W.f f f f f f f f f f f f f f   W.W.f f f f f f f f f f f f ",
"  W.f f f f f f f f f f f f f f f   W.W.f f f f f f f f f f f f f f f   W.f f f f f f f f f f f f f f f   W.W.f f f f f f f f f   W.f f f f f f f f f f f f f f f   W.W.f f f f f f f f f f f f ",
"  W.f f f f f f f f f f f f f f f   W.f f f f f f f f f f f f f f f f   W.f f f f f f f f f f f f f f f   W.f f f f f f f f f f   W.f f f f f f f f f f f f f f f   W.f f f f f f f f f f f f f ",
"  W.f f f f f f f f f f f f f f f   W.f f f f f f f f f f f f f f f f   W.f f f f f f f f f f f f f f f   W.f f f f f f f f f f   W.f f f f f f f f f f f f f f f   W.f f f f f f f f f f f f f ",
"  W.f f f f f f f f f f f f f f f   W.f f f f f f f f f f f f f f f f   W.f f f f f f f f f f f f f f f   W.f f f f f f f f f f   W.f f f f f f f f f f f f f f f   W.f f f f f f f f f f f f f ",
"  f f f f f f f f f f f f f f f =   f f f f f f f f f f f f f f f f =   f f f f f f f f f f f f f f f =   f f f f f f f f f f f   f f f f f f f f f f f f f f f =   f f f f f f f f f f f f f f ",
"  f f f f f f f f f f f f f f f =   f f f f f f f f f f f f f f f f =   f f f f f f f f f f f f f f f =   f f f f f f f f f f f   f f f f f f f f f f f f f f f =   f f f f f f f f f f f f f f ",
"  f f f f f f f f f f f f f f = =   f f f f f f f f f f f f f f f f =   f f f f f f f f f f f f f f f =   f f f f f f f f f f f   f f f f f f f f f f f f f f = =   f f f f f f f f f f f f f f ",
"                                                                                                                                                                                                ",
"f f f f f f f f   W.W.f f f f f f f f f f f f f f f   W.W.f f f f f f f f f f f f f f   W.W.W.f f f f f f f f f f f f f   W.W.f f f f f f f f f   W.W.f f f f f f f f f f f f f f f   W.W.f f f ",
"f f f f f f f f   W.W.f f f f f f f f f f f f f f f   W.f f f f f f f f f f f f f f f   W.W.f f f f f f f f f f f f f f   W.f f f f f f f f f f   W.W.f f f f f f f f f f f f f f f   W.f f f f ",
"f f f f f f f f   W.f f f f f f f f f f f f f f f f   W.f f f f f f f f f f f f f f f   W.f f f f f f f f f f f f f f f   f f f f f f f f f f f   W.f f f f f f f f f f f f f f f f   W.f f f f ",
"f f f f f f f f   W.f f f f f f f f f f f f f f f f   W.f f f f f f f f f f f f f f f   W.f f f f f f f f f f f f f f f   f f f f f f f f f f f   W.f f f f f f f f f f f f f f f f   W.f f f f ",
"f f f f f f f f   W.f f f f f f f f f f f f f f f f   W.f f f f f f f f f f f f f f f   W.f f f f f f f f f f f f f f f   f f f f f f f f f f f   W.f f f f f f f f f f f f f f f f   W.f f f f ",
"f f f f f f f f   f f f f f f f f f f f f f f f = =   f f f f f f f f f f f f f f f =   f f f f f f f f f f f f f f f =   f f f f f f f f f f f   f f f f f f f f f f f f f f f = =   f f f f f ",
"= = = = = = = =   f f f f f f f f = = = = = = = = =   f f f f f f f f f = = = = = = =   f f f f f f f f f = = = = = = =   f f f = = = = = = = =   f f f f f f f f = = = = = = = = =   f f f f f "
};
